<svg width="182" height="179" viewBox="0 0 182 179" fill="none" xmlns="http://www.w3.org/2000/svg">
<path d="M19.7842 71.6215H17.5376C15.1267 71.6215 12.8147 72.5792 11.1099 74.2839C9.40521 75.9886 8.44751 78.3007 8.44751 80.7116V130.593C8.44751 133.004 9.40521 135.316 11.1099 137.021C12.8147 138.725 15.1267 139.683 17.5376 139.683H48.3601C50.7709 139.683 53.083 138.725 54.7878 137.021C56.4925 135.316 57.4502 133.004 57.4502 130.593" stroke="#263238" stroke-width="0.46701" stroke-linecap="round" stroke-linejoin="round" stroke-dasharray="1.87 1.87"/>
<path d="M54.9384 24.5546V14.7018C54.9384 13.2276 55.5231 11.8135 56.5644 10.7699C57.6057 9.72627 59.0185 9.13832 60.4927 9.13503H100.575C102.052 9.13503 103.468 9.72152 104.512 10.7655C105.556 11.8095 106.142 13.2254 106.142 14.7018" stroke="#263238" stroke-width="0.46701" stroke-linecap="round" stroke-linejoin="round" stroke-dasharray="1.87 1.87"/>
<path d="M91.0002 178.141C134.844 178.141 170.386 173.175 170.386 167.049C170.386 160.923 134.844 155.957 91.0002 155.957C47.1566 155.957 11.6144 160.923 11.6144 167.049C11.6144 173.175 47.1566 178.141 91.0002 178.141Z" fill="#FFA1C3"/>
<path opacity="0.5" d="M91.0002 178.141C134.844 178.141 170.386 173.175 170.386 167.049C170.386 160.923 134.844 155.957 91.0002 155.957C47.1566 155.957 11.6144 160.923 11.6144 167.049C11.6144 173.175 47.1566 178.141 91.0002 178.141Z" fill="white"/>
<path d="M165.835 37.7731V112.409C165.835 114.849 164.866 117.188 163.141 118.914C161.416 120.64 159.077 121.61 156.637 121.611H25.3635C22.9237 121.61 20.5842 120.64 18.8594 118.914C17.1346 117.188 16.1656 114.849 16.1656 112.409V37.7731C16.1656 37.5534 16.1656 37.3586 16.1947 37.1265C16.3563 34.8047 17.3924 32.6307 19.094 31.0429C20.7956 29.4551 23.0361 28.5718 25.3635 28.5711H156.637C158.967 28.5721 161.21 29.4577 162.912 31.049C164.614 32.6402 165.648 34.8184 165.806 37.1431C165.826 37.342 165.835 37.5576 165.835 37.7731Z" fill="white" stroke="#263238" stroke-width="0.46701" stroke-linecap="round" stroke-linejoin="round"/>
<path d="M20.6422 40.5752H161.826V109.52C161.826 111.806 160.918 113.999 159.301 115.616C157.684 117.233 155.491 118.141 153.205 118.141H29.268C26.9814 118.141 24.7885 117.233 23.1716 115.616C21.5547 113.999 20.6464 111.806 20.6464 109.52V40.5752H20.6422Z" fill="#263238"/>
<path opacity="0.2" d="M161.831 40.5752V109.52C161.843 111.793 160.951 113.979 159.353 115.596C157.754 117.213 155.578 118.128 153.304 118.141H29.1687C26.8949 118.128 24.7194 117.213 23.1205 115.596C21.5216 113.979 20.6302 111.793 20.6423 109.52V40.5752H161.831Z" fill="white"/>
<path d="M165.806 37.143H16.1945C16.3561 34.8212 17.3922 32.6472 19.0938 31.0594C20.7954 29.4716 23.0359 28.5883 25.3633 28.5876H156.637C158.964 28.5883 161.205 29.4716 162.906 31.0594C164.608 32.6472 165.644 34.8212 165.806 37.143Z" fill="#FFA1C3" stroke="#263238" stroke-width="0.46701" stroke-miterlimit="10"/>
<path d="M34.5778 32.8488C34.5778 33.171 34.4823 33.4859 34.3033 33.7538C34.1243 34.0217 33.8699 34.2305 33.5722 34.3538C33.2746 34.4771 32.947 34.5094 32.631 34.4465C32.315 34.3836 32.0248 34.2285 31.797 34.0007C31.5691 33.7729 31.414 33.4826 31.3511 33.1666C31.2883 32.8506 31.3205 32.5231 31.4438 32.2254C31.5671 31.9278 31.7759 31.6733 32.0438 31.4943C32.3117 31.3153 32.6266 31.2198 32.9488 31.2198C33.3809 31.2198 33.7952 31.3914 34.1007 31.6969C34.4062 32.0024 34.5778 32.4168 34.5778 32.8488Z" fill="#263238"/>
<path d="M41.467 32.8488C41.467 33.171 41.3714 33.4859 41.1925 33.7538C41.0135 34.0217 40.759 34.2305 40.4614 34.3538C40.1637 34.4771 39.8362 34.5094 39.5202 34.4465C39.2042 34.3836 38.9139 34.2285 38.6861 34.0007C38.4583 33.7729 38.3031 33.4826 38.2403 33.1666C38.1774 32.8506 38.2097 32.5231 38.333 32.2254C38.4563 31.9278 38.6651 31.6733 38.933 31.4943C39.2009 31.3153 39.5158 31.2198 39.838 31.2198C40.27 31.2198 40.6844 31.3914 40.9899 31.6969C41.2954 32.0024 41.467 32.4168 41.467 32.8488Z" fill="#263238"/>
<path d="M46.727 34.4778C47.6267 34.4778 48.356 33.7485 48.356 32.8488C48.356 31.9491 47.6267 31.2198 46.727 31.2198C45.8274 31.2198 45.098 31.9491 45.098 32.8488C45.098 33.7485 45.8274 34.4778 46.727 34.4778Z" fill="#263238"/>
<path d="M161.827 40.5752V109.52C161.827 111.806 160.918 113.999 159.301 115.616C157.684 117.233 155.492 118.141 153.205 118.141H29.2682C27.2725 118.141 25.3387 117.448 23.7967 116.181C22.2547 114.914 21.1999 113.152 20.8123 111.194V111.169C20.7069 110.623 20.6542 110.068 20.6548 109.511V40.5752H161.827Z" stroke="#263238" stroke-width="0.46701" stroke-miterlimit="10"/>
<path d="M161.694 51.2362C161.089 50.8968 160.447 50.631 159.779 50.4445L159.004 46.9834H155.713L154.946 50.4445C154.274 50.6276 153.628 50.8936 153.022 51.2362L150.05 49.3336L147.725 51.6507L149.594 54.6227C149.252 55.2287 148.986 55.8747 148.803 56.546L145.342 57.3128V60.604L148.803 61.3791C148.984 62.0538 149.25 62.7028 149.594 63.3107L147.692 66.3034L150.021 68.6288L153.01 66.7262C153.615 67.0694 154.259 67.3367 154.929 67.5221L155.7 70.979H158.979L159.75 67.5221C160.418 67.3349 161.061 67.0677 161.665 66.7262L161.818 66.8257V51.1533L161.694 51.2362ZM157.366 63.2568C156.525 63.2568 155.703 63.0073 155.003 62.5398C154.304 62.0723 153.759 61.4079 153.437 60.6305C153.115 59.8532 153.031 58.9979 153.196 58.1728C153.36 57.3477 153.766 56.59 154.361 55.9954C154.956 55.4008 155.714 54.996 156.539 54.8324C157.365 54.6688 158.22 54.7536 158.997 55.0761C159.774 55.3986 160.438 55.9444 160.905 56.6443C161.371 57.3442 161.62 58.1669 161.619 59.0082C161.619 59.5665 161.509 60.1193 161.295 60.635C161.082 61.1508 160.768 61.6193 160.373 62.0139C159.978 62.4085 159.51 62.7213 158.994 62.9346C158.478 63.1479 157.925 63.2574 157.366 63.2568Z" fill="#263238"/>
<path d="M102.378 54.573V47.6342L95.0831 46.0135C94.6894 44.6038 94.133 43.2448 93.4251 41.9638L94.308 40.5752H59.8627L60.7124 41.9264C59.9958 43.2018 59.439 44.5606 59.0544 45.972L51.755 47.5969V54.5522L59.0544 56.1812C59.439 57.6032 59.9958 58.973 60.7124 60.26L56.7042 66.5646L61.6161 71.4723L67.9165 67.4599C69.1947 68.1789 70.5542 68.7425 71.9662 69.1386L73.5911 76.4132H80.5133L82.1464 69.1221C83.5538 68.724 84.909 68.1605 86.1837 67.4433L92.4883 71.4557L97.396 66.548L93.4127 60.2434C94.1188 58.9644 94.6751 57.6083 95.0707 56.202L102.378 54.573ZM77.0936 60.0693C75.3204 60.0693 73.587 59.5435 72.1125 58.5583C70.6381 57.5731 69.489 56.1729 68.8104 54.5346C68.1318 52.8963 67.9542 51.0936 68.3002 49.3544C68.6461 47.6153 69.5 46.0177 70.7539 44.7638C72.0078 43.51 73.6053 42.6561 75.3445 42.3101C77.0837 41.9642 78.8864 42.1417 80.5247 42.8203C82.1629 43.4989 83.5632 44.6481 84.5484 46.1225C85.5335 47.5969 86.0594 49.3303 86.0594 51.1036C86.0599 52.2811 85.8284 53.4472 85.378 54.5352C84.9276 55.6233 84.2672 56.6119 83.4346 57.4445C82.6019 58.2772 81.6133 58.9375 80.5253 59.3879C79.4373 59.8383 78.2712 60.0698 77.0936 60.0693Z" fill="#263238"/>
<path d="M56.3393 102.22L56.6336 96.7114L50.9259 95.1032C50.6609 93.9711 50.2688 92.8726 49.757 91.8286L53.2057 86.9872L49.5083 82.8877L44.3436 85.7893C43.3563 85.1682 42.3006 84.6633 41.1975 84.2846L40.2109 78.4318L34.7063 78.179L33.1146 83.9033C31.9806 84.1576 30.8812 84.5472 29.8401 85.0639L25.0028 81.6194L20.8951 85.3126L23.8215 90.4814C23.1941 91.4643 22.6875 92.5193 22.3127 93.6234L20.6546 93.897V101.358L21.865 101.698C22.1161 102.834 22.5044 103.935 23.0215 104.977L20.6422 108.313L20.7997 111.169V111.194L23.2577 113.918L28.4307 110.995C29.4162 111.629 30.4756 112.14 31.5851 112.516L32.5551 118.137L32.6007 118.373L38.1053 118.664L38.2503 118.137L39.697 112.943C40.8361 112.688 41.9409 112.299 42.9881 111.783L47.8171 115.223L51.9207 111.534L49.0192 106.361C49.6407 105.379 50.1404 104.326 50.5072 103.223L56.3393 102.22ZM41.7197 93.6192C40.7768 92.5704 39.544 91.8249 38.1773 91.4768C36.8106 91.1288 35.3713 91.1939 34.0416 91.664C32.7119 92.1341 31.5515 92.988 30.7072 94.1177C29.8629 95.2474 29.3726 96.6021 29.2983 98.0105C29.2241 99.4189 29.5692 100.818 30.2901 102.03C31.011 103.242 32.0751 104.213 33.348 104.82C34.6209 105.428 36.0454 105.644 37.4411 105.441C38.8369 105.239 40.1412 104.627 41.1892 103.683C42.5884 102.419 43.4298 100.652 43.5293 98.7692C43.6287 96.8861 42.9781 95.0403 41.7197 93.6358V93.6192Z" fill="#263238"/>
<path d="M100.368 94.0089C100.581 93.1558 100.694 92.2808 100.704 91.4016L104.662 89.3291L103.568 85.3126L99.0995 85.5198C98.6469 84.7691 98.1086 84.0736 97.4954 83.4473L98.8176 79.1738L95.2114 77.1012L92.1939 80.3924C91.3423 80.1869 90.4708 80.0756 89.5949 80.0608L87.5224 76.1023L83.51 77.1924L83.7214 81.6649C82.9706 82.1174 82.2751 82.6557 81.6489 83.2691L77.3712 81.9468L75.2987 85.5488L78.6147 88.5623C78.4003 89.4121 78.2903 90.2848 78.2872 91.1612L74.3204 93.2337L75.4147 97.2461L79.8914 97.0347C80.3351 97.7893 80.8712 98.4855 81.4872 99.1073L80.1567 103.36L83.767 105.433L86.768 102.166C87.6205 102.381 88.4961 102.491 89.3752 102.494L91.4477 106.456L95.4601 105.366L95.2819 101.545L95.2529 100.89C96.0142 100.442 96.7184 99.9029 97.3503 99.2855L101.624 100.612L103.39 97.528L103.688 97.0057L100.368 94.0089ZM90.8882 96.4462C89.8592 96.7299 88.7692 96.7017 87.7562 96.3651C86.7433 96.0285 85.8532 95.3987 85.1988 94.5555C84.5443 93.7123 84.155 92.6937 84.0802 91.629C84.0055 90.5642 84.2486 89.5013 84.7788 88.5749C85.309 87.6485 86.1024 86.9005 87.0583 86.4256C88.0142 85.9507 89.0896 85.7705 90.1481 85.9077C91.2067 86.0449 92.2006 86.4933 93.0039 87.1962C93.8072 87.899 94.3836 88.8246 94.6601 89.8555C95.0287 91.2295 94.8389 92.6935 94.1323 93.9282C93.4257 95.1628 92.2595 96.068 90.8882 96.4462Z" fill="#263238"/>
<path d="M146.262 101.072L147.174 95.5591L141.595 93.3167C141.468 92.1417 141.199 90.9865 140.795 89.8763L144.811 85.4038L141.561 80.8442L136.024 83.1945C135.104 82.4575 134.099 81.834 133.031 81.3375L132.708 75.3313L127.195 74.4194L124.936 79.9738C123.766 80.1112 122.616 80.3824 121.508 80.7821L117.023 76.7655L112.484 80.0152L114.838 85.5489C114.19 86.3577 113.628 87.2314 113.16 88.1561C113.097 88.2846 113.031 88.4131 112.973 88.5416L106.971 88.8732L106.055 94.3778L106.959 94.7425L111.634 96.6285C111.762 97.7979 112.03 98.9475 112.434 100.052L108.409 104.554L111.663 109.113L117.197 106.751C118.113 107.494 119.117 108.123 120.185 108.624L120.496 114.601L126.005 115.513L128.26 110C129.432 109.872 130.585 109.602 131.692 109.196L136.169 113.213L140.728 109.959L138.374 104.421C139.124 103.501 139.757 102.492 140.26 101.416L146.262 101.072ZM130.801 100.823C129.641 101.655 128.261 102.125 126.834 102.172C125.407 102.22 123.999 101.843 122.786 101.09C121.574 100.337 120.612 99.2411 120.022 97.9412C119.432 96.6413 119.241 95.1957 119.473 93.7873C119.705 92.3788 120.35 91.0708 121.325 90.0287C122.3 88.9865 123.563 88.257 124.953 87.9324C126.343 87.6078 127.798 87.7028 129.134 88.2052C130.47 88.7076 131.627 89.595 132.459 90.755C133.573 92.3112 134.023 94.2461 133.711 96.1343C133.398 98.0224 132.349 99.7091 130.793 100.823H130.801Z" fill="#263238"/>
<path d="M71.5517 60.2599H28.2028C25.2016 60.2599 22.7687 62.6929 22.7687 65.6941V125.71C22.7687 128.711 25.2016 131.144 28.2028 131.144H71.5517C74.5529 131.144 76.9858 128.711 76.9858 125.71V65.6941C76.9858 62.6929 74.5529 60.2599 71.5517 60.2599Z" fill="#FFA1C3" stroke="#263238" stroke-width="0.46701" stroke-miterlimit="10"/>
<path opacity="0.2" d="M71.5517 60.2599H28.2028C25.2016 60.2599 22.7687 62.6929 22.7687 65.6941V125.71C22.7687 128.711 25.2016 131.144 28.2028 131.144H71.5517C74.5529 131.144 76.9858 128.711 76.9858 125.71V65.6941C76.9858 62.6929 74.5529 60.2599 71.5517 60.2599Z" fill="black"/>
<path d="M82.0302 71.0495V131.066C82.0308 131.78 81.8906 132.487 81.6178 133.146C81.3449 133.806 80.9447 134.406 80.4401 134.911C79.9354 135.416 79.3362 135.816 78.6766 136.09C78.017 136.363 77.3101 136.504 76.5961 136.504H33.2473C32.5336 136.503 31.8271 136.362 31.168 136.089C30.5089 135.815 29.9102 135.414 29.406 134.909C28.9017 134.404 28.5019 133.805 28.2293 133.145C27.9567 132.486 27.8167 131.779 27.8173 131.066V71.0495C27.8173 69.609 28.3892 68.2274 29.4074 67.2084C30.4256 66.1895 31.8068 65.6165 33.2473 65.6154H76.5961C78.0373 65.6154 79.4195 66.1879 80.4386 67.207C81.4577 68.2261 82.0302 69.6083 82.0302 71.0495Z" fill="white" stroke="#263238" stroke-width="0.46701" stroke-linecap="round" stroke-linejoin="round"/>
<path d="M82.0302 71.0495V74.2619H27.8173V71.0495C27.8173 69.609 28.3892 68.2274 29.4074 67.2084C30.4256 66.1895 31.8068 65.6165 33.2473 65.6154H76.5961C78.0373 65.6154 79.4195 66.1879 80.4386 67.207C81.4577 68.2261 82.0302 69.6083 82.0302 71.0495Z" fill="#FFA1C3" stroke="#263238" stroke-width="0.46701" stroke-miterlimit="10"/>
<path d="M46.2544 77.9841H32.9156V80.2225H46.2544V77.9841Z" fill="#FFA1C3"/>
<path d="M46.2544 98.042H32.9156V100.28H46.2544V98.042Z" fill="#FFA1C3"/>
<path d="M46.2544 116.23H32.9156V118.469H46.2544V116.23Z" fill="#FFA1C3"/>
<path d="M70.7972 83.5261H32.9156V85.1675H70.7972V83.5261Z" fill="#263238"/>
<path d="M63.9661 86.6638H32.9156V88.2638H63.9661V86.6638Z" fill="#263238"/>
<path d="M68.0324 89.7519H32.9156V91.3519H68.0324V89.7519Z" fill="#263238"/>
<path d="M68.0324 92.8358H32.9156V94.4358H68.0324V92.8358Z" fill="#263238"/>
<path d="M70.7972 101.715H32.9156V103.356H70.7972V101.715Z" fill="#263238"/>
<path d="M63.9661 104.852H32.9156V106.452H63.9661V104.852Z" fill="#263238"/>
<path d="M68.0324 107.94H32.9156V109.54H68.0324V107.94Z" fill="#263238"/>
<path d="M70.7972 121.685H32.9156V123.327H70.7972V121.685Z" fill="#263238"/>
<path d="M63.9661 124.827H32.9156V126.427H63.9661V124.827Z" fill="#263238"/>
<path d="M68.0324 127.915H32.9156V129.515H68.0324V127.915Z" fill="#263238"/>
<path d="M143.132 23.9991V48.2559C143.132 49.1071 142.965 49.9499 142.639 50.7362C142.313 51.5225 141.835 52.2369 141.233 52.8385C140.631 53.4402 139.917 53.9173 139.13 54.2426C138.344 54.568 137.501 54.7352 136.65 54.7346H80.7826C79.9315 54.7352 79.0886 54.568 78.3021 54.2426C77.5156 53.9173 76.8009 53.4402 76.1988 52.8385C75.5968 52.2369 75.1192 51.5225 74.7934 50.7362C74.4675 49.9499 74.2998 49.1071 74.2998 48.2559V23.9991C74.3009 22.2801 74.9843 20.6318 76.1998 19.4163C77.4153 18.2008 79.0636 17.5174 80.7826 17.5163H136.65C138.369 17.5163 140.018 18.1993 141.234 19.4151C142.449 20.6308 143.132 22.2798 143.132 23.9991Z" fill="white" stroke="#222221" stroke-width="0.46701" stroke-miterlimit="10"/>
<path d="M143.132 23.9991V24.5546H74.2998V23.9991C74.3009 22.2801 74.9843 20.6318 76.1998 19.4163C77.4153 18.2008 79.0636 17.5174 80.7826 17.5163H136.65C138.369 17.5163 140.018 18.1993 141.234 19.4151C142.449 20.6308 143.132 22.2798 143.132 23.9991Z" fill="#FFA1C3" stroke="#263238" stroke-width="0.46701" stroke-miterlimit="10"/>
<path d="M84.4137 22.196C84.2747 22.3354 84.0974 22.4304 83.9044 22.469C83.7113 22.5076 83.5112 22.488 83.3293 22.4128C83.1473 22.3376 82.9918 22.21 82.8824 22.0464C82.773 21.8827 82.7146 21.6903 82.7146 21.4935C82.7146 21.2966 82.773 21.1042 82.8824 20.9405C82.9918 20.7769 83.1473 20.6494 83.3293 20.5741C83.5112 20.4989 83.7113 20.4794 83.9044 20.5179C84.0974 20.5565 84.2747 20.6515 84.4137 20.7909C84.5987 20.9779 84.7025 21.2304 84.7025 21.4935C84.7025 21.7566 84.5987 22.009 84.4137 22.196Z" fill="#263238"/>
<path d="M89.0229 22.196C88.8839 22.3354 88.7067 22.4304 88.5136 22.469C88.3206 22.5076 88.1204 22.488 87.9385 22.4128C87.7566 22.3376 87.6011 22.21 87.4917 22.0464C87.3823 21.8827 87.3239 21.6903 87.3239 21.4935C87.3239 21.2966 87.3823 21.1042 87.4917 20.9405C87.6011 20.7769 87.7566 20.6494 87.9385 20.5741C88.1204 20.4989 88.3206 20.4794 88.5136 20.5179C88.7067 20.5565 88.8839 20.6515 89.0229 20.7909C89.208 20.9779 89.3118 21.2304 89.3118 21.4935C89.3118 21.7566 89.208 22.009 89.0229 22.196Z" fill="#263238"/>
<path d="M93.6322 22.196C93.4932 22.3354 93.3159 22.4304 93.1229 22.469C92.9298 22.5076 92.7297 22.488 92.5478 22.4128C92.3659 22.3376 92.2103 22.21 92.1009 22.0464C91.9915 21.8827 91.9331 21.6903 91.9331 21.4935C91.9331 21.2966 91.9915 21.1042 92.1009 20.9405C92.2103 20.7769 92.3659 20.6494 92.5478 20.5741C92.7297 20.4989 92.9298 20.4794 93.1229 20.5179C93.3159 20.5565 93.4932 20.6515 93.6322 20.7909C93.8172 20.9779 93.921 21.2304 93.921 21.4935C93.921 21.7566 93.8172 22.009 93.6322 22.196Z" fill="#263238"/>
<path d="M145.014 84.2017H132.351C130.856 84.2017 129.644 85.4135 129.644 86.9084V94.3405C129.644 95.8353 130.856 97.0472 132.351 97.0472H145.014C146.509 97.0472 147.721 95.8353 147.721 94.3405V86.9084C147.721 85.4135 146.509 84.2017 145.014 84.2017Z" fill="white" stroke="#263238" stroke-width="0.46701" stroke-linecap="round" stroke-linejoin="round"/>
<path d="M135.476 88.0649L131.999 90.2452L135.228 93.1053" stroke="#263238" stroke-width="0.46701" stroke-linecap="round" stroke-linejoin="round"/>
<path d="M141.81 93.3125L144.936 90.6514L141.329 88.2887" stroke="#263238" stroke-width="0.46701" stroke-linecap="round" stroke-linejoin="round"/>
<path d="M137.168 94.9539L139.733 86.9043" stroke="#263238" stroke-width="0.46701" stroke-linecap="round" stroke-linejoin="round"/>
<path d="M110.424 165.005C110.424 165.005 98.4033 168.45 96.7246 169.047C95.1992 169.585 91.0625 171.036 87.9578 170.584C87.6581 170.541 87.3618 170.478 87.0708 170.394C83.9247 169.457 82.5113 168.582 82.0968 166.605C81.6823 164.628 83.2491 163.169 84.7579 162.236C86.2667 161.304 94.449 160.33 94.449 160.33L96.4262 160.91L110.424 165.005Z" fill="#FFA1C3"/>
<path d="M87.9578 170.584C87.6581 170.541 87.3618 170.478 87.0708 170.394C83.9247 169.457 82.5113 168.582 82.0968 166.605C81.6823 164.628 83.2491 163.169 84.7579 162.236C86.2667 161.304 94.449 160.33 94.449 160.33L96.4262 160.91C94.6355 161.739 87.9703 162.191 86.5154 163.028C85.0605 163.865 84.3599 165.44 85.218 167.587C85.6781 168.707 86.905 169.805 87.9578 170.584Z" fill="white"/>
<path d="M108.617 165.494C108.617 165.494 99.5886 167.832 96.0073 169.328C92.426 170.825 85.5991 171.48 83.1577 168.396C80.7163 165.312 82.8758 162.651 85.309 162.058C87.7421 161.465 92.6623 160.533 95.3483 160.91" stroke="#263238" stroke-width="0.46701" stroke-linecap="round" stroke-linejoin="round"/>
<path d="M88.136 170.423C88.136 170.423 83.5433 167.903 85.0687 164.371C86.1961 161.768 92.3225 162.332 95.3567 160.91" stroke="#263238" stroke-width="0.46701" stroke-linecap="round" stroke-linejoin="round"/>
<path d="M147.037 171.144C146.913 172.387 146.477 173.552 145.234 174.286C144.405 174.775 143.228 175.065 141.541 175.049C137.325 174.995 129.4 171.981 129.4 171.981L121.98 167.878L125.839 161.772L126.896 160.114L129.624 160.727C129.624 160.727 131.883 162.008 134.154 163.028C136.426 164.048 141.943 164.271 143.887 165.834C145.831 167.397 147.248 169.096 147.037 171.144Z" fill="#FFA1C3"/>
<path d="M147.037 171.144C146.913 172.387 146.477 173.552 145.234 174.286C145.592 173.063 145.519 171.755 145.027 170.58C144.198 168.719 141.499 167.078 137.951 166.804C134.403 166.53 131.688 164.872 130.266 164.131C129.155 163.554 126.813 162.294 125.839 161.772L126.896 160.114L129.624 160.727C129.624 160.727 131.883 162.008 134.154 163.028C136.426 164.048 141.943 164.271 143.887 165.834C145.831 167.397 147.248 169.096 147.037 171.144Z" fill="white"/>
<path d="M123.626 169.03C128.967 172.134 134.869 174.15 140.994 174.962C142.345 175.123 143.916 175.148 144.819 174.132C145.06 173.839 145.239 173.501 145.346 173.137C145.452 172.773 145.485 172.391 145.441 172.014C145.28 170.108 143.675 168.599 141.918 167.84C140.16 167.082 138.225 166.908 136.355 166.489C134.496 166.07 132.699 165.412 131.008 164.533C129.665 163.832 128.368 162.982 126.888 162.667C125.408 162.352 123.647 162.734 122.855 164.027" stroke="#263238" stroke-width="0.46701" stroke-linecap="round" stroke-linejoin="round"/>
<path d="M144.322 174.651C145.017 174.318 145.624 173.828 146.095 173.219C146.566 172.61 146.889 171.9 147.037 171.144C147.306 169.349 146.283 167.542 144.844 166.439C143.406 165.337 141.603 164.814 139.825 164.446C138.046 164.077 136.227 163.828 134.523 163.152C131.924 162.133 129.358 160.126 126.648 160.844" stroke="#263238" stroke-width="0.46701" stroke-linecap="round" stroke-linejoin="round"/>
<path d="M131.999 104.815L119.443 100.04L119.286 99.9777C119.286 99.9777 119.332 99.6461 119.369 99.1487C119.448 98.1456 119.489 96.5125 119.017 95.9612C118.316 95.1322 116.335 95.8285 114.399 94.9415C112.463 94.0545 108.886 95.642 108.886 95.642C108.886 95.642 106.3 95.1653 105.156 97.0306C104.575 98.5353 104.774 100.761 104.774 100.761L104.538 100.844C103.042 101.404 94.9007 104.467 93.1805 105.698C91.2779 107.045 89.1723 120.877 88.4966 124.939C87.821 129.001 86.6189 132.661 87.2282 134.058C87.8375 135.455 96.5836 142.191 101.616 143.928C106.648 145.664 124.492 145.171 124.492 145.171C124.492 145.171 124.782 145.092 125.3 144.927C128.318 143.957 139.025 139.953 144.708 130.552C144.716 130.568 139.211 112.525 131.999 104.815ZM98.0758 128.081C97.1515 128.736 97.6613 131.273 97.6613 131.273L96.0903 129.888L100.036 120.185L101.719 127.646C101.719 127.646 99.0001 127.43 98.0758 128.081ZM129.644 134.245C129.209 134.469 130.888 129.805 130.092 128.748C129.296 127.691 126.896 127.791 126.896 127.791L127.099 126.518L128.521 119.223L128.994 118.664C128.994 118.664 133.877 127.032 134.751 129.984C134.751 129.992 129.429 134.245 129.644 134.245Z" fill="#FFA1C3"/>
<path d="M108.293 74.5521L101.81 81.4328C101.81 81.4328 100.919 82.2245 101.272 84.2183C101.624 86.2121 102.453 87.9488 103.079 88.0649C103.574 88.1516 104.076 88.196 104.579 88.1975C104.579 88.1975 105.968 91.2068 106.954 92.3882C106.954 92.3882 107.294 97.0348 107.112 98.3239C107.112 98.3239 109.442 100.359 111.634 100.616C113.827 100.873 117.213 97.5156 117.213 97.5156L118.042 93.4037C118.042 93.4037 120.032 90.3861 120.165 89.582C120.297 88.7778 121.209 88.9851 121.657 88.5872C122.105 88.1892 123.137 86.4193 123.315 84.7447C123.493 83.0701 123.497 81.1468 121.553 81.7105C119.866 81.2587 120.923 77.694 120.923 77.694L117.96 75.0826L108.293 74.5521Z" fill="white"/>
<path opacity="0.5" d="M119.444 100.04C119.346 100.296 119.234 100.547 119.108 100.79C118.038 102.805 113.379 106.647 113.379 106.647L111.97 102.316L111.199 106.647C109.645 105.967 104.903 101.86 104.903 101.86C104.903 101.86 104.741 101.474 104.546 100.873L104.783 100.79C104.783 100.79 104.584 98.5477 105.164 97.0596C106.3 95.1944 108.894 95.671 108.894 95.671C108.894 95.671 112.472 94.0835 114.407 94.9705C116.343 95.8576 118.324 95.1695 119.025 95.9902C119.725 96.8109 119.294 99.9943 119.294 99.9943L119.444 100.04Z" fill="white"/>
<path opacity="0.2" d="M131.999 104.815L119.443 100.04L119.286 99.9777C119.286 99.9777 119.332 99.6461 119.369 99.1487L119.108 100.778L117.251 103.298C119.236 104.029 121.174 104.882 123.054 105.851C123.954 106.333 124.688 107.075 125.161 107.98C125.634 108.884 125.824 109.911 125.707 110.925L123.394 130.717L122.444 141.955L125.309 144.927C128.326 143.957 139.033 139.953 144.716 130.552C144.716 130.568 139.211 112.525 131.999 104.815ZM129.644 134.245C129.209 134.469 130.888 129.805 130.092 128.748C129.296 127.691 126.896 127.791 126.896 127.791L127.099 126.518L128.521 119.223L128.994 118.664C128.994 118.664 133.876 127.032 134.751 129.984C134.751 129.992 129.429 134.245 129.644 134.245Z" fill="black"/>
<path opacity="0.2" d="M102.552 128.748L100.6 122.224C100.6 122.224 97.0976 110.282 94.6976 107.339L95.3276 115.737C95.3276 115.737 93.2551 125.768 91.3608 128.748C89.4665 131.729 89.0437 132.479 91.3608 132.479C93.6779 132.479 99.3193 136.972 99.3193 136.972L98.8841 133.242L102.552 128.748ZM97.6323 131.273L96.0613 129.888L100.007 120.185L101.69 127.646C101.69 127.646 98.9877 127.443 98.0633 128.094C97.139 128.744 97.6323 131.273 97.6323 131.273Z" fill="black"/>
<path d="M106.954 92.3882C106.954 92.3882 107.311 95.9073 106.954 97.5156" stroke="#263238" stroke-width="0.46701" stroke-linecap="round" stroke-linejoin="round"/>
<path d="M117.574 97.043C117.578 95.9115 117.709 94.7839 117.964 93.6814" stroke="#263238" stroke-width="0.46701" stroke-linecap="round" stroke-linejoin="round"/>
<path d="M118.515 77.1759C118.515 77.1759 120.646 79.8494 120.534 81.8722C120.422 83.895 120.264 86.2908 120.318 88.6369C120.372 90.983 116.55 95.899 114.586 96.3342C112.621 96.7695 110.93 96.8814 109.674 95.6254C108.418 94.3695 107.162 92.6244 105.529 90.3861C103.896 88.1478 104.285 83.2359 104.285 83.2359" stroke="#263238" stroke-width="0.46701" stroke-linecap="round" stroke-linejoin="round"/>
<path d="M113.383 85.1053C113.254 85.8399 113.198 86.5856 113.218 87.3312C113.175 87.9596 113.37 88.5811 113.765 89.0721C114.001 89.3125 114.341 89.5074 114.387 89.839C114.385 89.9882 114.344 90.1344 114.267 90.2621C114.189 90.3898 114.079 90.4942 113.947 90.5643C113.681 90.6984 113.425 90.8508 113.18 91.0203" stroke="#263238" stroke-width="0.46701" stroke-linecap="round" stroke-linejoin="round"/>
<path d="M110.014 91.2773C110.014 91.2773 110.258 92.8649 112.385 93.1965" stroke="#263238" stroke-width="0.46701" stroke-linecap="round" stroke-linejoin="round"/>
<path d="M110.233 86.3157C110.233 86.7758 110.034 87.1447 109.79 87.1447C109.545 87.1447 109.346 86.7758 109.346 86.3157C109.346 85.8556 109.545 85.4867 109.79 85.4867C110.034 85.4867 110.233 85.8597 110.233 86.3157Z" fill="#263238"/>
<path d="M116.579 86.5146C116.579 86.9747 116.38 87.3437 116.136 87.3437C115.891 87.3437 115.692 86.9706 115.692 86.5146C115.692 86.0587 115.891 85.6856 116.136 85.6856C116.38 85.6856 116.579 86.0545 116.579 86.5146Z" fill="#263238"/>
<path d="M115.298 84.5043C115.298 84.5043 117.371 82.4318 119.108 84.7447" stroke="#263238" stroke-width="0.934016" stroke-linecap="round" stroke-linejoin="round"/>
<path d="M110.934 84.5458C110.934 84.5458 109.624 83.0784 107.56 84.5458" stroke="#263238" stroke-width="0.934016" stroke-linecap="round" stroke-linejoin="round"/>
<path d="M107.112 94.3446C107.112 94.3446 108.376 97.8265 111.199 98.8171C114.022 99.8078 117.769 94.6721 117.769 94.6721L117.574 94.0047C117.574 94.0047 115.116 97.1964 112.384 96.6534C109.653 96.1104 106.954 92.4048 106.954 92.4048L107.112 94.3446Z" fill="#263238"/>
<path d="M104.579 88.0649C104.579 88.0649 102.897 88.6576 102.449 87.3478C102.001 86.038 100.468 82.5851 101.811 81.4328C103.154 80.2805 104.231 82.9541 104.231 82.9541" stroke="#263238" stroke-width="0.46701" stroke-linecap="round" stroke-linejoin="round"/>
<path d="M120.314 88.7778C120.314 88.7778 121.877 89.0929 122.324 87.783C122.772 86.4732 124.306 83.0204 122.963 81.8681C121.62 80.7157 120.542 83.3893 120.542 83.3893" stroke="#263238" stroke-width="0.46701" stroke-linecap="round" stroke-linejoin="round"/>
<path d="M104.231 86.3157C104.816 86.2235 105.343 85.9123 105.707 85.4452C105.929 85.0352 106.07 84.5863 106.121 84.123C106.275 83.2415 106.353 82.3484 106.353 81.4535C106.335 81.104 106.367 80.7536 106.449 80.4131C106.573 80.0705 106.765 79.7563 107.013 79.4888C107.597 78.8007 108.306 78.2204 108.865 77.5075C109.165 77.171 109.394 76.777 109.536 76.3494C109.679 75.9217 109.732 75.4696 109.694 75.0204C110.977 76.0778 112.475 76.8413 114.084 77.2574C115.693 77.6734 117.374 77.7319 119.008 77.4287C121.972 76.8484 124.811 74.2495 124.467 70.9832C124.402 70.4355 124.167 69.922 123.796 69.5146C123.424 69.1072 122.934 68.8265 122.395 68.7117C120.932 68.3469 119.618 69.1262 118.291 69.6277C115.875 70.5397 113.508 68.9728 111.066 68.7117C108.994 68.4837 106.411 68.7449 105.325 70.8215C105.325 70.8215 101.595 71.2609 99.9369 74.3448C98.2789 77.4287 101.417 81.694 101.417 81.694C101.417 81.694 102.66 80.1686 104.289 83.2525L104.231 86.3157Z" fill="#263238"/>
<path d="M118.772 76.3883C118.772 76.3883 117.802 81.4452 120.335 83.895C120.335 83.895 120.89 82.3737 121.45 82.0007C121.853 81.1032 122.024 80.1186 121.946 79.1377C121.869 78.1568 121.546 77.2112 121.006 76.3883C119.133 73.4453 118.772 76.3883 118.772 76.3883Z" fill="#263238"/>
<path opacity="0.2" d="M123.39 70.635C123.167 71.325 122.79 71.9551 122.287 72.4773C121.784 72.9996 121.169 73.4001 120.488 73.6484C116.973 75.0826 113.562 73.4951 110.038 73.1842C107.166 72.9272 103.995 75.522 103.792 78.4733" stroke="white" stroke-width="0.46701" stroke-linecap="round" stroke-linejoin="round"/>
<path opacity="0.2" d="M101.624 77.694C101.667 76.5294 102.041 75.4011 102.701 74.441C103.362 73.4809 104.282 72.7287 105.354 72.2723" stroke="white" stroke-width="0.46701" stroke-linecap="round" stroke-linejoin="round"/>
<path d="M106.142 97.043C107.688 98.654 109.553 99.9246 111.618 100.774C111.618 100.774 115.825 99.5508 117.964 96.6285" stroke="#263238" stroke-width="0.46701" stroke-linecap="round" stroke-linejoin="round"/>
<path d="M110.442 89.6908C112.31 88.8337 113.13 86.6242 112.273 84.7556C111.416 82.8871 109.206 82.0671 107.338 82.9242C105.469 83.7812 104.649 85.9908 105.506 87.8593C106.364 89.7279 108.573 90.5479 110.442 89.6908Z" stroke="#263238" stroke-width="0.46701" stroke-linecap="round" stroke-linejoin="round"/>
<path d="M117.654 90.0184C119.695 89.7679 121.146 87.9107 120.895 85.8703C120.645 83.8299 118.788 82.3789 116.747 82.6294C114.707 82.88 113.256 84.7372 113.506 86.7776C113.757 88.818 115.614 90.269 117.654 90.0184Z" stroke="#263238" stroke-width="0.46701" stroke-linecap="round" stroke-linejoin="round"/>
<path d="M106.954 95.6545C106.577 95.7535 106.224 95.9274 105.916 96.166C105.607 96.4046 105.35 96.7029 105.16 97.0431C104.501 98.2037 104.898 101.855 104.898 101.855C104.898 101.855 108.302 105.221 111.199 106.643L112.053 101.839L113.379 106.643C113.379 106.643 117.864 103.472 119.108 100.79C119.108 100.79 119.522 97.6607 119.108 96.6451C119.013 96.3631 118.834 96.1171 118.594 95.9412C118.355 95.7653 118.066 95.668 117.769 95.6628" stroke="#263238" stroke-width="0.46701" stroke-linecap="round" stroke-linejoin="round"/>
<path d="M101.624 127.795C101.624 127.795 100.293 118.883 98.5234 115.248" stroke="#263238" stroke-width="0.46701" stroke-linecap="round" stroke-linejoin="round"/>
<path d="M94.6976 107.339C95.7281 108.804 96.6481 110.343 97.4499 111.944" stroke="#263238" stroke-width="0.46701" stroke-linecap="round" stroke-linejoin="round"/>
<path d="M129.644 113.992C130.002 112.502 130.491 111.047 131.108 109.644" stroke="#263238" stroke-width="0.46701" stroke-linecap="round" stroke-linejoin="round"/>
<path d="M126.896 127.795C126.896 127.795 127.854 121.685 128.998 116.653" stroke="#263238" stroke-width="0.46701" stroke-linecap="round" stroke-linejoin="round"/>
<path d="M128.521 119.215C129.447 117.988 130.748 117.097 132.227 116.678" stroke="#263238" stroke-width="0.46701" stroke-linecap="round" stroke-linejoin="round"/>
<path d="M119.29 99.9777C119.29 99.9777 127.012 103.066 131.999 104.819C131.999 104.819 138.134 110.585 144.712 130.568C144.712 130.568 138.685 140.707 127.22 143.957" stroke="#263238" stroke-width="0.46701" stroke-linecap="round" stroke-linejoin="round"/>
<path d="M129.209 134.605L134.751 129.992C134.751 129.992 137.682 127.766 140.728 129.287" stroke="#263238" stroke-width="0.46701" stroke-linecap="round" stroke-linejoin="round"/>
<path d="M128.998 118.664C128.998 118.664 133.578 125.432 134.751 129.992" stroke="#263238" stroke-width="0.46701" stroke-linecap="round" stroke-linejoin="round"/>
<path d="M97.6944 131.53L96.0737 129.992C96.0737 129.992 93.6696 129.577 90.9421 131.397" stroke="#263238" stroke-width="0.46701" stroke-linecap="round" stroke-linejoin="round"/>
<path d="M96.0737 129.992C96.0737 129.992 98.0882 123.36 100.074 119.965" stroke="#263238" stroke-width="0.46701" stroke-linecap="round" stroke-linejoin="round"/>
<circle cx="113.75" cy="121.333" r="8.34167" stroke="white" stroke-width="1.51667"/>
<path d="M104.782 100.79C104.782 100.79 93.6696 104.96 92.5795 106.179C91.4893 107.397 87.3484 130.713 87.2365 133.383C87.1412 135.77 95.796 141.13 100.086 143.389" stroke="#263238" stroke-width="0.46701" stroke-linecap="round" stroke-linejoin="round"/>
<path d="M113.093 108.67C113.093 108.815 113.05 108.957 112.97 109.077C112.889 109.198 112.774 109.292 112.64 109.348C112.506 109.403 112.359 109.418 112.217 109.389C112.074 109.361 111.943 109.291 111.841 109.189C111.738 109.086 111.668 108.955 111.64 108.813C111.612 108.671 111.626 108.523 111.682 108.389C111.737 108.255 111.831 108.14 111.952 108.06C112.073 107.979 112.215 107.936 112.36 107.936C112.456 107.936 112.552 107.954 112.641 107.991C112.73 108.028 112.811 108.082 112.88 108.15C112.948 108.218 113.002 108.299 113.039 108.388C113.075 108.478 113.094 108.573 113.093 108.67Z" fill="#263238"/>
<path d="M125.951 147.724H100.667C100.509 147.724 100.359 147.662 100.247 147.551C100.136 147.44 100.074 147.289 100.074 147.132C100.074 146.975 100.136 146.824 100.247 146.713C100.359 146.601 100.509 146.539 100.667 146.539H125.951C126.109 146.539 126.259 146.601 126.37 146.713C126.482 146.824 126.544 146.975 126.544 147.132C126.544 147.289 126.482 147.44 126.37 147.551C126.259 147.662 126.109 147.724 125.951 147.724Z" fill="#263238"/>
<path d="M126.838 145.743L130.225 129.826C130.277 129.579 130.274 129.324 130.215 129.079C130.156 128.833 130.043 128.604 129.884 128.408C129.725 128.212 129.524 128.054 129.296 127.946C129.068 127.838 128.819 127.782 128.567 127.783H99.0126C98.7624 127.783 98.5154 127.838 98.2893 127.945C98.0632 128.052 97.8636 128.208 97.705 128.402C97.5464 128.595 97.4327 128.822 97.3721 129.064C97.3115 129.307 97.3055 129.56 97.3546 129.805L100.393 145.192C100.467 145.57 100.669 145.911 100.963 146.159C101.258 146.407 101.629 146.547 102.014 146.556L125.139 147.086C125.534 147.095 125.92 146.966 126.23 146.72C126.54 146.475 126.755 146.13 126.838 145.743Z" fill="white" stroke="#263238" stroke-width="0.46701" stroke-linecap="round" stroke-linejoin="round"/>
<path d="M116.053 136.968C116.052 137.434 115.913 137.89 115.653 138.277C115.394 138.665 115.025 138.966 114.594 139.144C114.163 139.322 113.689 139.368 113.232 139.277C112.774 139.185 112.355 138.96 112.025 138.63C111.696 138.3 111.472 137.88 111.381 137.423C111.29 136.965 111.337 136.491 111.516 136.06C111.694 135.63 111.997 135.262 112.384 135.003C112.772 134.744 113.228 134.605 113.694 134.605C114.004 134.605 114.311 134.667 114.598 134.785C114.884 134.904 115.144 135.078 115.364 135.298C115.583 135.517 115.756 135.778 115.875 136.064C115.993 136.351 116.053 136.658 116.053 136.968Z" fill="#263238"/>
<path d="M120.691 129.304H124.202" stroke="#263238" stroke-width="0.46701" stroke-linecap="round" stroke-linejoin="round"/>
<path d="M103.924 129.304H117.251" stroke="#263238" stroke-width="0.46701" stroke-linecap="round" stroke-linejoin="round"/>
<path d="M126.896 162.642L124.202 169.714C124.202 169.714 117.33 167.981 108.53 166.178C99.3235 164.292 89.7112 161.851 84.7247 153.101C84.1195 152.035 83.7133 150.775 83.9993 149.581C84.7164 146.56 88.65 145.739 91.2407 145.436C92.8694 145.26 94.5061 145.169 96.1443 145.163C96.9733 145.163 99.7297 144.711 100.397 145.204C101.4 145.936 102.47 146.57 103.593 147.099C105.064 147.724 126.544 146.539 126.544 146.539C126.918 145.724 127.146 144.85 127.22 143.957C130.598 142.241 138.411 140.79 141.727 141.432C146.921 142.44 149.951 145.47 149.375 148.645C148.799 151.82 137.325 160.334 126.896 162.642Z" fill="#263238"/>
<path d="M126.896 162.642C126.896 162.642 120.36 160.91 115.021 157.304C109.682 153.697 105.512 149.511 98.0717 150.377" stroke="white" stroke-width="0.46701" stroke-linecap="round" stroke-linejoin="round"/>
<path d="M113.798 156.454C117.172 155.484 119.647 153.3 122.353 151.206C125.208 148.915 128.274 146.9 131.51 145.188" stroke="white" stroke-width="0.46701" stroke-linecap="round" stroke-linejoin="round"/>
<path d="M112.608 86.9043H113.599" stroke="#263238" stroke-width="0.46701" stroke-linecap="round" stroke-linejoin="round"/>
<path d="M109.655 41.2144C109.903 41.2144 110.085 41.0106 110.085 40.785C110.085 40.5375 109.881 40.3555 109.655 40.3555C109.407 40.3555 109.225 40.5593 109.225 40.785C109.203 41.0033 109.407 41.2144 109.655 41.2144Z" fill="#E94552"/>
<path d="M109.998 42.0297H109.313V47.8895H109.998V42.0297Z" fill="#E94552"/>
<path d="M97.7182 47.8895C98.5563 47.8895 99.336 47.5255 99.8535 46.8704V47.8895H100.538V42.0297H99.8535V43.0269C99.3288 42.3937 98.5563 42.0297 97.7182 42.0297C96.1514 42.0297 94.8761 43.3472 94.8761 44.9341C94.8761 46.5719 96.1514 47.8895 97.7182 47.8895ZM95.583 44.9559C95.583 43.733 96.5376 42.7285 97.7182 42.7285C98.8988 42.7285 99.8535 43.7257 99.8535 44.9559V45.0433C99.8097 46.2444 98.8769 47.1979 97.7182 47.1979C96.5376 47.2052 95.583 46.2079 95.583 44.9559Z" fill="#E94552"/>
<path d="M108.037 44.9559C108.037 43.3399 106.762 42.0515 105.195 42.0515C104.357 42.0515 103.577 42.4155 103.06 43.0488V42.0515H102.375V50.0222H103.06V46.8849C103.606 47.54 104.379 47.904 105.195 47.904C106.769 47.8894 108.037 46.5719 108.037 44.9559ZM105.195 47.2052C104.036 47.2052 103.104 46.2516 103.06 45.0506V44.9632C103.06 43.7403 104.015 42.7358 105.195 42.7358C106.376 42.7358 107.33 43.733 107.33 44.9632C107.338 46.2079 106.383 47.2052 105.195 47.2052Z" fill="#E94552"/>
<path d="M120.936 42.0297C120.28 42.0297 119.661 42.299 119.209 42.7795V42.0297H118.553V47.9113H119.209V44.4391C119.231 43.4855 120.003 42.7358 120.936 42.7358C121.869 42.7358 122.641 43.5074 122.641 44.4391V47.9113H123.326V44.4391C123.319 43.1216 122.255 42.0297 120.936 42.0297Z" fill="#E94552"/>
<path d="M126.89 47.227L126.824 47.2489C126.759 47.2707 126.642 47.2926 126.482 47.2926C126.212 47.2926 126.096 47.1106 126.096 46.7029V42.7067H126.912V42.0224H126.096V40.0498H125.389V42.0224H124.573V42.7067H125.389V46.7248C125.389 47.1542 125.454 47.4527 125.636 47.6347C125.797 47.8167 126.023 47.904 126.343 47.904C126.569 47.904 126.773 47.8822 126.912 47.8167L126.956 47.7948L126.89 47.227Z" fill="#E94552"/>
<path d="M116.112 46.2079C115.726 46.8194 115.041 47.2052 114.319 47.2052C113.182 47.2052 112.249 46.2953 112.162 45.1161H116.804C116.986 45.1161 117.147 44.9778 117.147 44.7958V44.7521C117.03 43.2089 115.806 42.0297 114.326 42.0297C112.76 42.0297 111.484 43.3472 111.484 44.9851C111.484 46.601 112.76 47.8895 114.326 47.8895C115.281 47.8895 116.17 47.3872 116.695 46.5719L116.112 46.2079ZM114.319 42.7358C115.317 42.7358 116.207 43.4637 116.411 44.4828H112.206C112.432 43.4346 113.292 42.7358 114.319 42.7358Z" fill="#E94552"/>
<path d="M93.3092 45.0724C93.3092 45.0724 93.127 44.9341 92.9448 44.8467C92.7408 44.7594 92.4639 44.6648 91.8954 44.5265C91.8299 44.5046 91.7351 44.4828 91.6695 44.4828C91.2833 44.3954 90.9845 44.2571 90.7586 44.097C90.5545 43.915 90.4598 43.7549 90.489 43.5511C90.489 43.3254 90.6274 43.1216 90.8533 42.9614C91.1011 42.7795 91.4873 42.663 91.9246 42.6921C92.4056 42.7139 92.7918 42.9614 93.178 43.238L93.2218 43.2599L93.7246 42.7795C93.659 42.7139 93.659 42.7139 93.4768 42.5975C93.0906 42.3282 92.5878 42.0515 91.9537 42.0297C91.3853 42.0079 90.8825 42.1171 90.4962 42.3718C90.0663 42.6703 89.8112 43.0779 89.7894 43.5074C89.7894 43.8277 89.8549 44.1407 90.1756 44.461C90.5618 44.8467 91.174 45.0287 91.7424 45.1452C92.2234 45.2325 92.6752 45.4145 92.8793 45.5965C93.1489 45.844 93.2436 46.026 93.2436 46.2807C93.2436 46.5355 93.0833 46.7612 92.8137 46.914C92.544 47.1179 92.1578 47.2343 91.7424 47.2125C91.2177 47.1906 90.6493 46.965 90.1027 46.5282L90.059 46.5064L89.5562 46.9577L89.5999 47.0014C90.2339 47.5692 90.9408 47.8676 91.6914 47.9113C92.238 47.9331 92.7408 47.7948 93.1707 47.5036C93.6226 47.1834 93.8776 46.7757 93.8995 46.3244C93.9432 45.844 93.6955 45.3708 93.3092 45.0724Z" fill="#E94552"/>
<path d="M118.524 35.9661C118.116 36.2864 117.613 36.4684 117.066 36.4684C115.791 36.4684 114.749 35.4711 114.749 34.2191C114.749 32.9962 115.798 31.9698 117.066 31.9698C117.613 31.9698 118.138 32.1518 118.524 32.4721L119.027 31.9698C118.502 31.5404 117.824 31.2638 117.074 31.2638C115.412 31.2638 114.071 32.5813 114.071 34.1973C114.071 35.8133 115.412 37.1308 117.074 37.1308C117.824 37.1308 118.509 36.8615 119.027 36.4247L118.524 35.9661Z" fill="black"/>
<path d="M95.1456 34.2191C95.1456 32.6031 93.8703 31.3147 92.3035 31.3147C91.4655 31.3147 90.6857 31.6787 90.1683 32.312V31.3147H89.4833V39.2854H90.1683V36.1481C90.7149 36.8032 91.4873 37.1672 92.3035 37.1672C93.8776 37.1672 95.1456 35.8278 95.1456 34.2191ZM92.3035 36.4611C91.1448 36.4611 90.212 35.5075 90.1683 34.3065V34.2191C90.1683 32.9962 91.123 31.9917 92.3035 31.9917C93.4841 31.9917 94.4388 32.9889 94.4388 34.2191C94.4461 35.4639 93.4841 36.4611 92.3035 36.4611Z" fill="black"/>
<path d="M100.313 31.3074V34.7796C100.313 35.7332 99.5619 36.4829 98.5854 36.5048C97.6307 36.4829 96.8801 35.7332 96.8801 34.7796V31.3074H96.1951V34.7796C96.1951 36.0971 97.2663 37.189 98.5854 37.189C99.9044 37.189 100.998 36.119 100.998 34.7796V31.3074H100.313Z" fill="black"/>
<path d="M105.195 31.3074C104.357 31.3074 103.577 31.6714 103.06 32.3265V29.575H102.375V37.1599H103.06V36.1408C103.585 36.7741 104.357 37.1381 105.195 37.1381C106.762 37.1381 108.037 35.8205 108.037 34.2337C108.037 32.625 106.769 31.3074 105.195 31.3074ZM107.338 34.241C107.338 35.4639 106.383 36.4684 105.202 36.4684C104.022 36.4684 103.067 35.4711 103.067 34.241V34.1536C103.111 32.9525 104.044 31.999 105.202 31.999C106.383 31.9917 107.338 32.9889 107.338 34.241Z" fill="black"/>
<path d="M112.359 30.4703C112.607 30.4703 112.789 30.2665 112.789 30.0409C112.789 29.7934 112.585 29.6114 112.359 29.6114C112.111 29.6114 111.929 29.8152 111.929 30.0409C111.907 30.2665 112.111 30.4703 112.359 30.4703Z" fill="black"/>
<path d="M112.701 31.3074H112.016V37.1672H112.701V31.3074Z" fill="black"/>
<path d="M120.98 30.4703C121.228 30.4703 121.41 30.2665 121.41 30.0409C121.41 29.7934 121.206 29.6114 120.98 29.6114C120.732 29.6114 120.55 29.8152 120.55 30.0409C120.55 30.2665 120.754 30.4703 120.98 30.4703Z" fill="black"/>
<path d="M121.322 31.3074H120.637V37.1672H121.322V31.3074Z" fill="black"/>
<path d="M126.46 34.3283C126.46 34.3283 126.278 34.19 126.096 34.1026C125.892 34.0153 125.615 33.9207 125.046 33.7824C124.981 33.7605 124.886 33.7387 124.82 33.7387C124.434 33.6513 124.135 33.513 123.909 33.3529C123.705 33.1709 123.611 33.0108 123.64 32.8069C123.64 32.5813 123.778 32.3775 124.004 32.2173C124.252 32.0354 124.638 31.9189 125.075 31.948C125.556 31.9698 125.943 32.2173 126.329 32.4939L126.373 32.5158L126.875 32.0354C126.81 31.9698 126.81 31.9698 126.628 31.8534C126.241 31.584 125.739 31.3074 125.105 31.2856C124.536 31.2638 124.033 31.3729 123.647 31.6277C123.217 31.9262 122.962 32.3338 122.94 32.7633C122.94 33.0836 123.006 33.3966 123.326 33.7168C123.713 34.1026 124.325 34.2846 124.893 34.4011C125.374 34.4884 125.826 34.6704 126.03 34.8524C126.3 35.0999 126.394 35.2819 126.394 35.5366C126.394 35.7841 126.234 36.0171 125.965 36.1699C125.695 36.3738 125.309 36.4902 124.893 36.4684C124.369 36.4465 123.8 36.2209 123.254 35.7841L123.21 35.7623L122.707 36.2136L122.751 36.2573C123.385 36.8251 124.092 37.1235 124.842 37.1672C125.389 37.189 125.892 37.0507 126.322 36.7596C126.773 36.4393 127.029 36.0316 127.05 35.5803C127.094 35.0999 126.868 34.6267 126.46 34.3283Z" fill="black"/>
<path d="M109.998 29.5823H109.313V37.1672H109.998V29.5823Z" fill="black"/>
</svg>
