<svg width="46" height="40" viewBox="0 0 46 40" fill="none" xmlns="http://www.w3.org/2000/svg">
<path d="M3.3562 3.92936C5.62503 1.39545 8.77252 0 12.2188 0C17.0656 0 20.1343 2.84926 21.8549 5.23956C22.3014 5.85982 22.6811 6.48176 23 7.067C23.3189 6.48176 23.6985 5.85982 24.1451 5.23956C25.8657 2.84926 28.9344 0 33.7812 0C37.2275 0 40.375 1.39554 42.6439 3.92945C44.808 6.34663 46 9.58393 46 13.045C46 16.8124 44.5056 20.3165 41.2971 24.0724C38.4296 27.4292 34.3042 30.8894 29.5271 34.8961C27.7471 36.3892 25.9063 37.9332 23.9465 39.6209L23.8877 39.6717C23.6336 39.8906 23.3168 40 23 40C22.6832 40 22.3664 39.8905 22.1123 39.6717L22.0535 39.6209C20.0937 37.9332 18.2529 36.3893 16.4726 34.8959C11.6958 30.8894 7.57042 27.4293 4.70287 24.0724C1.49437 20.3164 0 16.8124 0 13.045C0 9.58393 1.19196 6.34663 3.3562 3.92936ZM18.2209 32.8769C19.7555 34.1639 21.3347 35.4885 23 36.9134C24.6652 35.4887 26.2445 34.164 27.7793 32.8767C37.1284 25.0352 43.3047 19.8548 43.3047 13.045C43.3047 10.2302 42.3519 7.6158 40.6218 5.68349C38.8718 3.72924 36.4425 2.65294 33.7812 2.65294C30.0861 2.65294 27.6974 4.89362 26.3443 6.77331C25.1306 8.45917 24.4973 10.1586 24.2814 10.811C24.1007 11.3571 23.5834 11.7266 23 11.7266C22.4166 11.7266 21.8993 11.3571 21.7186 10.811C21.5027 10.1586 20.8694 8.45917 19.6557 6.77323C18.3026 4.89362 15.9139 2.65294 12.2188 2.65294C9.55749 2.65294 7.1282 3.72924 5.37832 5.68349C3.64811 7.6158 2.69531 10.2302 2.69531 13.045C2.69531 19.8548 8.87162 25.0352 18.2209 32.8769Z" fill="#FFA1C3"/>
</svg>
