<svg width="252" height="209" viewBox="0 0 252 209" fill="none" xmlns="http://www.w3.org/2000/svg">
<circle cx="126" cy="104" r="104" fill="#FFDCE9"/>
<path d="M229.936 205.606C229.936 206.678 196.013 207.544 154.215 207.544C112.416 207.544 78.4933 206.678 78.4933 205.606C78.4933 204.534 112.416 203.673 154.215 203.673C196.013 203.673 229.936 204.54 229.936 205.606Z" fill="#2E353A"/>
<path d="M39.8876 145.441C39.8331 145.441 39.5907 141.642 39.6029 141.4C39.7422 138.595 41.6685 133.252 44.7156 132.441C45.2242 132.319 45.7528 132.306 46.2667 132.403C46.7807 132.499 47.2686 132.703 47.6985 133.001C48.1283 133.299 48.4906 133.684 48.7615 134.131C49.0325 134.578 49.2061 135.078 49.271 135.597C49.6223 137.79 48.1927 140.128 46.7449 141.655C45.0366 143.423 39.8876 145.441 39.8876 145.441Z" fill="#2E353A"/>
<path d="M35.9137 130.805C35.8592 130.805 36.1924 127.013 36.2408 126.771C36.8103 124.021 39.5241 119.029 42.6499 118.69C43.1712 118.647 43.6957 118.715 44.1892 118.888C44.6826 119.061 45.1341 119.337 45.5141 119.696C45.8941 120.056 46.1941 120.491 46.3947 120.974C46.5953 121.457 46.6919 121.977 46.6783 122.5C46.6783 124.723 44.9276 126.819 43.2678 128.097C41.3111 129.6 35.9137 130.805 35.9137 130.805Z" fill="#2E353A"/>
<path d="M34.9081 113.535C34.8536 113.535 35.1929 109.743 35.2413 109.5C35.8047 106.75 38.5185 101.758 41.6504 101.419C42.1714 101.376 42.6956 101.444 43.1888 101.617C43.682 101.791 44.1331 102.066 44.5126 102.426C44.8921 102.786 45.1916 103.221 45.3915 103.704C45.5914 104.187 45.6872 104.707 45.6727 105.23C45.6727 107.453 43.9281 109.543 42.2622 110.827C40.3056 112.329 34.9142 113.535 34.9081 113.535Z" fill="#2E353A"/>
<path d="M33.1696 97.2818C33.1151 97.2818 33.4543 93.4837 33.5028 93.2474C34.0661 90.4912 36.78 85.5057 39.9118 85.1604C40.4332 85.1185 40.9575 85.1869 41.4507 85.3611C41.9439 85.5352 42.3948 85.8113 42.7743 86.1713C43.1537 86.5313 43.4531 86.9672 43.6529 87.4505C43.8527 87.9339 43.9486 88.4539 43.9341 88.9767C43.9341 91.1938 42.1895 93.2898 40.5236 94.568C38.567 96.0703 33.1756 97.2818 33.1696 97.2818Z" fill="#2E353A"/>
<path d="M27.9842 84.2396C27.9357 84.2396 27.2573 80.502 27.2391 80.2597C27.0574 77.455 28.3598 71.9243 31.2856 70.7733C31.7769 70.594 32.3005 70.5203 32.8222 70.557C33.3439 70.5937 33.852 70.74 34.3133 70.9864C34.7747 71.2328 35.1788 71.5737 35.4995 71.9868C35.8201 72.4 36.05 72.8762 36.1742 73.3842C36.78 75.5226 35.629 78.0062 34.3569 79.6782C32.8788 81.6469 27.9842 84.2396 27.9842 84.2396Z" fill="#2E353A"/>
<path d="M38.2823 145.483C38.3429 145.483 36.6891 142.024 36.5558 141.818C35.0596 139.443 30.7647 135.724 27.7177 136.505C27.2153 136.649 26.7488 136.897 26.3486 137.232C25.9484 137.568 25.6234 137.985 25.3948 138.454C25.1662 138.924 25.0391 139.437 25.0218 139.959C25.0046 140.481 25.0975 141.001 25.2946 141.485C26.0578 143.575 28.4446 144.914 30.4557 145.525C32.8304 146.246 38.2823 145.483 38.2823 145.483Z" fill="#2E353A"/>
<path d="M35.102 128.849C35.1626 128.849 33 125.674 32.8425 125.493C31.0252 123.366 26.179 120.344 23.3016 121.573C22.8254 121.79 22.4005 122.106 22.0545 122.498C21.7085 122.891 21.4493 123.352 21.2938 123.852C21.1383 124.352 21.0899 124.879 21.152 125.398C21.214 125.918 21.3851 126.419 21.6539 126.868C22.72 128.812 25.2885 129.775 27.3663 130.078C29.8015 130.43 35.102 128.849 35.102 128.849Z" fill="#2E353A"/>
<path d="M34.1873 112.553C34.2418 112.553 32.0853 109.379 31.9278 109.197C30.1104 107.071 25.2643 104.048 22.3808 105.284C21.8995 105.5 21.4695 105.815 21.1193 106.21C20.769 106.604 20.5064 107.068 20.349 107.571C20.1915 108.075 20.1427 108.606 20.2058 109.129C20.2689 109.653 20.4424 110.157 20.7149 110.609C21.7872 112.553 24.3496 113.516 26.4334 113.813C28.8868 114.14 34.1873 112.559 34.1873 112.553Z" fill="#2E353A"/>
<path d="M32.6183 97.6029C32.6789 97.6029 30.5163 94.4287 30.3588 94.2469C28.5415 92.1207 23.6953 89.0979 20.8179 90.3276C20.3418 90.5448 19.9168 90.86 19.5708 91.2527C19.2248 91.6454 18.9656 92.1066 18.8101 92.6064C18.6546 93.1061 18.6063 93.633 18.6683 94.1526C18.7304 94.6723 18.9014 95.173 19.1702 95.622C20.2364 97.5726 22.8048 98.5297 24.8826 98.8326C27.3178 99.184 32.6183 97.6029 32.6183 97.6029Z" fill="#2E353A"/>
<path d="M28.0205 84.7303C28.075 84.7303 25.5974 81.8105 25.4036 81.6408C23.344 79.7327 18.2313 77.2551 15.4871 78.7998C15.0366 79.0681 14.6479 79.4286 14.3465 79.8577C14.0451 80.2867 13.8378 80.7747 13.7383 81.2895C13.6388 81.8044 13.6492 82.3344 13.769 82.8449C13.8887 83.3554 14.115 83.8348 14.4331 84.2517C15.7113 86.069 18.3645 86.7475 20.4908 86.8141C22.926 86.8868 28.0205 84.7363 28.0205 84.7303Z" fill="#2E353A"/>
<path d="M21.4116 74.093C21.4661 74.093 20.5938 70.3735 20.515 70.1433C19.564 67.4961 16.1717 62.9468 13.0217 63.0498C12.4996 63.0815 11.99 63.2228 11.5261 63.4645C11.0622 63.7062 10.6545 64.0428 10.3293 64.4525C10.0042 64.8622 9.76895 65.3358 9.63896 65.8425C9.50896 66.3491 9.48711 66.8775 9.57482 67.3931C9.87771 69.5981 11.9192 71.4154 13.7486 72.4453C15.8991 73.6568 21.4055 74.093 21.4116 74.093Z" fill="#2E353A"/>
<path d="M45.182 165.068C45.182 165.068 44.5338 163.583 43.5161 160.985C42.4984 158.386 41.0931 154.636 39.6029 150.081C38.8578 147.803 38.1006 145.319 37.3615 142.672C36.9859 141.34 36.6467 140.001 36.2772 138.565C36.1197 137.862 35.9682 137.154 35.8107 136.439C35.6532 135.724 35.5442 134.967 35.4109 134.222C34.9328 131.166 34.6234 128.086 34.4841 124.996C34.3327 121.852 34.2721 118.672 34.1933 115.491C34.1146 112.311 34.0358 109.143 33.7814 106.041C33.5595 103.004 33.1243 99.9857 32.479 97.0093C31.829 94.2373 30.933 91.5288 29.8015 88.9162C28.791 86.5655 27.6442 84.2758 26.3668 82.0588C25.1976 79.981 23.9982 78.1577 22.926 76.5463C21.8538 74.935 20.8482 73.578 20.0062 72.4695C18.3221 70.2524 17.2681 69.0651 17.2681 69.0651C17.2681 69.0651 18.3464 70.2342 20.0849 72.4089C20.9451 73.5054 21.9749 74.832 23.1138 76.4312C24.2526 78.0305 25.4642 79.8235 26.6818 81.8832C28.0244 84.0866 29.238 86.3661 30.3164 88.7102C31.5247 91.3291 32.4997 94.0495 33.2302 96.8396C33.9491 99.8291 34.4572 102.865 34.7506 105.926C35.0717 109.058 35.2353 112.244 35.3564 115.425C35.4776 118.605 35.629 121.773 35.8471 124.881C36.0512 127.911 36.4193 130.928 36.9496 133.919C37.101 134.64 37.1919 135.342 37.3797 136.057C37.5675 136.772 37.725 137.475 37.8946 138.171C38.2702 139.498 38.6518 140.879 39.0516 142.169C39.8331 144.768 40.6387 147.209 41.4262 149.439C42.9891 153.921 44.4551 157.592 45.5273 160.149C46.5995 162.705 47.2598 164.123 47.2598 164.123C47.3597 164.385 47.3566 164.675 47.2511 164.934C47.1457 165.194 46.9458 165.404 46.6916 165.523C46.4374 165.641 46.1479 165.658 45.8812 165.572C45.6146 165.485 45.3908 165.301 45.2547 165.055L45.182 165.068Z" fill="#2E353A"/>
<path d="M59.4479 141.588C59.3934 141.588 60.2475 137.862 60.3263 137.632C61.2592 134.985 64.6272 130.411 67.7712 130.496C68.2933 130.524 68.8037 130.662 69.269 130.9C69.7343 131.139 70.144 131.473 70.4716 131.88C70.7991 132.288 71.0371 132.76 71.1698 133.266C71.3026 133.771 71.3273 134.299 71.2423 134.815C70.9575 137.02 68.9282 138.856 67.1048 139.898C64.9362 141.121 59.4843 141.588 59.4479 141.588Z" fill="#2E353A"/>
<path d="M59.7993 126.432C59.7447 126.432 61.1501 122.87 61.2652 122.658C62.5919 120.174 66.6081 116.164 69.7036 116.727C70.2156 116.834 70.6993 117.048 71.1233 117.354C71.5472 117.661 71.9019 118.053 72.1642 118.506C72.4265 118.958 72.5905 119.461 72.6457 119.981C72.7008 120.501 72.6457 121.027 72.4841 121.525C71.8783 123.663 69.5824 125.159 67.6379 125.917C65.3178 126.801 59.8053 126.432 59.7993 126.432Z" fill="#2E353A"/>
<path d="M63.7246 109.585C63.6641 109.585 65.0695 106.023 65.1845 105.811C66.5112 103.333 70.5335 99.3233 73.629 99.8806C74.1412 99.9883 74.6249 100.203 75.0487 100.51C75.4725 100.817 75.8268 101.21 76.0885 101.663C76.3503 102.116 76.5136 102.62 76.5679 103.14C76.6221 103.661 76.5661 104.187 76.4034 104.684C75.7976 106.817 73.5018 108.319 71.5572 109.076C69.2674 109.961 63.7246 109.585 63.7246 109.585Z" fill="#2E353A"/>
<path d="M66.699 93.514C66.6384 93.514 68.0438 89.9581 68.1589 89.74C69.4855 87.2624 73.5078 83.2522 76.6033 83.8156C77.1153 83.9225 77.5989 84.1362 78.0227 84.4427C78.4464 84.7493 78.8008 85.1417 79.0626 85.5945C79.3244 86.0472 79.4878 86.5501 79.5421 87.0703C79.5964 87.5904 79.5404 88.1162 79.3777 88.6133C78.772 90.7516 76.4761 92.2479 74.5316 93.0051C72.2054 93.8895 66.699 93.514 66.699 93.514Z" fill="#2E353A"/>
<path d="M65.445 79.5267C65.3845 79.5267 65.8024 75.7406 65.857 75.5044C66.4627 72.7603 69.2977 67.8293 72.4356 67.5567C72.9575 67.5255 73.4801 67.6045 73.9694 67.7886C74.4588 67.9726 74.9039 68.2576 75.2759 68.625C75.6478 68.9924 75.9383 69.4339 76.1284 69.921C76.3185 70.408 76.4039 70.9296 76.3792 71.4518C76.3792 73.675 74.5619 75.7285 72.8536 76.9704C70.8667 78.4303 65.445 79.5267 65.445 79.5267Z" fill="#2E353A"/>
<path d="M57.9214 141.176C57.9759 141.176 57.3701 137.408 57.3156 137.178C56.5584 134.47 53.4992 129.685 50.3553 129.563C49.8319 129.557 49.3131 129.662 48.8327 129.87C48.3524 130.078 47.9213 130.385 47.5675 130.771C47.2137 131.156 46.9452 131.612 46.7795 132.109C46.6137 132.605 46.5545 133.131 46.6056 133.652C46.7449 135.869 48.6531 137.832 50.4037 138.989C52.4513 140.352 57.9153 141.176 57.9214 141.176Z" fill="#2E353A"/>
<path d="M59.5812 124.323C59.6418 124.323 58.4666 120.689 58.3696 120.459C57.2066 117.896 53.4568 113.632 50.3311 113.989C49.8131 114.063 49.3165 114.245 48.8737 114.524C48.4308 114.802 48.0516 115.171 47.7607 115.606C47.4698 116.041 47.2738 116.532 47.1854 117.048C47.097 117.563 47.1182 118.092 47.2477 118.599C47.7202 120.768 49.907 122.421 51.8091 123.3C54.0323 124.336 59.5751 124.323 59.5812 124.323Z" fill="#2E353A"/>
<path d="M63.337 108.44C63.3915 108.44 62.2223 104.806 62.1254 104.575C60.9684 102.019 57.2187 97.7543 54.0929 98.1117C53.5731 98.1846 53.0745 98.3666 52.6299 98.6456C52.1853 98.9246 51.8047 99.2945 51.513 99.7309C51.2213 100.167 51.0252 100.66 50.9373 101.178C50.8495 101.695 50.8721 102.226 51.0035 102.734C51.482 104.908 53.6628 106.556 55.571 107.435C57.8063 108.452 63.3309 108.44 63.337 108.44Z" fill="#2E353A"/>
<path d="M66.0811 93.6472C66.1417 93.6472 64.9665 90.0126 64.8696 89.7824C63.7065 87.2261 59.9628 82.9554 56.831 83.3188C56.3133 83.392 55.8168 83.5734 55.3739 83.8514C54.9311 84.1293 54.5518 84.4975 54.2608 84.932C53.9699 85.3664 53.7738 85.8573 53.6854 86.3726C53.5969 86.8879 53.6181 87.4161 53.7476 87.9227C54.2201 90.0974 56.4069 91.7451 58.3151 92.6235C60.5504 93.6472 66.0811 93.6472 66.0811 93.6472Z" fill="#2E353A"/>
<path d="M65.3299 80.0113C65.3905 80.0113 63.8276 76.516 63.7004 76.304C62.2647 73.8809 58.0728 70.0585 55.0016 70.7612C54.4947 70.891 54.021 71.1262 53.6113 71.4515C53.2016 71.7769 52.8651 72.185 52.6238 72.6492C52.3826 73.1134 52.2419 73.6233 52.2112 74.1456C52.1804 74.6678 52.2601 75.1907 52.4452 75.6801C53.154 77.7821 55.5043 79.1814 57.4973 79.8478C59.8356 80.6292 65.3299 80.0113 65.3299 80.0113Z" fill="#2E353A"/>
<path d="M62.0224 67.9323C62.0709 67.9323 62.295 64.1341 62.2769 63.8918C62.1194 61.081 60.1627 55.7502 57.1157 54.9567C56.6061 54.839 56.0775 54.8299 55.5642 54.9301C55.0508 55.0302 54.5644 55.2373 54.1364 55.5378C53.7084 55.8384 53.3485 56.2257 53.0801 56.6746C52.8116 57.1234 52.6407 57.6238 52.5785 58.143C52.2392 60.342 53.681 62.6681 55.1409 64.2007C56.8552 65.9453 62.0164 67.9262 62.0224 67.9323Z" fill="#2E353A"/>
<path d="M58.9512 161.911C58.9512 161.911 58.7452 160.306 58.509 157.52C58.2727 154.733 57.988 150.747 57.8608 145.956C57.7942 143.532 57.7699 140.964 57.8184 138.214C57.8184 136.833 57.8911 135.451 57.9456 133.973C57.9941 133.259 58.0486 132.532 58.097 131.805C58.1455 131.078 58.2666 130.315 58.3454 129.563C58.7607 126.505 59.341 123.472 60.084 120.477C60.8291 117.418 61.6771 114.346 62.507 111.281C63.337 108.216 64.1547 105.151 64.7969 102.098C65.4471 99.1238 65.8864 96.1076 66.1114 93.0717C66.2673 90.2277 66.17 87.3754 65.8206 84.5485C65.5214 82.0063 65.0723 79.4839 64.4758 76.9946C63.9427 74.6684 63.3188 72.5785 62.7494 70.7309C62.1799 68.8833 61.5923 67.2902 61.1077 65.9938C60.1203 63.389 59.4479 61.9473 59.4479 61.9473C59.4479 61.9473 60.1506 63.3769 61.1925 65.9574C61.7135 67.2477 62.3132 68.8288 62.9432 70.6643C63.5732 72.4998 64.2274 74.5897 64.809 76.9098C65.463 79.402 65.9707 81.9304 66.3295 84.4819C66.7463 87.3373 66.9085 90.224 66.8141 93.1081C66.6522 96.188 66.2737 99.2527 65.6813 102.279C65.0755 105.369 64.3486 108.47 63.5793 111.56C62.8099 114.649 62.0345 117.727 61.3621 120.768C60.6943 123.73 60.1888 126.727 59.8477 129.745C59.7871 130.478 59.6781 131.175 59.6539 131.914C59.6296 132.653 59.5812 133.374 59.5448 134.088C59.5448 135.47 59.5024 136.899 59.5448 138.25C59.5448 140.97 59.6357 143.538 59.7568 145.907C59.981 150.65 60.3626 154.594 60.6473 157.338C60.932 160.082 61.1743 161.645 61.1743 161.645C61.1954 161.789 61.188 161.935 61.1525 162.076C61.1171 162.216 61.0542 162.349 60.9676 162.465C60.881 162.582 60.7723 162.68 60.6477 162.754C60.5231 162.829 60.3851 162.878 60.2415 162.899C60.0979 162.92 59.9515 162.913 59.8108 162.877C59.6701 162.842 59.5377 162.779 59.4213 162.692C59.3048 162.606 59.2066 162.497 59.1322 162.372C59.0578 162.248 59.0086 162.11 58.9875 161.966V161.936L58.9512 161.911Z" fill="#2E353A"/>
<path d="M65.9781 201.965H40.3298L33.1151 159.961H73.1928L65.9781 201.965Z" fill="#2E353A"/>
<path d="M111.156 205.939C141.959 205.939 166.93 180.968 166.93 150.166C166.93 119.363 141.959 94.3923 111.156 94.3923C80.3537 94.3923 55.3832 119.363 55.3832 150.166C55.3832 180.968 80.3537 205.939 111.156 205.939Z" fill="#FFA2C3"/>
<path d="M111.156 206.218C100.07 206.218 89.2334 202.93 80.0157 196.771C70.798 190.612 63.6137 181.858 59.3712 171.616C55.1288 161.374 54.0188 150.103 56.1816 139.23C58.3443 128.357 63.6828 118.37 71.5218 110.531C79.3608 102.692 89.3483 97.3535 100.221 95.1907C111.094 93.0279 122.364 94.1379 132.607 98.3804C142.849 102.623 151.603 109.807 157.762 119.025C163.921 128.243 167.208 139.08 167.208 150.166C167.191 165.026 161.28 179.273 150.772 189.781C140.264 200.289 126.017 206.2 111.156 206.218ZM111.156 94.6649C100.179 94.6649 89.449 97.92 80.3219 104.018C71.1949 110.117 64.0812 118.785 59.8805 128.926C55.6798 139.068 54.5807 150.227 56.7222 160.993C58.8637 171.759 64.1496 181.649 71.9116 189.411C79.6735 197.172 89.5627 202.458 100.329 204.6C111.095 206.741 122.254 205.642 132.396 201.442C142.537 197.241 151.205 190.127 157.304 181C163.402 171.873 166.657 161.143 166.657 150.166C166.643 135.45 160.791 121.342 150.385 110.937C139.98 100.531 125.872 94.6794 111.156 94.6649Z" fill="#2E353A"/>
<path d="M187.005 103.261C187.005 103.261 185.188 106.641 184.921 107.114C184.655 107.586 183.679 110.142 183.97 110.748C184.261 111.354 184.54 111.699 185.115 111.796C185.69 111.893 186.163 112.941 187.114 113.129C187.713 113.247 188.321 113.312 188.931 113.323C189.081 113.433 189.254 113.507 189.436 113.539C189.619 113.572 189.807 113.562 189.985 113.51C190.555 113.323 191.033 113.038 191.415 111.414C191.648 110.61 191.712 109.767 191.603 108.937L191.433 105.66L187.005 103.261Z" fill="white"/>
<path d="M189.646 113.862C189.358 113.858 189.077 113.774 188.834 113.619C188.236 113.603 187.64 113.536 187.053 113.42C186.509 113.271 186.022 112.963 185.654 112.535C185.491 112.34 185.283 112.186 185.048 112.087C184.737 112.017 184.448 111.87 184.21 111.658C183.971 111.446 183.791 111.176 183.685 110.875C183.292 110.094 184.437 107.313 184.649 106.962C184.927 106.496 186.708 103.152 186.726 103.115C186.766 103.046 186.831 102.994 186.908 102.97C186.982 102.94 187.064 102.94 187.138 102.97L191.56 105.363C191.606 105.389 191.644 105.426 191.671 105.47C191.699 105.515 191.715 105.565 191.718 105.617L191.888 108.888C191.998 109.747 191.93 110.62 191.688 111.451C191.312 113.068 190.821 113.517 190.058 113.771C189.926 113.823 189.787 113.853 189.646 113.862ZM187.132 103.673C186.696 104.484 185.424 106.865 185.182 107.271C184.848 107.822 184.049 110.227 184.237 110.603C184.54 111.209 184.77 111.427 185.163 111.493C185.522 111.599 185.841 111.81 186.078 112.099C186.364 112.444 186.746 112.697 187.175 112.826C187.752 112.938 188.337 113 188.925 113.014C188.996 113.014 189.064 113.037 189.119 113.08C189.228 113.159 189.353 113.213 189.485 113.237C189.617 113.261 189.753 113.255 189.882 113.22C190.3 113.08 190.737 112.935 191.094 111.342C191.314 110.579 191.378 109.78 191.282 108.991L191.118 105.841L187.132 103.673Z" fill="#2E353A"/>
<path d="M197.509 194.278C197.509 194.278 194.922 198.488 194.922 199.506C194.922 200.523 198.484 202.395 200.011 203.074C201.537 203.752 204.251 204.285 206.456 204.6C208.661 204.915 213.241 205.812 211.908 204.091C210.576 202.371 202.386 197.84 202.046 197.301C201.626 196.797 201.155 196.338 200.641 195.932L197.509 194.278Z" fill="white"/>
<path d="M210.806 205.412C209.513 205.359 208.226 205.216 206.953 204.982L206.408 204.897C203.331 204.424 201.138 203.904 199.89 203.346C199.672 203.249 194.62 200.99 194.62 199.506C194.62 198.433 196.982 194.556 197.249 194.114C197.29 194.05 197.354 194.003 197.427 193.983C197.501 193.963 197.58 193.971 197.648 194.005L200.78 195.665C201.342 196.095 201.853 196.589 202.301 197.137C202.446 197.307 203.779 198.143 205.069 198.954C207.819 200.669 211.236 202.807 212.12 203.91C212.441 204.309 212.52 204.655 212.35 204.939C212.181 205.224 211.648 205.412 210.806 205.412ZM197.6 194.678C196.619 196.301 195.207 198.863 195.207 199.524C195.207 200.184 197.8 201.783 200.114 202.813C201.325 203.346 203.458 203.849 206.487 204.315L207.026 204.4C208.14 204.576 211.533 205.115 211.811 204.643C211.811 204.643 211.811 204.521 211.63 204.297C210.812 203.274 207.298 201.075 204.73 199.451C202.664 198.161 201.925 197.688 201.774 197.464C201.372 196.985 200.921 196.548 200.429 196.162L197.6 194.678Z" fill="#2E353A"/>
<path d="M201.562 200.911L202.47 202.268C203.448 203.751 204.775 204.97 206.335 205.818C208.758 207.126 212.49 208.622 215.749 207.726C221.092 206.254 207.644 198.143 207.644 198.143C207.644 198.143 202.852 201.474 201.562 200.911Z" fill="white"/>
<path d="M213.629 208.301C210.939 208.301 208.177 207.175 206.19 206.084C204.588 205.215 203.224 203.967 202.216 202.45L201.307 201.087C201.269 201.035 201.249 200.972 201.249 200.908C201.249 200.844 201.269 200.781 201.307 200.729C201.35 200.679 201.408 200.643 201.472 200.628C201.536 200.613 201.604 200.618 201.665 200.644C202.446 200.984 205.517 199.245 207.45 197.906C207.498 197.874 207.555 197.856 207.613 197.856C207.672 197.856 207.729 197.874 207.777 197.906C208.788 198.512 217.657 203.964 217.275 206.726C217.191 207.332 216.67 207.793 215.809 208.035C215.098 208.221 214.364 208.311 213.629 208.301ZM202.155 201.25L202.719 202.104C203.671 203.542 204.961 204.725 206.474 205.551C208.946 206.884 212.532 208.295 215.67 207.435C216.615 207.169 216.676 206.757 216.694 206.623C216.966 204.643 210.412 200.19 207.65 198.506C206.686 199.148 203.791 201.056 202.155 201.25Z" fill="#2E353A"/>
<path d="M203.1 201.553C204.572 203.78 206.802 205.396 209.376 206.102C213.768 207.356 215.028 207.041 215.967 205.787" fill="white"/>
<path d="M213.568 207.205C212.115 207.123 210.679 206.85 209.297 206.393C206.642 205.676 204.344 204.007 202.84 201.705C202.819 201.671 202.806 201.633 202.8 201.593C202.795 201.554 202.797 201.514 202.807 201.476C202.817 201.437 202.835 201.401 202.859 201.37C202.884 201.338 202.914 201.312 202.949 201.293C203.019 201.253 203.102 201.242 203.18 201.262C203.258 201.282 203.325 201.332 203.367 201.402C204.807 203.552 206.968 205.116 209.461 205.812C213.744 207.023 214.913 206.72 215.725 205.606C215.774 205.543 215.845 205.501 215.924 205.49C216.003 205.479 216.084 205.498 216.149 205.545C216.213 205.593 216.255 205.665 216.267 205.745C216.278 205.824 216.257 205.905 216.209 205.969C215.912 206.385 215.513 206.717 215.051 206.934C214.588 207.15 214.077 207.244 213.568 207.205Z" fill="#2E353A"/>
<path d="M195.256 198.73C195.256 198.73 200.102 202.201 202.47 202.268L195.256 198.73Z" fill="white"/>
<path d="M202.446 202.571C200.023 202.504 195.268 199.118 195.068 198.979C195.004 198.93 194.961 198.859 194.949 198.78C194.936 198.701 194.955 198.62 195.001 198.555C195.024 198.522 195.052 198.494 195.085 198.473C195.119 198.452 195.156 198.437 195.195 198.43C195.234 198.424 195.274 198.425 195.312 198.433C195.351 198.442 195.387 198.459 195.419 198.482C195.468 198.518 200.223 201.904 202.464 201.965C202.545 201.968 202.622 202.003 202.677 202.062C202.733 202.121 202.763 202.199 202.761 202.28C202.76 202.32 202.75 202.359 202.733 202.395C202.717 202.431 202.693 202.464 202.664 202.491C202.635 202.518 202.6 202.539 202.563 202.552C202.526 202.566 202.486 202.572 202.446 202.571Z" fill="#2E353A"/>
<path d="M184.733 104.424C184.733 104.424 189.034 111.554 189.955 113.208C190.876 114.861 202.482 128.134 207.086 139.559C211.69 150.983 216.118 161.294 215.931 164.613C215.743 167.933 200.629 195.932 200.629 195.932L197.497 194.278C197.497 194.278 202.283 167.927 201.737 165.164C201.192 162.402 184.273 134.949 184.273 134.949C184.273 134.949 176.349 129.424 173.036 122.973" fill="#2E353A"/>
<path d="M185.345 122.24C185.345 122.24 182.952 127.395 182.952 128.134C182.952 128.873 196.4 168.484 200.271 177.51C202.722 183.292 204.873 189.196 206.717 195.199C206.717 195.199 208.195 197.016 207.086 198.882C205.978 200.747 201.562 202.013 200.641 200.354C199.72 198.694 190.688 190.056 186.823 181.381C182.958 172.706 177.428 157.98 174.29 152.455C170.156 145.382 166.466 138.058 163.241 130.527C159.182 120.949 155.008 110.566 155.008 110.566C160.478 111.024 165.985 110.406 171.219 108.749C179.699 105.987 183.334 100.698 183.334 100.698C183.334 100.698 185.491 106.211 186.042 107.277" fill="#2E353A"/>
<path d="M186.611 137.796C186.569 137.795 186.529 137.782 186.494 137.758C186.46 137.735 186.433 137.701 186.417 137.663L182.177 126.637C182.162 126.597 182.16 126.552 182.171 126.51C182.182 126.468 182.205 126.43 182.238 126.401L186.987 122.33C187.027 122.293 187.08 122.272 187.135 122.272C187.19 122.272 187.243 122.293 187.284 122.33C187.321 122.37 187.341 122.422 187.341 122.476C187.341 122.53 187.321 122.582 187.284 122.621L182.643 126.601L186.829 137.505C186.849 137.556 186.849 137.614 186.827 137.665C186.806 137.716 186.765 137.756 186.714 137.778L186.611 137.796Z" fill="white"/>
<path d="M182.365 126.765C182.313 126.765 182.263 126.746 182.225 126.71C182.204 126.691 182.188 126.668 182.176 126.641C182.165 126.615 182.159 126.587 182.159 126.559C182.159 126.528 182.159 123.203 180.669 121.107C180.299 120.568 180.002 120.144 179.754 119.798C178.979 118.696 178.742 118.363 178.603 117.811C178.507 117.167 178.507 116.512 178.603 115.867C178.613 115.813 178.643 115.766 178.687 115.733C178.731 115.701 178.785 115.686 178.839 115.691C178.866 115.695 178.893 115.704 178.916 115.718C178.94 115.732 178.96 115.75 178.977 115.772C178.993 115.794 179.005 115.819 179.011 115.846C179.018 115.873 179.019 115.9 179.015 115.927C178.929 116.52 178.929 117.122 179.015 117.714C179.136 118.187 179.342 118.478 180.105 119.562C180.348 119.907 180.65 120.331 181.02 120.871C182.365 122.803 182.553 125.577 182.583 126.371L191.191 126.038C191.246 126.038 191.299 126.058 191.339 126.095C191.379 126.132 191.404 126.183 191.409 126.238C191.411 126.265 191.407 126.292 191.397 126.318C191.388 126.344 191.374 126.367 191.355 126.387C191.336 126.407 191.314 126.423 191.288 126.433C191.263 126.444 191.236 126.45 191.209 126.45L182.389 126.789L182.365 126.765Z" fill="white"/>
<path d="M211.212 165.982C207.377 165.982 202.507 163.499 202.289 163.39C202.24 163.364 202.204 163.32 202.188 163.268C202.173 163.216 202.178 163.159 202.204 163.111C202.216 163.087 202.233 163.065 202.254 163.047C202.274 163.029 202.298 163.016 202.324 163.007C202.35 162.999 202.377 162.996 202.405 162.998C202.432 163 202.458 163.008 202.482 163.02C202.537 163.05 208.074 165.873 211.866 165.54C211.893 165.538 211.921 165.541 211.947 165.549C211.974 165.558 211.998 165.571 212.019 165.589C212.04 165.608 212.057 165.63 212.069 165.654C212.081 165.679 212.088 165.706 212.09 165.734C212.092 165.761 212.09 165.788 212.081 165.814C212.073 165.84 212.06 165.864 212.043 165.885C212.025 165.906 212.004 165.923 211.98 165.936C211.956 165.948 211.929 165.956 211.902 165.958C211.678 165.976 211.448 165.982 211.212 165.982Z" fill="white"/>
<path d="M210.697 169.181H210.648C207.25 168.327 203.433 165.201 203.27 165.068C203.233 165.028 203.212 164.976 203.212 164.922C203.212 164.868 203.233 164.816 203.27 164.777C203.287 164.756 203.308 164.738 203.332 164.725C203.356 164.712 203.382 164.704 203.409 164.701C203.436 164.698 203.463 164.701 203.489 164.709C203.515 164.716 203.54 164.729 203.561 164.747C203.597 164.777 207.468 167.951 210.775 168.775C210.802 168.782 210.826 168.794 210.848 168.811C210.87 168.827 210.888 168.848 210.901 168.872C210.915 168.895 210.923 168.922 210.927 168.949C210.93 168.976 210.928 169.003 210.921 169.029C210.909 169.078 210.88 169.121 210.838 169.149C210.797 169.177 210.746 169.188 210.697 169.181Z" fill="white"/>
<path d="M182.195 123.542C182.162 123.542 182.13 123.534 182.1 123.52C182.071 123.505 182.045 123.484 182.026 123.457C182.01 123.435 181.998 123.409 181.992 123.382C181.987 123.355 181.986 123.327 181.991 123.3C181.996 123.273 182.007 123.247 182.022 123.224C182.037 123.201 182.057 123.182 182.08 123.166C182.898 122.597 184.194 121.501 184.194 120.961C184.194 120.604 183.752 120.18 183.279 119.75C182.757 119.313 182.324 118.778 182.007 118.175C181.698 117.454 180.59 114.625 180.796 113.934C180.804 113.909 180.817 113.885 180.835 113.864C180.853 113.843 180.874 113.826 180.898 113.814C180.923 113.801 180.949 113.794 180.976 113.792C181.003 113.789 181.03 113.793 181.056 113.801C181.109 113.819 181.153 113.857 181.178 113.907C181.203 113.957 181.207 114.015 181.19 114.068C181.062 114.437 181.723 116.491 182.371 117.993C182.667 118.541 183.066 119.026 183.546 119.423C184.109 119.962 184.594 120.422 184.594 120.955C184.594 121.888 182.534 123.336 182.298 123.5C182.268 123.522 182.233 123.537 182.195 123.542Z" fill="white"/>
<path d="M162.011 124.729C161.967 124.731 161.924 124.719 161.888 124.694C161.851 124.67 161.824 124.635 161.809 124.593C161.794 124.552 161.793 124.507 161.805 124.465C161.817 124.423 161.843 124.386 161.878 124.36L163.574 123.003C165.203 121.707 166.209 118.393 166.221 118.357C166.238 118.304 166.274 118.26 166.323 118.234C166.372 118.208 166.428 118.202 166.481 118.217C166.534 118.234 166.578 118.271 166.604 118.319C166.63 118.368 166.636 118.425 166.621 118.478C166.578 118.617 165.561 121.949 163.834 123.324L162.138 124.681C162.103 124.711 162.058 124.729 162.011 124.729Z" fill="white"/>
<path d="M202.283 201.178C202.252 201.176 202.222 201.169 202.195 201.155C202.168 201.142 202.144 201.122 202.125 201.099C199.956 198.44 197.998 195.617 196.267 192.654C193.923 188.462 187.181 176.995 187.108 176.904C186.484 175.524 186.02 174.077 185.727 172.591C185.684 172.361 185.654 172.149 185.624 171.985C185.4 170.459 185.303 169.829 183.273 168.52C181.244 167.212 181.117 164.934 180.947 162.493C180.911 161.918 180.869 161.324 180.802 160.736C180.529 158.313 174.096 147.409 169.401 139.486C168.335 137.669 167.366 136.045 166.578 134.694C162.374 127.461 159.467 117.951 159.436 117.854C159.421 117.801 159.427 117.744 159.453 117.695C159.479 117.647 159.523 117.61 159.576 117.593C159.602 117.585 159.629 117.582 159.656 117.585C159.683 117.587 159.709 117.595 159.733 117.608C159.757 117.621 159.778 117.639 159.794 117.66C159.811 117.682 159.823 117.706 159.83 117.733C159.86 117.83 162.756 127.298 166.936 134.482C167.723 135.833 168.693 137.475 169.759 139.274C174.478 147.24 180.935 158.156 181.214 160.688C181.28 161.294 181.323 161.899 181.365 162.469C181.529 164.892 181.668 167 183.498 168.175C185.684 169.581 185.793 170.314 186.036 171.919C186.036 172.119 186.096 172.325 186.133 172.555C186.42 173.997 186.872 175.401 187.478 176.741C187.532 176.844 194.28 188.311 196.631 192.491C198.35 195.429 200.295 198.23 202.446 200.869C202.463 200.89 202.476 200.914 202.484 200.94C202.492 200.966 202.494 200.993 202.491 201.02C202.489 201.047 202.481 201.074 202.468 201.097C202.455 201.121 202.437 201.142 202.416 201.159C202.375 201.18 202.328 201.186 202.283 201.178Z" fill="white"/>
<path d="M155.008 110.566C155.008 110.566 155.396 114.855 157.092 116.212C158.788 117.569 163.877 118.756 170.831 117.424C177.785 116.091 185.418 110.154 186.096 108.095C186.775 106.035 183.322 100.704 183.322 100.704C183.322 100.704 179.312 106.399 168.117 108.264C156.922 110.13 155.008 110.566 155.008 110.566Z" fill="white"/>
<path d="M164.937 118.302C160.836 118.302 158.025 117.351 156.898 116.448C155.123 115.025 154.723 110.778 154.705 110.597C154.699 110.524 154.719 110.452 154.761 110.393C154.803 110.335 154.865 110.293 154.936 110.276C155.014 110.276 156.989 109.785 168.069 107.937C178.972 106.12 183.031 100.559 183.074 100.505C183.102 100.465 183.139 100.433 183.183 100.411C183.226 100.389 183.273 100.378 183.322 100.377C183.372 100.378 183.42 100.392 183.463 100.416C183.507 100.44 183.543 100.475 183.57 100.517C183.934 101.074 187.084 106.053 186.381 108.168C185.636 110.397 177.828 116.339 170.885 117.696C168.927 118.089 166.935 118.292 164.937 118.302ZM155.341 110.809C155.456 111.742 155.947 114.904 157.28 115.976C158.794 117.187 163.646 118.496 170.77 117.103C177.773 115.734 185.206 109.791 185.812 107.974C186.29 106.532 184.334 102.891 183.292 101.207C182.213 102.498 177.888 106.92 168.147 108.537C159.17 110.039 156.153 110.609 155.341 110.809Z" fill="#2E353A"/>
<path d="M199.72 68.9924C196.952 67.1751 175.398 50.3831 173.369 49.6441C171.34 48.905 167.311 49.6441 167.311 49.6441C167.311 49.6441 154.82 51.1706 152.203 52.2247C151.955 52.3216 146.328 55.5564 146.146 55.726C144.116 57.3858 135.242 61.4687 132.855 66.6299C130.147 72.4695 153.942 107.628 155.051 110.572C156.159 113.517 161.968 114.243 167.311 113.504C172.654 112.765 177.343 111.687 181.214 107.259C181.916 106.377 182.504 105.41 182.964 104.381C183.518 103.232 183.659 101.927 183.364 100.686C181.983 94.9315 178.458 78.3394 176.131 67.3689C180.008 69.8707 188.071 74.9532 192.76 76.7462C199.023 79.1693 203.815 77.4853 203.815 75.456C203.815 73.4266 202.482 70.8339 199.72 68.9924Z" fill="white"/>
<path d="M192.239 72.5725C188.546 72.208 184.969 71.0796 181.735 69.2589C181.735 69.2589 186.526 67.0479 186.708 65.9393C186.89 64.8307 180.075 65.7576 180.996 65.388C181.917 65.0185 183.207 64.0978 180.996 64.0978C179.233 63.9818 177.497 63.6104 175.841 62.9952L176.089 67.3507C178.197 68.7137 181.541 70.8279 184.897 72.7663C188.053 74.4259 191.304 75.9004 194.632 77.1824C194.632 77.1824 198.684 73.3115 192.239 72.5725Z" fill="#FFA2C3"/>
<g style="mix-blend-mode:multiply">
<path d="M167.269 113.498L167.954 113.401C169.432 112.687 171.933 112.238 174.369 111.633C178.052 110.712 173.999 110.712 167.917 107.58C161.835 104.448 159.436 99.8443 153.912 93.2111C148.387 86.5779 146.176 83.2583 147.285 82.5253C148.393 81.7923 145.074 81.7862 143.783 81.0472C142.493 80.3082 145.601 80.3142 148.205 77.7336C150.81 75.1531 143.226 78.2849 142.493 78.1032C141.76 77.9214 143.226 75.5226 143.226 75.5226L137.883 81.0472L150.78 103.158L151.519 103.709L152.367 104.921L154.79 110.13C154.887 110.312 154.954 110.463 154.996 110.566C156.111 113.516 161.926 114.243 167.269 113.498Z" fill="#FFA2C3"/>
</g>
<path d="M142.844 61.9836C146.921 61.3778 158.285 67.8596 158.285 67.8596C152.04 63.6192 146.576 59.6453 142.838 57.8523L135.951 62.6984L135.478 63.1406C136.278 62.9831 139.343 62.4803 142.844 61.9836Z" fill="#FFA2C3"/>
<path opacity="0.5" d="M192.239 72.5725C188.546 72.208 184.969 71.0796 181.735 69.2589C181.735 69.2589 186.526 67.0479 186.708 65.9393C186.89 64.8307 180.075 65.7576 180.996 65.388C181.917 65.0185 183.207 64.0978 180.996 64.0978C179.233 63.9818 177.497 63.6104 175.841 62.9952L176.089 67.3507C178.197 68.7137 181.541 70.8279 184.897 72.7663C188.053 74.4259 191.304 75.9004 194.632 77.1824C194.632 77.1824 198.684 73.3115 192.239 72.5725Z" fill="white"/>
<path opacity="0.5" d="M167.269 113.498L167.954 113.401C169.432 112.687 171.933 112.238 174.369 111.633C178.052 110.712 173.999 110.712 167.917 107.58C161.835 104.448 159.436 99.8443 153.912 93.2111C148.387 86.5779 146.176 83.2583 147.285 82.5253C148.393 81.7923 145.074 81.7862 143.783 81.0472C142.493 80.3082 145.601 80.3142 148.205 77.7336C150.81 75.1531 143.226 78.2849 142.493 78.1032C141.76 77.9214 143.226 75.5226 143.226 75.5226L137.883 81.0472L150.78 103.158L151.519 103.709L152.367 104.921L154.79 110.13C154.887 110.312 154.954 110.463 154.996 110.566C156.111 113.516 161.926 114.243 167.269 113.498Z" fill="white"/>
<path opacity="0.5" d="M142.844 61.9836C146.921 61.3778 158.285 67.8596 158.285 67.8596C152.04 63.6192 146.576 59.6453 142.838 57.8523L135.951 62.6984L135.478 63.1406C136.278 62.9831 139.343 62.4803 142.844 61.9836Z" fill="white"/>
<path d="M163.392 114.074C159.309 114.074 155.632 113.099 154.723 110.675C154.457 109.961 152.664 107.041 150.392 103.37C140.742 87.7167 130.608 70.6582 132.54 66.4966C134.357 62.5712 139.731 59.3303 143.287 57.1859C144.193 56.6711 145.068 56.1048 145.91 55.4897C146.128 55.3141 151.767 52.0671 152.07 51.946C154.699 50.8859 166.742 49.4078 167.257 49.3472C167.408 49.3169 171.394 48.6021 173.472 49.3472C174.817 49.8379 184.031 56.8103 191.433 62.4137C195.443 65.4426 198.902 68.0716 199.884 68.7258C202.973 70.7855 204.076 73.5357 204.076 75.4257C204.053 75.7765 203.944 76.1162 203.758 76.4144C203.572 76.7126 203.315 76.9599 203.009 77.1339C201.222 78.3455 197.315 78.7998 192.608 77.0007C189.319 75.7407 183.77 72.6331 176.537 67.9868C178.96 79.5267 182.286 95.0708 183.613 100.595C183.925 101.905 183.777 103.283 183.195 104.497C182.721 105.554 182.11 106.544 181.377 107.441C177.331 112.063 172.406 113.08 167.293 113.783C166.001 113.969 164.698 114.066 163.392 114.074ZM170.904 49.6198C169.712 49.6378 168.523 49.7451 167.348 49.9409C167.202 49.9409 154.851 51.4735 152.294 52.5033C151.961 52.6547 146.564 55.7623 146.291 55.9622C145.429 56.5961 144.529 57.1767 143.595 57.7008C140.106 59.8089 134.836 62.9952 133.091 66.7874C131.129 71.0278 143.995 91.8723 150.907 103.085C153.373 107.083 155.002 109.749 155.293 110.494C156.365 113.353 162.229 113.916 167.227 113.226C172.224 112.535 177.034 111.548 180.941 107.083C181.628 106.223 182.202 105.278 182.65 104.272C183.17 103.187 183.303 101.955 183.025 100.783C181.668 95.1374 178.252 79.0542 175.792 67.4658C175.78 67.4066 175.786 67.3453 175.809 67.2893C175.831 67.2333 175.87 67.1852 175.919 67.1508C175.969 67.1183 176.027 67.1009 176.086 67.1009C176.145 67.1009 176.203 67.1183 176.253 67.1508C183.752 71.997 189.483 75.2258 192.826 76.4979C197.297 78.2122 201.065 77.8063 202.664 76.7038C202.884 76.5796 203.072 76.4051 203.212 76.1946C203.352 75.984 203.44 75.7434 203.47 75.4923C203.47 73.7598 202.44 71.2216 199.551 69.2953C198.551 68.6289 195.086 66.0059 191.07 62.965C184.085 57.6826 174.526 50.4437 173.266 49.9833C172.504 49.7341 171.706 49.6113 170.904 49.6198Z" fill="#2E353A"/>
<path d="M135.775 62.8559C135.775 62.8559 133.564 65.279 132.704 66.3997C128.088 72.3302 113.398 91.3332 113.234 92.8658C113.071 94.3984 113.767 95.4282 117.36 96.8094C120.952 98.1905 144.983 74.1111 144.983 74.1111" fill="white"/>
<g style="mix-blend-mode:multiply" opacity="0.8">
<path d="M135.811 62.9286L135.502 63.1285C135.054 63.6252 134.085 64.7096 133.334 65.6001L122.175 80.2355C122.175 80.2355 121.83 80.6232 121.285 81.2653C117.099 86.8444 113.452 91.8784 113.228 92.7749C113.228 92.8052 113.228 92.8355 113.228 92.8597C113.083 94.3075 113.786 95.41 117.36 96.7851C117.996 97.0274 119.256 96.4822 120.909 95.4221C120.069 95.2532 119.267 94.933 118.541 94.4771C116.511 93.1868 118.171 91.8966 118.171 91.8966C118.171 91.8966 120.806 92.9506 123.405 93.6594C123.944 93.2535 124.508 92.8173 125.083 92.3569C124.53 91.9943 124.005 91.5893 123.514 91.1454C121.303 89.1221 119.462 87.0928 119.462 87.0928L136.35 63.5223L135.811 62.9286Z" fill="#FFA2C3"/>
</g>
<path opacity="0.5" d="M135.811 62.9286L135.502 63.1285C135.054 63.6252 134.085 64.7096 133.334 65.6001L122.175 80.2355C122.175 80.2355 121.83 80.6232 121.285 81.2653C117.099 86.8444 113.452 91.8784 113.228 92.7749C113.228 92.8052 113.228 92.8355 113.228 92.8597C113.083 94.3075 113.786 95.41 117.36 96.7851C117.996 97.0274 119.256 96.4822 120.909 95.4221C120.069 95.2532 119.267 94.933 118.541 94.4771C116.511 93.1868 118.171 91.8966 118.171 91.8966C118.171 91.8966 120.806 92.9506 123.405 93.6594C123.944 93.2535 124.508 92.8173 125.083 92.3569C124.53 91.9943 124.005 91.5893 123.514 91.1454C121.303 89.1221 119.462 87.0928 119.462 87.0928L136.35 63.5223L135.811 62.9286Z" fill="white"/>
<path d="M117.638 97.1607C117.502 97.1623 117.367 97.1398 117.238 97.0941C113.895 95.8038 112.719 94.671 112.919 92.8537C113.083 91.3453 125.229 75.5286 132.449 66.2361C133.31 65.1336 135.448 62.7772 135.539 62.6803C135.565 62.6481 135.597 62.6215 135.633 62.6022C135.67 62.5829 135.71 62.5712 135.751 62.568C135.792 62.5647 135.833 62.5699 135.873 62.5832C135.912 62.5965 135.948 62.6177 135.978 62.6454C136.009 62.6731 136.033 62.7068 136.051 62.7443C136.068 62.7819 136.077 62.8226 136.078 62.8638C136.079 62.9051 136.071 62.9461 136.055 62.9844C136.04 63.0226 136.016 63.0572 135.987 63.0861C135.987 63.0861 133.77 65.5092 132.928 66.6117C121.261 81.6227 113.64 91.9511 113.543 92.9203C113.404 94.2106 114.004 95.2162 117.481 96.5549C119.983 97.5181 135.175 83.543 144.777 73.9173C144.834 73.8603 144.911 73.8282 144.992 73.8282C145.072 73.8282 145.15 73.8603 145.207 73.9173C145.264 73.9743 145.296 74.0517 145.296 74.1323C145.296 74.213 145.264 74.2904 145.207 74.3474C142.802 76.722 122.278 97.1607 117.638 97.1607Z" fill="#2E353A"/>
<path d="M184.4 61.7534L176.089 67.3507C177.301 67.1811 183.043 65.1457 183.043 65.1457" fill="white"/>
<path d="M176.089 67.6536C176.028 67.6546 175.968 67.6364 175.918 67.6016C175.868 67.5668 175.831 67.5172 175.81 67.4598C175.785 67.3967 175.782 67.3268 175.802 67.2618C175.821 67.1967 175.863 67.1404 175.919 67.1024L184.237 61.5051C184.269 61.4823 184.306 61.4662 184.344 61.4578C184.383 61.4494 184.423 61.4489 184.462 61.4562C184.501 61.4636 184.538 61.4786 184.571 61.5005C184.604 61.5225 184.633 61.5508 184.655 61.5838C184.699 61.6515 184.715 61.7339 184.699 61.8131C184.683 61.8924 184.637 61.9623 184.57 62.0078L177.755 66.5996C179.845 65.9575 182.904 64.8792 182.946 64.861C183.027 64.8345 183.114 64.841 183.19 64.8791C183.265 64.9171 183.323 64.9836 183.349 65.064C183.376 65.1443 183.369 65.2319 183.331 65.3074C183.293 65.3829 183.227 65.4403 183.146 65.4668C182.91 65.5455 177.337 67.5143 176.131 67.6839L176.089 67.6536Z" fill="#2E353A"/>
<path d="M184.061 65.279C183.991 65.2776 183.923 65.2522 183.869 65.2071C183.815 65.1619 183.778 65.0997 183.764 65.0306C183.75 64.9519 183.767 64.8708 183.813 64.805C183.858 64.7392 183.928 64.694 184.006 64.6793L185.872 64.3401C185.952 64.3258 186.033 64.3431 186.1 64.3884C186.167 64.4337 186.213 64.5033 186.23 64.5824C186.237 64.6222 186.237 64.6632 186.229 64.7029C186.221 64.7427 186.204 64.7804 186.181 64.8137C186.158 64.847 186.128 64.8754 186.094 64.897C186.06 64.9187 186.021 64.9332 185.981 64.9398L184.115 65.279H184.061Z" fill="#2E353A"/>
<path d="M122.484 86.9838C121.202 86.9455 119.926 87.1874 118.747 87.6925L122.484 86.9838Z" fill="white"/>
<path d="M118.747 88.0136C118.666 88.0288 118.583 88.0116 118.516 87.9656C118.448 87.9195 118.402 87.8486 118.386 87.7682C118.371 87.6879 118.388 87.6048 118.434 87.5372C118.48 87.4696 118.551 87.4231 118.632 87.4078C119.855 86.8825 121.178 86.6322 122.509 86.6748C122.548 86.6779 122.587 86.6888 122.623 86.7069C122.658 86.725 122.69 86.75 122.716 86.7804C122.742 86.8108 122.762 86.846 122.774 86.8841C122.786 86.9221 122.791 86.9621 122.787 87.0019C122.78 87.0818 122.741 87.1555 122.68 87.2075C122.619 87.2595 122.54 87.2857 122.46 87.2806C121.227 87.2448 120.001 87.4784 118.868 87.9651C118.832 87.9902 118.79 88.0068 118.747 88.0136Z" fill="#2E353A"/>
<path d="M140.597 78.6786C140.597 78.6786 145.267 77.249 146.503 76.298L140.597 78.6786Z" fill="white"/>
<path d="M140.597 78.9815C140.517 78.9928 140.435 78.9717 140.37 78.9228C140.306 78.874 140.263 78.8014 140.252 78.721C140.24 78.6407 140.262 78.5592 140.31 78.4945C140.359 78.4297 140.432 78.387 140.512 78.3758C140.555 78.3758 145.14 76.9583 146.321 76.0496C146.385 76.0007 146.465 75.9791 146.545 75.9893C146.624 75.9995 146.696 76.0408 146.745 76.1041C146.793 76.1682 146.814 76.2481 146.803 76.3271C146.793 76.4061 146.753 76.4781 146.691 76.5282C145.419 77.5035 140.882 78.8967 140.688 78.9512C140.66 78.9674 140.629 78.9777 140.597 78.9815Z" fill="#2E353A"/>
<path d="M147.648 75.8255C147.648 75.8255 148.411 75.1591 148.696 75.1591L147.648 75.8255Z" fill="white"/>
<path d="M147.648 76.1284C147.605 76.128 147.562 76.1186 147.522 76.1009C147.483 76.0832 147.447 76.0575 147.418 76.0254C147.362 75.9677 147.331 75.8906 147.331 75.8103C147.331 75.73 147.362 75.6529 147.418 75.5953C147.76 75.2419 148.191 74.9868 148.666 74.8562C148.746 74.8562 148.823 74.8881 148.88 74.9449C148.937 75.0018 148.969 75.0788 148.969 75.1591C148.967 75.239 148.935 75.3151 148.878 75.3716C148.822 75.428 148.746 75.4605 148.666 75.462C148.354 75.6193 148.068 75.8236 147.818 76.0678C147.769 76.1054 147.71 76.1266 147.648 76.1284Z" fill="#2E353A"/>
<path d="M176.089 67.6536C176.014 67.6527 175.942 67.6245 175.886 67.5744C175.831 67.5242 175.795 67.4555 175.786 67.381L175.029 59.5969C175.025 59.5571 175.029 59.5169 175.04 59.4787C175.052 59.4404 175.071 59.4048 175.096 59.3738C175.122 59.3429 175.153 59.3173 175.188 59.2984C175.223 59.2795 175.262 59.2677 175.302 59.2637C175.341 59.2597 175.381 59.2636 175.42 59.2752C175.458 59.2867 175.494 59.3057 175.525 59.331C175.555 59.3563 175.581 59.3875 175.6 59.4227C175.619 59.4579 175.631 59.4965 175.635 59.5363L176.398 67.3265C176.402 67.366 176.398 67.4059 176.387 67.4439C176.375 67.4819 176.356 67.5172 176.331 67.5477C176.305 67.5782 176.274 67.6033 176.239 67.6215C176.204 67.6397 176.165 67.6506 176.125 67.6536H176.089Z" fill="#2E353A"/>
<path d="M113.216 92.9445C113.216 92.9445 112.144 97.0456 119.019 98.7478C122.284 99.5535 143.892 104.806 143.892 104.806C143.892 104.806 145.825 100.662 144.722 100.662C143.62 100.662 123.696 87.4139 123.696 87.4139" fill="white"/>
<path d="M116.427 97.8452L141.481 104.242L142.148 102.655C142.148 102.655 132.71 100.765 126.816 97.8089C120.921 94.8527 120.546 95.7795 118.523 94.4953C116.499 93.2111 118.153 91.9147 118.153 91.9147C118.153 91.9147 123.684 94.1258 126.634 94.3075C129.584 94.4893 125.713 93.205 123.502 91.1757C122.587 90.3397 121.739 89.4977 121.079 88.8071L113.204 92.9385C113.204 92.9385 112.441 95.9128 116.427 97.8452Z" fill="#FFA2C3"/>
<path opacity="0.5" d="M116.427 97.8452L141.481 104.242L142.148 102.655C142.148 102.655 132.71 100.765 126.816 97.8089C120.921 94.8527 120.546 95.7795 118.523 94.4953C116.499 93.2111 118.153 91.9147 118.153 91.9147C118.153 91.9147 123.684 94.1258 126.634 94.3075C129.584 94.4893 125.713 93.205 123.502 91.1757C122.587 90.3397 121.739 89.4977 121.079 88.8071L113.204 92.9385C113.204 92.9385 112.441 95.9128 116.427 97.8452Z" fill="white"/>
<path d="M143.892 105.157H143.82C143.82 105.157 122.212 99.8806 118.947 99.0992C116.221 98.4268 114.373 97.2819 113.458 95.7614C112.926 94.919 112.735 93.9048 112.925 92.9264C112.947 92.8492 112.997 92.7834 113.066 92.7427C113.135 92.702 113.217 92.6897 113.295 92.7083C113.372 92.7296 113.437 92.7803 113.477 92.8495C113.516 92.9187 113.527 93.0007 113.507 93.0778C113.37 93.9059 113.542 94.7555 113.991 95.4645C114.821 96.8578 116.542 97.8876 119.092 98.4934C122.121 99.2506 141.336 103.945 143.723 104.515C144.468 102.867 144.934 101.268 144.722 101.019C143.571 101.019 126.882 89.9339 123.551 87.6925C123.484 87.647 123.437 87.5771 123.422 87.4978C123.406 87.4185 123.422 87.3362 123.466 87.2685C123.488 87.2354 123.516 87.2071 123.549 87.1852C123.582 87.1633 123.619 87.1482 123.658 87.1409C123.697 87.1336 123.737 87.1341 123.776 87.1425C123.815 87.1509 123.851 87.1669 123.884 87.1897C131.728 92.4175 143.759 100.25 144.734 100.402C144.833 100.403 144.93 100.429 145.017 100.476C145.103 100.524 145.177 100.592 145.231 100.674C145.734 101.468 144.54 104.169 144.159 104.981C144.135 105.032 144.098 105.076 144.051 105.107C144.004 105.138 143.949 105.155 143.892 105.157Z" fill="#2E353A"/>
<path d="M144.722 100.68C144.722 100.68 151.816 104 152.367 104.921C152.918 105.841 154.184 110.627 154.184 112.105C154.184 113.583 154.003 113.577 153.082 113.577C152.161 113.577 149.762 110.076 149.211 109.337C148.66 108.598 147.394 108.598 145.71 107.519C145.24 107.222 144.837 106.831 144.525 106.372C144.212 105.912 143.997 105.394 143.892 104.848L144.722 100.68Z" fill="white"/>
<path d="M153.106 113.88C152.313 113.88 151.004 112.299 149.284 109.924C149.162 109.755 149.066 109.615 148.993 109.524C148.647 109.18 148.213 108.937 147.739 108.822C146.975 108.55 146.245 108.19 145.564 107.75C145.055 107.429 144.616 107.007 144.277 106.51C143.937 106.013 143.703 105.451 143.589 104.86C143.586 104.83 143.586 104.799 143.589 104.769L144.419 100.62C144.429 100.575 144.448 100.533 144.475 100.496C144.502 100.46 144.537 100.429 144.577 100.408C144.618 100.387 144.664 100.376 144.71 100.376C144.756 100.376 144.802 100.387 144.843 100.408C146.055 100.965 152.052 103.812 152.621 104.763C153.191 105.714 154.505 110.585 154.505 112.105C154.505 113.626 154.227 113.88 153.106 113.88ZM144.201 104.836C144.309 105.333 144.515 105.803 144.808 106.219C145.1 106.635 145.473 106.989 145.903 107.259C146.547 107.673 147.236 108.01 147.957 108.264C148.54 108.416 149.068 108.731 149.478 109.173C149.55 109.264 149.653 109.403 149.774 109.579C151.991 112.644 152.803 113.286 153.106 113.286C153.906 113.286 153.906 113.286 153.906 112.117C153.906 110.688 152.646 105.981 152.088 105.084C151.737 104.478 147.648 102.419 144.922 101.129L144.201 104.836Z" fill="#2E353A"/>
<path d="M141.693 104.418C141.663 104.424 141.633 104.424 141.603 104.418C141.564 104.406 141.529 104.387 141.498 104.361C141.468 104.336 141.442 104.304 141.424 104.268C141.406 104.233 141.395 104.194 141.393 104.154C141.39 104.114 141.396 104.074 141.409 104.036L142.511 100.614C142.522 100.574 142.541 100.538 142.567 100.506C142.593 100.475 142.624 100.448 142.66 100.429C142.696 100.41 142.736 100.398 142.776 100.395C142.817 100.391 142.858 100.396 142.896 100.409C142.935 100.421 142.971 100.442 143.002 100.469C143.032 100.495 143.057 100.528 143.075 100.565C143.093 100.601 143.103 100.641 143.105 100.682C143.107 100.723 143.101 100.763 143.087 100.801L141.984 104.224C141.961 104.282 141.921 104.331 141.869 104.366C141.817 104.401 141.756 104.419 141.693 104.418Z" fill="#2E353A"/>
<path d="M195.48 74.8684C195.48 74.8684 193.662 81.132 192.899 84.8151C192.136 88.4982 187.005 103.243 187.005 103.243L191.427 106.005C191.427 106.005 201.192 85.7722 203.052 81.338C204.912 76.9037 204.342 73.5962 202.501 71.7547" fill="white"/>
<path d="M191.427 106.326C191.371 106.325 191.317 106.308 191.27 106.278L186.847 103.515C186.789 103.479 186.744 103.424 186.721 103.359C186.698 103.294 186.698 103.223 186.72 103.158C186.769 103.012 191.881 88.3952 192.602 84.7788C193.323 81.1623 195.177 74.8684 195.177 74.8017C195.199 74.7214 195.253 74.6533 195.326 74.6124C195.398 74.5715 195.484 74.5611 195.565 74.5836C195.645 74.6061 195.713 74.6596 195.754 74.7323C195.795 74.805 195.805 74.891 195.783 74.9713C195.783 75.0319 193.935 81.2653 193.208 84.8939C192.517 88.3528 188.065 101.183 187.381 103.134L191.312 105.587C192.524 103.037 201.071 85.2876 202.767 81.2168C204.403 77.2854 204.227 73.9476 202.283 71.9667C202.226 71.9105 202.195 71.8342 202.195 71.7547C202.195 71.6752 202.226 71.5989 202.283 71.5427C202.339 71.4864 202.415 71.4548 202.495 71.4548C202.574 71.4548 202.65 71.4864 202.707 71.5427C204.839 73.6689 205.063 77.2854 203.312 81.4531C201.495 85.8328 191.803 105.95 191.7 106.156C191.682 106.195 191.656 106.229 191.623 106.256C191.591 106.283 191.553 106.303 191.512 106.314L191.427 106.326Z" fill="#2E353A"/>
<path d="M187.841 101.135C188.174 101.135 192.372 103.449 192.372 103.449L187.841 101.135Z" fill="#2E353A"/>
<path d="M158.788 67.8596C157.771 67.69 152.337 64.128 148.605 61.2446C144.874 58.3611 142.838 57.8523 142.838 57.8523L140.294 59.5484C139.909 58.3087 140.031 56.9669 140.633 55.8169C141.651 53.9511 145.213 52.0853 148.775 50.7284C152.337 49.3715 156.408 48.2145 158.958 48.2145C161.508 48.2145 162.181 49.2321 162.181 50.5891C162.181 51.946 162.181 56.1864 161.332 59.4091C160.484 62.6318 158.788 67.8596 158.788 67.8596Z" fill="white"/>
<g style="mix-blend-mode:multiply">
<path d="M157.189 50.1711C157.189 50.1711 155.62 54.8719 154.051 56.2833C152.84 57.2993 151.528 58.1902 150.138 58.9427C150.138 58.9427 149.199 55.6533 146.848 55.6533C144.498 55.6533 140.894 57.2223 140.894 57.2223C140.894 57.2223 140.894 55.9683 143.868 54.3994L146.848 52.8365L153.742 50.1711H157.189Z" fill="#FFA2C3"/>
</g>
<path opacity="0.5" d="M157.189 50.1711C157.189 50.1711 155.62 54.8719 154.051 56.2833C152.84 57.2993 151.528 58.1902 150.138 58.9427C150.138 58.9427 149.199 55.6533 146.848 55.6533C144.498 55.6533 140.894 57.2223 140.894 57.2223C140.894 57.2223 140.894 55.9683 143.868 54.3994L146.848 52.8365L153.742 50.1711H157.189Z" fill="white"/>
<path d="M158.788 68.1625H158.734C157.607 67.9747 152.028 64.2734 148.436 61.499C145.316 59.0759 143.39 58.355 142.899 58.1975L140.476 59.815C140.436 59.8389 140.392 59.8544 140.346 59.8607C140.3 59.8669 140.254 59.8637 140.209 59.8513C140.166 59.8363 140.126 59.8116 140.094 59.7791C140.061 59.7465 140.036 59.707 140.021 59.6635C139.814 59.0096 139.738 58.3209 139.8 57.6376C139.861 56.9543 140.058 56.29 140.379 55.6836C141.59 53.418 146.109 51.4432 148.684 50.4558C150.707 49.6865 155.759 47.8934 158.982 47.8934C161.351 47.8934 162.508 48.7657 162.508 50.5709C162.508 51.9642 162.508 56.2106 161.647 59.4697C160.787 62.7287 159.115 67.9141 159.097 67.9505C159.078 68.0159 159.037 68.0728 158.98 68.1114C158.924 68.15 158.856 68.168 158.788 68.1625ZM142.838 57.5494H142.911C142.996 57.5494 145.055 58.1067 148.793 60.9962C152.3 63.704 157.189 66.9267 158.588 67.478C158.952 66.3391 160.315 62.026 161.011 59.2879C161.853 56.1076 161.853 51.9218 161.853 50.5467C161.853 49.5229 161.508 48.4749 158.934 48.4749C156.741 48.4749 153.07 49.3957 148.86 51.001C144.65 52.6063 141.712 54.4175 140.876 55.9501C140.374 56.9021 140.224 58.0001 140.452 59.0517L142.644 57.5918C142.702 57.5558 142.771 57.5409 142.838 57.5494Z" fill="#2E353A"/>
<path d="M143.686 46.3305C145.674 48.5221 147.069 51.1847 147.739 54.0662C148.841 58.8578 155.771 64.4915 157.431 64.4915C159.091 64.4915 158.976 56.2773 158.425 53.8845C157.873 51.4917 155.662 45.0402 155.662 45.0402C155.662 45.0402 146.842 40.7998 143.686 46.3305Z" fill="white"/>
<path d="M157.456 64.7944C155.675 64.7944 148.587 59.0032 147.466 54.1328C146.802 51.3085 145.435 48.6976 143.492 46.5425C143.446 46.4956 143.416 46.4346 143.407 46.369C143.398 46.3033 143.411 46.2366 143.444 46.1791C146.679 40.4727 155.723 44.7192 155.814 44.7676C155.851 44.7849 155.883 44.8093 155.91 44.8395C155.937 44.8697 155.958 44.905 155.971 44.9433C156.062 45.2038 158.195 51.4311 158.746 53.8178C159.224 55.9138 159.448 62.8014 158.176 64.4067C158.095 64.5229 157.987 64.6184 157.862 64.6857C157.737 64.753 157.598 64.7902 157.456 64.7944ZM144.086 46.2881C146.029 48.4887 147.393 51.1391 148.054 53.9996C149.156 58.7549 156.044 64.1886 157.456 64.1886C157.456 64.1886 157.571 64.1886 157.698 64.0251C158.728 62.7348 158.661 56.1501 158.152 53.9511C157.643 51.7522 155.729 46.167 155.438 45.2583C154.427 44.81 146.945 41.6782 144.086 46.2881Z" fill="#2E353A"/>
<g style="mix-blend-mode:multiply">
<path d="M157.189 50.1711C157.189 50.1711 155.62 54.8719 154.051 56.2833C152.84 57.2993 151.528 58.1902 150.138 58.9427C150.138 58.9427 149.199 55.6533 146.848 55.6533C144.498 55.6533 140.894 57.2223 140.894 57.2223C140.894 57.2223 140.894 55.9683 143.868 54.3994L146.848 52.8365L153.742 50.1711H157.189Z" fill="#FFA2C3"/>
</g>
<path opacity="0.5" d="M157.189 50.1711C157.189 50.1711 155.62 54.8719 154.051 56.2833C152.84 57.2993 151.528 58.1902 150.138 58.9427C150.138 58.9427 149.199 55.6533 146.848 55.6533C144.498 55.6533 140.894 57.2223 140.894 57.2223C140.894 57.2223 140.894 55.9683 143.868 54.3994L146.848 52.8365L153.742 50.1711H157.189Z" fill="white"/>
<path d="M143.686 46.3305C145.674 48.5221 147.069 51.1847 147.739 54.0662C148.841 58.8578 155.771 64.4915 157.431 64.4915C159.091 64.4915 158.976 56.2773 158.425 53.8845C157.873 51.4917 155.662 45.0402 155.662 45.0402C155.662 45.0402 146.842 40.7998 143.686 46.3305Z" fill="white"/>
<path d="M157.456 64.7944C155.675 64.7944 148.587 59.0032 147.466 54.1328C146.802 51.3085 145.435 48.6976 143.492 46.5425C143.446 46.4956 143.416 46.4346 143.407 46.369C143.398 46.3033 143.411 46.2366 143.444 46.1791C146.679 40.4727 155.723 44.7192 155.814 44.7676C155.851 44.7849 155.883 44.8093 155.91 44.8395C155.937 44.8697 155.958 44.905 155.971 44.9433C156.062 45.2038 158.195 51.4311 158.746 53.8178C159.224 55.9138 159.448 62.8014 158.176 64.4067C158.095 64.5229 157.987 64.6184 157.862 64.6857C157.737 64.753 157.598 64.7902 157.456 64.7944ZM144.086 46.2881C146.029 48.4887 147.393 51.1391 148.054 53.9996C149.156 58.7549 156.044 64.1886 157.456 64.1886C157.456 64.1886 157.571 64.1886 157.698 64.0251C158.728 62.7348 158.661 56.1501 158.152 53.9511C157.643 51.7522 155.729 46.167 155.438 45.2583C154.427 44.81 146.945 41.6782 144.086 46.2881Z" fill="#2E353A"/>
<path d="M137.865 37.4499C139.165 40.9843 140.772 44.3978 142.669 47.6511C145.467 52.2489 150.871 54.8537 153.869 53.6543C156.868 52.4548 158.909 48.584 158.11 42.5868C157.934 41.2663 156.783 40.7271 156.414 39.558C155.087 35.3176 153.736 31.2286 153.27 29.6718C152.664 27.6667 147.866 25.6677 142.869 27.067C137.871 28.4663 137.065 32.6461 137.865 37.4499Z" fill="white"/>
<path d="M154.469 33.7789C154.469 33.7789 152.652 35.1298 148.569 34.3484C144.486 33.5669 141.675 33.7426 141.833 34.8209C141.99 35.8991 142.305 37.3227 142.305 37.3227C142.305 37.3227 137.405 33.0823 141.845 31.9556C145.043 31.1257 146.891 32.3857 147.672 32.5613C148.454 32.737 154.469 33.7789 154.469 33.7789Z" fill="#FFA2C3"/>
<path opacity="0.5" d="M154.469 33.7789C154.469 33.7789 152.652 35.1298 148.569 34.3484C144.486 33.5669 141.675 33.7426 141.833 34.8209C141.99 35.8991 142.305 37.3227 142.305 37.3227C142.305 37.3227 137.405 33.0823 141.845 31.9556C145.043 31.1257 146.891 32.3857 147.672 32.5613C148.454 32.737 154.469 33.7789 154.469 33.7789Z" fill="white"/>
<path d="M152.197 54.2722C148.944 54.2722 144.71 51.6128 142.408 47.8268C140.495 44.5548 138.874 41.121 137.562 37.565C137.559 37.549 137.559 37.5325 137.562 37.5165C136.562 31.5497 138.271 28.0302 142.778 26.7702C148.005 25.3042 152.918 27.4608 153.554 29.5749C153.772 30.3079 154.16 31.5921 154.699 33.2095C155.305 35.0268 155.99 37.2258 156.692 39.4792C156.868 39.9276 157.127 40.3386 157.456 40.6908C157.945 41.205 158.274 41.8516 158.401 42.5505C159.297 49.2806 156.704 52.8486 153.978 53.939C153.411 54.1626 152.807 54.2757 152.197 54.2722ZM138.162 37.3712C139.452 40.8769 141.046 44.2638 142.923 47.4936C145.74 52.1156 151.065 54.4478 153.76 53.3696C156.274 52.364 158.661 49.0141 157.807 42.6232C157.696 42.0394 157.42 41.4993 157.013 41.0664C156.63 40.6467 156.336 40.1543 156.147 39.6186C155.444 37.3712 154.736 35.1662 154.154 33.3549C153.639 31.7557 153.227 30.4654 153.003 29.7203C152.494 28.0362 148.018 25.91 142.972 27.2972C138.804 28.4966 137.235 31.7799 138.162 37.3712Z" fill="#2E353A"/>
<path d="M141.469 44.0467C141.469 44.0467 138.265 42.6474 138.065 44.0467C137.865 45.4461 139.276 46.4698 140.664 47.0756C141.009 47.2648 141.404 47.3468 141.796 47.3112C142.189 47.2756 142.562 47.124 142.869 46.8757" fill="white"/>
<path d="M141.675 47.6087C141.287 47.6038 140.903 47.5193 140.548 47.3603C138.568 46.5122 137.58 45.331 137.768 44.0346C137.784 43.8865 137.836 43.7444 137.919 43.6209C138.003 43.4974 138.115 43.3961 138.247 43.3259C139.21 42.7867 141.348 43.6954 141.59 43.8044C141.659 43.8404 141.711 43.901 141.736 43.9739C141.761 44.0468 141.757 44.1265 141.725 44.1968C141.694 44.2671 141.636 44.3227 141.565 44.3522C141.494 44.3817 141.414 44.383 141.342 44.3557C140.542 44.0044 139.07 43.5621 138.537 43.8529C138.489 43.8794 138.448 43.9177 138.418 43.9643C138.389 44.011 138.371 44.0643 138.368 44.1195C138.174 45.4703 139.797 46.379 140.791 46.803C141.082 46.9651 141.415 47.0382 141.748 47.0135C142.08 46.9887 142.398 46.8671 142.663 46.6637C142.721 46.6144 142.796 46.589 142.872 46.5925C142.948 46.596 143.02 46.6281 143.074 46.6824C143.127 46.7368 143.158 46.8093 143.161 46.8856C143.163 46.9618 143.137 47.0362 143.087 47.0938C142.698 47.4375 142.194 47.6215 141.675 47.6087Z" fill="#2E353A"/>
<path d="M154.548 36.1354C154.548 36.1354 150.98 35.2873 152.506 40.0426C152.809 40.9815 154.887 42.078 154.887 42.078C154.887 42.078 154.717 43.6045 153.869 43.7742" fill="white"/>
<path d="M153.863 44.077C153.794 44.0759 153.727 44.0514 153.673 44.0075C153.619 43.9635 153.581 43.9026 153.566 43.8347C153.559 43.7953 153.559 43.7547 153.567 43.7153C153.574 43.676 153.59 43.6385 153.613 43.6053C153.635 43.572 153.664 43.5436 153.698 43.5216C153.732 43.4996 153.769 43.4846 153.809 43.4773C154.245 43.3865 154.469 42.6656 154.554 42.2658C153.997 41.9508 152.506 41.0542 152.222 40.1577C151.652 38.3889 151.701 37.1289 152.361 36.414C153.173 35.5357 154.554 35.8567 154.614 35.8688C154.692 35.8875 154.759 35.9363 154.801 36.0044C154.843 36.0725 154.857 36.1544 154.839 36.2323C154.83 36.2712 154.814 36.3081 154.791 36.3406C154.768 36.3731 154.738 36.4006 154.704 36.4215C154.67 36.4424 154.633 36.4563 154.593 36.4623C154.554 36.4683 154.514 36.4663 154.475 36.4564C154.475 36.4564 153.373 36.2081 152.803 36.826C152.234 37.4439 152.306 38.4494 152.803 39.9699C152.997 40.5757 154.275 41.4298 155.032 41.8296C155.085 41.8596 155.128 41.9042 155.156 41.9579C155.184 42.0116 155.196 42.0722 155.19 42.1325C155.19 42.3143 154.966 43.8892 153.93 44.0952L153.863 44.077Z" fill="#2E353A"/>
<path d="M151.998 47.1665C151.998 47.1665 149.453 47.6753 148.436 46.488L151.998 47.1665Z" fill="white"/>
<path d="M150.78 47.6087C150.312 47.6458 149.842 47.5853 149.398 47.4309C148.955 47.2766 148.549 47.0318 148.205 46.7122C148.18 46.6819 148.16 46.6469 148.148 46.6091C148.135 46.5712 148.131 46.5314 148.134 46.4917C148.137 46.4521 148.148 46.4134 148.166 46.3779C148.184 46.3425 148.208 46.3109 148.239 46.2851C148.269 46.2592 148.304 46.2396 148.342 46.2273C148.38 46.2149 148.419 46.2102 148.459 46.2133C148.499 46.2164 148.537 46.2273 148.573 46.2453C148.608 46.2633 148.64 46.2882 148.666 46.3184C149.556 47.3603 151.919 46.9242 151.943 46.9242C151.982 46.9154 152.022 46.9146 152.061 46.9219C152.1 46.9291 152.137 46.9443 152.17 46.9664C152.203 46.9885 152.231 47.0172 152.252 47.0505C152.274 47.0839 152.288 47.1213 152.294 47.1604C152.302 47.1994 152.303 47.2396 152.295 47.2786C152.287 47.3177 152.272 47.3549 152.25 47.3881C152.228 47.4212 152.2 47.4498 152.167 47.4721C152.134 47.4943 152.097 47.5099 152.058 47.5178C151.635 47.5848 151.208 47.6152 150.78 47.6087Z" fill="#2E353A"/>
<path d="M148.266 39.1945C148.266 39.1945 146.4 38.5161 145.383 39.3641C144.838 39.7433 144.416 40.2741 144.171 40.8907" fill="white"/>
<path d="M144.195 41.1875H144.123C144.084 41.1776 144.048 41.1602 144.016 41.1363C143.984 41.1123 143.957 41.0824 143.937 41.048C143.917 41.0137 143.903 40.9757 143.898 40.9362C143.892 40.8968 143.894 40.8566 143.904 40.818C144.158 40.1427 144.604 39.5569 145.189 39.1339C146.328 38.1889 148.29 38.8856 148.369 38.9159C148.407 38.9287 148.442 38.9491 148.472 38.9757C148.501 39.0024 148.525 39.0348 148.542 39.071C148.559 39.1072 148.569 39.1465 148.57 39.1864C148.572 39.2264 148.565 39.2662 148.551 39.3036C148.523 39.3791 148.467 39.4406 148.394 39.4747C148.322 39.5088 148.239 39.5126 148.163 39.4853C148.163 39.4853 146.449 38.8795 145.576 39.6004C145.096 39.9487 144.721 40.4223 144.492 40.9694C144.473 41.0328 144.433 41.0883 144.38 41.1275C144.326 41.1668 144.262 41.1878 144.195 41.1875Z" fill="#2E353A"/>
<path d="M148.218 42.0962C148.46 42.6595 148.411 43.2169 148.108 43.3441C147.806 43.4713 147.369 43.126 147.127 42.5626C146.885 41.9993 146.939 41.448 147.242 41.3147C147.545 41.1815 147.981 41.551 148.218 42.0962Z" fill="#2E353A"/>
<path d="M154.318 39.1279C154.56 39.6852 154.505 40.2425 154.209 40.3758C153.912 40.5091 153.463 40.1517 153.227 39.5943C152.991 39.037 153.033 38.4737 153.336 38.3465C153.639 38.2192 154.075 38.5706 154.318 39.1279Z" fill="#2E353A"/>
<path d="M140.579 44.8524C140.579 44.8524 142.602 43.3804 142.232 42.0901C141.863 40.7998 141.13 40.7998 141.869 40.0668C142.608 39.3339 143.153 38.9583 142.972 37.8558C142.79 36.7533 139.84 34.9057 140.76 33.8032C141.681 32.7007 141.312 31.3801 148.866 33.2459C156.42 35.1116 161.211 32.1434 159 29.3811C156.789 26.6187 154.948 26.2492 154.948 26.2492C154.948 26.2492 159.188 24.4319 155.687 22.5601C152.185 20.6882 144.262 20.7428 139.84 24.2199C135.418 27.697 136.338 30.6471 136.338 30.6471C136.338 30.6471 133.946 31.0166 133.758 34.7058C133.57 38.3949 140.579 44.8524 140.579 44.8524Z" fill="#2E353A"/>
<path d="M152.634 32.5129C151.023 32.4453 149.438 32.0925 147.951 31.471C146.786 30.974 145.544 30.679 144.28 30.5987C141.354 30.5987 140.748 32.2585 140.724 32.3312C140.716 32.357 140.703 32.381 140.685 32.4015C140.667 32.4221 140.646 32.4388 140.621 32.4507C140.597 32.4626 140.57 32.4694 140.543 32.4707C140.516 32.472 140.489 32.4678 140.464 32.4584C140.438 32.4501 140.414 32.4368 140.393 32.4192C140.372 32.4017 140.355 32.3801 140.343 32.3559C140.33 32.3317 140.323 32.3053 140.321 32.2781C140.319 32.251 140.322 32.2237 140.33 32.1979C140.361 32.1191 141.039 30.1807 144.28 30.1807C145.593 30.2583 146.882 30.5637 148.09 31.0833C149.974 31.7557 151.931 32.4523 154.39 31.9071C155.723 31.6103 156.504 31.1317 156.698 30.4957C156.953 29.6779 156.165 28.8238 156.159 28.8116C156.121 28.773 156.099 28.7208 156.099 28.6663C156.099 28.6118 156.121 28.5595 156.159 28.5209C156.199 28.4834 156.253 28.4626 156.308 28.4626C156.363 28.4626 156.416 28.4834 156.456 28.5209C156.492 28.5633 157.413 29.5628 157.092 30.6108C156.844 31.4043 155.965 31.9738 154.475 32.3069C153.87 32.4407 153.253 32.5097 152.634 32.5129Z" fill="white"/>
<path d="M139.119 32.004C139.064 31.9994 139.012 31.9733 138.976 31.9314C138.94 31.8896 138.922 31.8352 138.925 31.7799C138.925 31.7375 139.282 27.7394 142.826 26.8429C144.916 26.3158 147.333 26.7096 149.278 27.0246C150.489 27.2245 151.573 27.4002 152.028 27.2245C152.078 27.2138 152.13 27.2215 152.174 27.2461C152.219 27.2706 152.253 27.3105 152.271 27.3584C152.289 27.4062 152.289 27.4588 152.271 27.5066C152.253 27.5543 152.218 27.594 152.173 27.6183C151.616 27.8242 150.556 27.6546 149.211 27.4365C147.303 27.1215 144.928 26.7399 142.929 27.2427C139.67 28.0726 139.343 31.7738 139.337 31.8102C139.335 31.8372 139.329 31.8637 139.317 31.8881C139.305 31.9125 139.288 31.9344 139.268 31.9524C139.248 31.9704 139.224 31.9842 139.199 31.9931C139.173 32.002 139.146 32.0057 139.119 32.004Z" fill="white"/>
<path d="M136.775 38.2556C136.733 38.2549 136.693 38.2423 136.659 38.2192C136.116 37.7632 135.694 37.1787 135.433 36.5187C135.171 35.8587 135.079 35.144 135.163 34.4392C135.333 31.7738 137.38 31.7436 137.405 31.7436C137.454 31.752 137.499 31.7776 137.531 31.8158C137.563 31.8541 137.581 31.9025 137.581 31.9526C137.581 32.0026 137.563 32.051 137.531 32.0893C137.499 32.1275 137.454 32.1531 137.405 32.1615C137.332 32.1615 135.72 32.1979 135.587 34.4635C135.505 35.0973 135.582 35.7416 135.812 36.3381C136.041 36.9346 136.416 37.4646 136.902 37.88C136.924 37.8951 136.943 37.9146 136.958 37.9373C136.972 37.96 136.982 37.9854 136.987 38.012C136.991 38.0386 136.99 38.0659 136.984 38.0921C136.978 38.1184 136.966 38.1431 136.95 38.1647C136.932 38.1943 136.906 38.2183 136.875 38.2343C136.844 38.2502 136.809 38.2576 136.775 38.2556Z" fill="white"/>
<path d="M138.028 36.5352C137.989 36.5352 137.95 36.5238 137.917 36.5023C137.883 36.4808 137.857 36.4502 137.841 36.4141C137.691 36.1377 137.603 35.8326 137.581 35.5191C137.559 35.2057 137.604 34.8912 137.713 34.5967C137.981 34.0193 138.457 33.5647 139.046 33.3246C139.071 33.3139 139.098 33.3084 139.125 33.3084C139.152 33.3085 139.179 33.3141 139.204 33.3248C139.229 33.3356 139.252 33.3513 139.27 33.3711C139.289 33.3908 139.303 33.4142 139.313 33.4397C139.333 33.4903 139.332 33.5468 139.31 33.5967C139.289 33.6467 139.248 33.686 139.198 33.7063C138.715 33.9106 138.324 34.2829 138.095 34.7542C138.009 34.9961 137.976 35.2535 137.997 35.5093C138.018 35.7651 138.092 36.0136 138.216 36.2384C138.239 36.2891 138.241 36.3466 138.222 36.3988C138.202 36.4509 138.164 36.4933 138.113 36.517C138.087 36.5289 138.058 36.5351 138.028 36.5352Z" fill="white"/>
<path d="M138.495 39.8185C138.461 39.8178 138.429 39.8092 138.399 39.7934C138.37 39.7776 138.344 39.7551 138.325 39.7276L137.544 38.6372C137.512 38.5922 137.499 38.5363 137.508 38.4818C137.517 38.4273 137.547 38.3786 137.592 38.3465C137.637 38.3143 137.693 38.3014 137.748 38.3105C137.802 38.3195 137.851 38.3499 137.883 38.3949L138.664 39.4914C138.695 39.5357 138.708 39.5904 138.699 39.6436C138.689 39.6969 138.66 39.7445 138.616 39.7761C138.582 39.804 138.539 39.819 138.495 39.8185Z" fill="white"/>
<path d="M153.05 140.92H68.9501L83.4501 127H138.55L153.05 140.92Z" fill="#FFEBF2"/>
<path d="M93.6 140.92L83.4501 127H111L93.6 140.92Z" fill="white"/>
<path d="M111 185L68.9501 140.92H153.05L111 185Z" fill="white"/>
<path d="M111 185L68.9501 140.92H93.6L111 185Z" fill="#FFD0E1"/>
<path d="M128.4 140.92L138.55 127H111L128.4 140.92Z" fill="white"/>
<path d="M111 185L153.05 140.92H128.4L111 185Z" fill="#FFD0E1"/>
</svg>
