<svg width="293" height="255" viewBox="0 0 293 255" fill="none" xmlns="http://www.w3.org/2000/svg">
<path d="M21.9337 24.9771C36.3556 8.87019 56.3627 0 78.2687 0C109.078 0 128.584 18.1114 139.521 33.3054C142.359 37.2481 144.773 41.2014 146.8 44.9215C148.827 41.2014 151.24 37.2481 154.079 33.3054C165.016 18.1114 184.522 0 215.331 0C237.237 0 257.244 8.87076 271.667 24.9776C285.423 40.3425 293 60.9205 293 82.9206C293 106.868 283.501 129.142 263.106 153.016C244.878 174.354 218.656 196.349 188.29 221.818C176.975 231.309 165.274 241.123 152.816 251.851L152.442 252.174C150.827 253.566 148.814 254.261 146.8 254.261C144.786 254.261 142.773 253.565 141.158 252.174L140.783 251.851C128.326 241.123 116.625 231.309 105.308 221.817C74.9444 196.349 48.7215 174.355 30.4939 153.016C10.0989 129.142 0.599945 106.868 0.599945 82.9206C0.599945 60.9205 8.17664 40.3425 21.9337 24.9771ZM116.422 208.982C126.176 217.163 136.215 225.583 146.8 234.641C157.385 225.585 167.424 217.164 177.18 208.981C236.607 159.137 275.867 126.207 275.867 82.9206C275.867 65.0284 269.811 48.41 258.813 36.1272C247.689 23.705 232.248 16.8635 215.331 16.8635C191.843 16.8635 176.659 31.1064 168.058 43.0547C160.343 53.7709 156.318 64.5737 154.945 68.7204C153.796 72.1915 150.509 74.5405 146.8 74.5405C143.091 74.5405 139.804 72.1915 138.655 68.7204C137.282 64.5737 133.256 53.7709 125.542 43.0542C116.941 31.1064 101.757 16.8635 78.2687 16.8635C61.3523 16.8635 45.9105 23.705 34.7874 36.1272C23.7892 48.41 17.7328 65.0284 17.7328 82.9206C17.7328 126.207 56.9926 159.137 116.422 208.982Z" fill="#FFA1C3"/>
</svg>
