<svg width="308" height="352" viewBox="0 0 308 352" fill="none" xmlns="http://www.w3.org/2000/svg">
  <g opacity="0.5" filter="url(#filter0_d)">
    <rect x="86.8309" y="5.25578" width="188" height="277.782" rx="9.03846" transform="rotate(4.36 86.8309 5.25578)"
          fill="white"/>
  </g>
  <g opacity="0.5" filter="url(#filter1_d)">
    <rect x="28.9949" y="20.9309" width="188" height="277.782" rx="9.03846" transform="rotate(-5.11351 28.9949 20.9309)"
          fill="white"/>
  </g>
  <g filter="url(#filter2_d)">
    <rect x="58" y="11" width="188" height="277.782" rx="9.03846" fill="white"/>
  </g>
  <circle cx="152" cy="100.179" r="62.6667" fill="#FFDCE9"/>
  <path
    d="M214.628 161.403C214.628 162.05 194.187 162.571 169.001 162.571C143.815 162.571 123.374 162.05 123.374 161.403C123.374 160.757 143.815 160.239 169.001 160.239C194.187 160.239 214.628 160.761 214.628 161.403Z"
    fill="#2E353A"/>
  <path
    d="M100.112 125.15C100.079 125.15 99.933 122.861 99.9403 122.715C100.024 121.025 101.185 117.806 103.021 117.317C103.327 117.244 103.646 117.236 103.956 117.294C104.265 117.352 104.559 117.475 104.818 117.654C105.077 117.834 105.296 118.066 105.459 118.335C105.622 118.605 105.727 118.906 105.766 119.219C105.978 120.54 105.116 121.949 104.244 122.869C103.214 123.935 100.112 125.15 100.112 125.15Z"
    fill="#2E353A"/>
  <path
    d="M97.7173 116.331C97.6845 116.331 97.8852 114.046 97.9144 113.9C98.2575 112.243 99.8928 109.235 101.776 109.031C102.09 109.005 102.406 109.046 102.704 109.15C103.001 109.255 103.273 109.421 103.502 109.637C103.731 109.854 103.912 110.116 104.033 110.408C104.154 110.699 104.212 111.012 104.204 111.327C104.204 112.667 103.149 113.93 102.149 114.7C100.97 115.605 97.7173 116.331 97.7173 116.331Z"
    fill="#2E353A"/>
  <path
    d="M97.1114 105.925C97.0786 105.925 97.283 103.64 97.3122 103.494C97.6516 101.837 99.2869 98.8288 101.174 98.6244C101.488 98.5986 101.804 98.6393 102.101 98.7439C102.398 98.8484 102.67 99.0144 102.899 99.231C103.127 99.4477 103.308 99.7101 103.428 100.001C103.549 100.292 103.606 100.605 103.598 100.92C103.598 102.26 102.546 103.519 101.543 104.293C100.364 105.198 97.1151 105.925 97.1114 105.925Z"
    fill="#2E353A"/>
  <path
    d="M96.0638 96.1314C96.031 96.1314 96.2354 93.8427 96.2646 93.7004C96.604 92.0395 98.2393 89.0355 100.126 88.8274C100.441 88.8022 100.757 88.8434 101.054 88.9483C101.351 89.0533 101.623 89.2196 101.851 89.4365C102.08 89.6535 102.26 89.9161 102.381 90.2074C102.501 90.4986 102.559 90.812 102.55 91.127C102.55 92.4629 101.499 93.7259 100.495 94.4961C99.3161 95.4013 96.0675 96.1314 96.0638 96.1314Z"
    fill="#2E353A"/>
  <path
    d="M92.9393 88.2726C92.9101 88.2726 92.5013 86.0204 92.4903 85.8744C92.3808 84.1844 93.1656 80.8518 94.9286 80.1583C95.2247 80.0502 95.5401 80.0058 95.8545 80.0279C96.1689 80.05 96.475 80.1382 96.753 80.2867C97.031 80.4351 97.2745 80.6405 97.4677 80.8895C97.661 81.1385 97.7995 81.4254 97.8743 81.7315C98.2393 83.02 97.5458 84.5166 96.7793 85.524C95.8886 86.7103 92.9393 88.2726 92.9393 88.2726Z"
    fill="#2E353A"/>
  <path
    d="M99.1445 125.176C99.181 125.176 98.1845 123.091 98.1042 122.967C97.2026 121.536 94.6147 119.295 92.7786 119.766C92.476 119.853 92.1949 120.002 91.9537 120.204C91.7125 120.407 91.5167 120.657 91.379 120.94C91.2412 121.224 91.1646 121.532 91.1542 121.847C91.1438 122.162 91.1998 122.475 91.3186 122.767C91.7785 124.026 93.2167 124.833 94.4285 125.201C95.8594 125.636 99.1445 125.176 99.1445 125.176Z"
    fill="#2E353A"/>
  <path
    d="M97.2282 115.152C97.2647 115.152 95.9616 113.24 95.8667 113.13C94.7717 111.849 91.8515 110.027 90.1177 110.768C89.8308 110.899 89.5747 111.089 89.3663 111.326C89.1578 111.563 89.0016 111.84 88.9079 112.142C88.8142 112.443 88.7851 112.76 88.8225 113.073C88.8598 113.386 88.9629 113.688 89.1249 113.959C89.7673 115.13 91.315 115.711 92.567 115.893C94.0343 116.105 97.2282 115.152 97.2282 115.152Z"
    fill="#2E353A"/>
  <path
    d="M96.677 105.333C96.7099 105.333 95.4104 103.421 95.3155 103.311C94.2205 102.03 91.3003 100.209 89.5629 100.953C89.2729 101.083 89.0138 101.273 88.8027 101.511C88.5916 101.748 88.4334 102.028 88.3385 102.331C88.2437 102.635 88.2142 102.955 88.2523 103.27C88.2903 103.586 88.3949 103.89 88.5591 104.162C89.2051 105.333 90.7492 105.914 92.0048 106.093C93.4831 106.29 96.677 105.337 96.677 105.333Z"
    fill="#2E353A"/>
  <path
    d="M95.7316 96.3248C95.7681 96.3248 94.465 94.4121 94.3701 94.3026C93.2751 93.0214 90.355 91.2 88.6211 91.941C88.3342 92.0719 88.0782 92.2618 87.8697 92.4984C87.6612 92.735 87.505 93.013 87.4113 93.3141C87.3176 93.6152 87.2885 93.9327 87.3259 94.2458C87.3633 94.5589 87.4663 94.8606 87.6283 95.1312C88.2707 96.3066 89.8184 96.8833 91.0704 97.0658C92.5377 97.2775 95.7316 96.3248 95.7316 96.3248Z"
    fill="#2E353A"/>
  <path
    d="M92.9612 88.5682C92.994 88.5682 91.5011 86.8089 91.3843 86.7067C90.1432 85.5569 87.0625 84.0639 85.409 84.9947C85.1375 85.1564 84.9033 85.3736 84.7217 85.6322C84.5401 85.8907 84.4152 86.1847 84.3552 86.495C84.2952 86.8052 84.3015 87.1246 84.3737 87.4322C84.4458 87.7398 84.5822 88.0287 84.7739 88.2799C85.544 89.3749 87.1428 89.7837 88.424 89.8239C89.8914 89.8677 92.9612 88.5719 92.9612 88.5682Z"
    fill="#2E353A"/>
  <path
    d="M88.9788 82.1586C89.0117 82.1586 88.4861 79.9174 88.4386 79.7787C87.8655 78.1835 85.8214 75.4423 83.9234 75.5043C83.6088 75.5234 83.3017 75.6086 83.0222 75.7542C82.7427 75.8999 82.497 76.1027 82.3011 76.3496C82.1051 76.5965 81.9634 76.8818 81.8851 77.1871C81.8067 77.4924 81.7936 77.8108 81.8464 78.1215C82.0289 79.4502 83.259 80.5452 84.3614 81.1657C85.6572 81.8958 88.9752 82.1586 88.9788 82.1586Z"
    fill="#2E353A"/>
  <path
    d="M103.302 136.977C103.302 136.977 102.911 136.082 102.298 134.516C101.685 132.95 100.838 130.691 99.9402 127.946C99.4913 126.574 99.035 125.077 98.5897 123.482C98.3634 122.679 98.159 121.872 97.9363 121.007C97.8414 120.584 97.7501 120.157 97.6552 119.726C97.5603 119.295 97.4946 118.839 97.4143 118.39C97.1262 116.549 96.9398 114.693 96.8559 112.831C96.7646 110.936 96.7281 109.02 96.6807 107.104C96.6332 105.187 96.5857 103.278 96.4324 101.409C96.2987 99.5792 96.0365 97.7606 95.6477 95.9671C95.256 94.2968 94.7161 92.6648 94.0343 91.0905C93.4254 89.6741 92.7344 88.2944 91.9647 86.9585C91.2602 85.7065 90.5374 84.6078 89.8914 83.6369C89.2453 82.6659 88.6394 81.8483 88.132 81.1803C87.1172 79.8444 86.4821 79.1289 86.4821 79.1289C86.4821 79.1289 87.1318 79.8334 88.1794 81.1438C88.6978 81.8045 89.3183 82.6039 90.0045 83.5675C90.6907 84.5312 91.4208 85.6116 92.1545 86.8527C92.9635 88.1804 93.6947 89.5539 94.3446 90.9664C95.0726 92.5445 95.6601 94.1836 96.1003 95.8649C96.5335 97.6663 96.8397 99.4959 97.0165 101.34C97.2099 103.227 97.3085 105.147 97.3815 107.064C97.4545 108.98 97.5457 110.889 97.6771 112.761C97.8001 114.587 98.0219 116.405 98.3415 118.207C98.4327 118.642 98.4875 119.065 98.6006 119.496C98.7138 119.927 98.8087 120.35 98.9109 120.77C99.1372 121.569 99.3672 122.402 99.6081 123.179C100.079 124.745 100.564 126.216 101.039 127.559C101.981 130.26 102.864 132.472 103.51 134.013C104.156 135.553 104.554 136.407 104.554 136.407C104.614 136.565 104.612 136.74 104.549 136.896C104.485 137.053 104.365 137.179 104.212 137.251C104.058 137.322 103.884 137.333 103.723 137.28C103.563 137.228 103.428 137.117 103.346 136.969L103.302 136.977Z"
    fill="#2E353A"/>
  <path
    d="M111.898 122.829C111.865 122.829 112.38 120.584 112.427 120.445C112.99 118.85 115.019 116.094 116.913 116.145C117.228 116.162 117.536 116.245 117.816 116.389C118.096 116.532 118.343 116.734 118.541 116.979C118.738 117.225 118.881 117.509 118.961 117.814C119.041 118.119 119.056 118.437 119.005 118.748C118.833 120.076 117.611 121.182 116.512 121.81C115.205 122.548 111.92 122.829 111.898 122.829Z"
    fill="#2E353A"/>
  <path
    d="M112.11 113.696C112.077 113.696 112.924 111.55 112.993 111.422C113.793 109.925 116.213 107.509 118.078 107.848C118.386 107.913 118.678 108.042 118.933 108.226C119.189 108.411 119.403 108.647 119.561 108.92C119.719 109.193 119.817 109.496 119.851 109.809C119.884 110.123 119.851 110.439 119.753 110.739C119.388 112.028 118.005 112.929 116.833 113.386C115.435 113.919 112.114 113.696 112.11 113.696Z"
    fill="#2E353A"/>
  <path
    d="M114.475 103.545C114.439 103.545 115.286 101.399 115.355 101.271C116.154 99.7779 118.578 97.3615 120.443 97.6973C120.752 97.7622 121.043 97.8914 121.299 98.0764C121.554 98.2615 121.768 98.4983 121.925 98.7714C122.083 99.0445 122.181 99.3477 122.214 99.6614C122.247 99.9751 122.213 100.292 122.115 100.592C121.75 101.877 120.367 102.782 119.195 103.238C117.815 103.771 114.475 103.545 114.475 103.545Z"
    fill="#2E353A"/>
  <path
    d="M116.267 93.861C116.231 93.861 117.078 91.7183 117.147 91.5869C117.946 90.094 120.37 87.6776 122.235 88.0171C122.544 88.0815 122.835 88.2103 123.091 88.395C123.346 88.5797 123.56 88.8161 123.717 89.089C123.875 89.3618 123.973 89.6648 124.006 89.9782C124.039 90.2917 124.005 90.6085 123.907 90.908C123.542 92.1965 122.159 93.0981 120.987 93.5544C119.585 94.0873 116.267 93.861 116.267 93.861Z"
    fill="#2E353A"/>
  <path
    d="M115.512 85.4328C115.475 85.4328 115.727 83.1514 115.76 83.0091C116.125 81.3555 117.833 78.3843 119.724 78.22C120.039 78.2013 120.353 78.2489 120.648 78.3598C120.943 78.4707 121.211 78.6424 121.436 78.8638C121.66 79.0851 121.835 79.3512 121.949 79.6447C122.064 79.9381 122.115 80.2524 122.1 80.5671C122.1 81.9067 121.005 83.1441 119.976 83.8924C118.779 84.7721 115.512 85.4328 115.512 85.4328Z"
    fill="#2E353A"/>
  <path
    d="M110.978 122.58C111.011 122.58 110.646 120.31 110.613 120.171C110.157 118.54 108.314 115.656 106.419 115.583C106.104 115.579 105.791 115.642 105.502 115.768C105.212 115.893 104.953 116.078 104.739 116.311C104.526 116.543 104.364 116.818 104.265 117.117C104.165 117.416 104.129 117.733 104.16 118.047C104.244 119.383 105.394 120.565 106.448 121.263C107.682 122.084 110.975 122.58 110.978 122.58Z"
    fill="#2E353A"/>
  <path
    d="M111.979 112.426C112.015 112.426 111.307 110.236 111.248 110.097C110.548 108.553 108.288 105.983 106.405 106.198C106.093 106.243 105.793 106.353 105.527 106.521C105.26 106.689 105.031 106.911 104.856 107.173C104.681 107.435 104.563 107.731 104.509 108.042C104.456 108.352 104.469 108.671 104.547 108.976C104.832 110.283 106.149 111.28 107.295 111.809C108.635 112.433 111.975 112.426 111.979 112.426Z"
    fill="#2E353A"/>
  <path
    d="M114.242 102.855C114.274 102.855 113.57 100.665 113.512 100.526C112.814 98.9858 110.555 96.4161 108.671 96.6314C108.358 96.6754 108.058 96.785 107.79 96.9531C107.522 97.1212 107.293 97.3441 107.117 97.607C106.941 97.87 106.823 98.1671 106.77 98.479C106.717 98.7908 106.731 99.1103 106.81 99.4165C107.098 100.727 108.412 101.72 109.562 102.249C110.909 102.862 114.238 102.855 114.242 102.855Z"
    fill="#2E353A"/>
  <path
    d="M115.895 93.9413C115.932 93.9413 115.223 91.7512 115.165 91.6125C114.464 90.0721 112.208 87.4987 110.321 87.7178C110.009 87.7618 109.71 87.8712 109.443 88.0386C109.177 88.2061 108.948 88.428 108.773 88.6898C108.597 88.9515 108.479 89.2473 108.426 89.5579C108.373 89.8684 108.385 90.1866 108.463 90.4919C108.748 91.8023 110.066 92.7951 111.216 93.3244C112.563 93.9413 115.895 93.9413 115.895 93.9413Z"
    fill="#2E353A"/>
  <path
    d="M115.442 85.7248C115.479 85.7248 114.537 83.6186 114.461 83.4909C113.595 82.0308 111.07 79.7276 109.219 80.151C108.914 80.2292 108.628 80.3709 108.381 80.5669C108.134 80.763 107.932 81.0089 107.786 81.2886C107.641 81.5683 107.556 81.8756 107.538 82.1903C107.519 82.505 107.567 82.82 107.679 83.1149C108.106 84.3815 109.522 85.2247 110.723 85.6262C112.132 86.0971 115.442 85.7248 115.442 85.7248Z"
    fill="#2E353A"/>
  <path
    d="M113.449 78.4464C113.479 78.4464 113.614 76.1577 113.603 76.0117C113.508 74.318 112.329 71.1059 110.493 70.6277C110.186 70.5568 109.867 70.5514 109.558 70.6117C109.249 70.672 108.956 70.7968 108.698 70.9779C108.44 71.159 108.223 71.3924 108.061 71.6629C107.899 71.9333 107.796 72.2348 107.759 72.5477C107.554 73.8727 108.423 75.2744 109.303 76.1979C110.336 77.2491 113.446 78.4427 113.449 78.4464Z"
    fill="#2E353A"/>
  <path
    d="M111.599 135.075C111.599 135.075 111.475 134.108 111.332 132.429C111.19 130.749 111.019 128.348 110.942 125.46C110.902 124 110.887 122.453 110.916 120.795C110.916 119.963 110.96 119.131 110.993 118.24C111.022 117.81 111.055 117.372 111.084 116.934C111.113 116.496 111.186 116.036 111.234 115.583C111.484 113.74 111.834 111.913 112.281 110.108C112.73 108.264 113.241 106.414 113.742 104.567C114.242 102.72 114.734 100.873 115.121 99.0332C115.513 97.2412 115.778 95.4238 115.913 93.5945C116.007 91.8808 115.949 90.1621 115.738 88.4587C115.558 86.9269 115.287 85.407 114.928 83.907C114.607 82.5053 114.231 81.246 113.888 80.1327C113.544 79.0194 113.19 78.0594 112.898 77.2783C112.303 75.7087 111.898 74.84 111.898 74.84C111.898 74.84 112.322 75.7014 112.949 77.2564C113.263 78.0339 113.625 78.9866 114.004 80.0926C114.384 81.1986 114.778 82.4579 115.129 83.8559C115.523 85.3576 115.829 86.8811 116.045 88.4186C116.296 90.1391 116.394 91.8786 116.337 93.6164C116.239 95.4722 116.011 97.3189 115.654 99.1427C115.289 101.004 114.851 102.873 114.388 104.735C113.924 106.596 113.457 108.451 113.052 110.283C112.649 112.068 112.345 113.874 112.139 115.693C112.103 116.134 112.037 116.554 112.022 116.999C112.008 117.445 111.978 117.879 111.957 118.31C111.957 119.142 111.931 120.003 111.957 120.817C111.957 122.456 112.011 124.004 112.084 125.431C112.219 128.289 112.449 130.665 112.621 132.319C112.792 133.973 112.938 134.914 112.938 134.914C112.951 135.001 112.947 135.089 112.925 135.174C112.904 135.259 112.866 135.338 112.814 135.408C112.762 135.479 112.696 135.538 112.621 135.583C112.546 135.628 112.463 135.657 112.376 135.67C112.29 135.683 112.202 135.678 112.117 135.657C112.032 135.635 111.952 135.597 111.882 135.545C111.812 135.493 111.753 135.428 111.708 135.352C111.663 135.277 111.633 135.194 111.621 135.108V135.089L111.599 135.075Z"
    fill="#2E353A"/>
  <path d="M115.833 159.21H100.378L96.0309 133.9H120.18L115.833 159.21Z" fill="#2E353A"/>
  <path
    d="M143.056 161.604C161.617 161.604 176.663 146.558 176.663 127.997C176.663 109.437 161.617 94.3902 143.056 94.3902C124.495 94.3902 109.449 109.437 109.449 127.997C109.449 146.558 124.495 161.604 143.056 161.604Z"
    fill="#FFA2C3"/>
  <path
    d="M143.056 161.772C136.376 161.772 129.846 159.791 124.292 156.08C118.737 152.369 114.408 147.094 111.852 140.922C109.296 134.751 108.627 127.96 109.93 121.408C111.233 114.856 114.45 108.838 119.173 104.115C123.897 99.3913 129.915 96.1745 136.467 94.8713C143.018 93.5681 149.809 94.237 155.981 96.7933C162.152 99.3496 167.427 103.679 171.139 109.233C174.85 114.787 176.831 121.317 176.831 127.997C176.82 136.952 173.258 145.536 166.927 151.868C160.595 158.2 152.01 161.761 143.056 161.772ZM143.056 94.5545C136.441 94.5545 129.976 96.5159 124.476 100.191C118.976 103.865 114.69 109.088 112.159 115.199C109.628 121.31 108.965 128.034 110.256 134.522C111.546 141.009 114.731 146.968 119.408 151.645C124.085 156.322 130.044 159.507 136.531 160.797C143.019 162.088 149.743 161.425 155.854 158.894C161.965 156.363 167.188 152.077 170.862 146.577C174.537 141.077 176.499 134.612 176.499 127.997C176.49 119.13 172.964 110.629 166.694 104.359C160.424 98.0894 151.923 94.5632 143.056 94.5545Z"
    fill="#2E353A"/>
  <path
    d="M188.759 99.7341C188.759 99.7341 187.664 101.771 187.504 102.056C187.343 102.34 186.756 103.881 186.931 104.246C187.106 104.611 187.274 104.819 187.621 104.877C187.967 104.936 188.252 105.567 188.825 105.68C189.186 105.752 189.552 105.791 189.92 105.797C190.01 105.863 190.114 105.908 190.225 105.928C190.335 105.947 190.448 105.941 190.555 105.91C190.898 105.797 191.187 105.625 191.417 104.647C191.557 104.163 191.596 103.654 191.53 103.154L191.428 101.18L188.759 99.7341Z"
    fill="white"/>
  <path
    d="M190.351 106.122C190.177 106.12 190.008 106.069 189.862 105.976C189.501 105.966 189.142 105.926 188.789 105.855C188.461 105.766 188.167 105.58 187.945 105.322C187.847 105.205 187.722 105.112 187.58 105.052C187.393 105.01 187.219 104.921 187.075 104.794C186.932 104.666 186.823 104.504 186.759 104.322C186.522 103.851 187.212 102.176 187.34 101.964C187.507 101.683 188.581 99.6684 188.592 99.6465C188.616 99.6044 188.655 99.573 188.701 99.5589C188.746 99.541 188.795 99.541 188.84 99.5589L191.504 101.001C191.532 101.016 191.555 101.039 191.571 101.065C191.588 101.092 191.597 101.123 191.599 101.154L191.701 103.125C191.768 103.643 191.727 104.168 191.581 104.669C191.355 105.644 191.059 105.914 190.599 106.067C190.52 106.098 190.436 106.117 190.351 106.122ZM188.836 99.9823C188.573 100.471 187.807 101.906 187.661 102.15C187.46 102.483 186.978 103.932 187.091 104.158C187.274 104.523 187.413 104.654 187.65 104.695C187.866 104.759 188.058 104.886 188.201 105.06C188.373 105.267 188.603 105.42 188.862 105.498C189.209 105.565 189.562 105.603 189.917 105.611C189.959 105.611 190 105.625 190.033 105.651C190.099 105.699 190.174 105.731 190.254 105.745C190.333 105.76 190.415 105.756 190.493 105.735C190.745 105.651 191.008 105.563 191.223 104.603C191.356 104.144 191.394 103.662 191.336 103.187L191.238 101.289L188.836 99.9823Z"
    fill="#2E353A"/>
  <path
    d="M195.089 154.578C195.089 154.578 193.53 157.115 193.53 157.728C193.53 158.341 195.677 159.469 196.596 159.878C197.516 160.286 199.151 160.608 200.48 160.798C201.809 160.987 204.568 161.528 203.765 160.491C202.962 159.454 198.027 156.724 197.823 156.399C197.57 156.096 197.286 155.819 196.976 155.574L195.089 154.578Z"
    fill="white"/>
  <path
    d="M203.101 161.287C202.322 161.255 201.546 161.168 200.779 161.027L200.451 160.976C198.597 160.692 197.275 160.378 196.523 160.042C196.392 159.984 193.348 158.622 193.348 157.728C193.348 157.082 194.771 154.746 194.932 154.479C194.957 154.44 194.995 154.412 195.04 154.4C195.084 154.388 195.132 154.393 195.173 154.413L197.06 155.414C197.399 155.673 197.706 155.97 197.976 156.301C198.064 156.403 198.867 156.906 199.644 157.396C201.301 158.429 203.36 159.717 203.893 160.381C204.086 160.622 204.134 160.83 204.032 161.002C203.93 161.173 203.608 161.287 203.101 161.287ZM195.144 154.819C194.552 155.797 193.702 157.341 193.702 157.739C193.702 158.137 195.264 159.1 196.658 159.721C197.388 160.042 198.673 160.345 200.498 160.626L200.823 160.677C201.495 160.783 203.539 161.108 203.707 160.823C203.707 160.823 203.707 160.75 203.597 160.615C203.105 159.998 200.987 158.673 199.44 157.695C198.195 156.917 197.75 156.633 197.659 156.498C197.416 156.209 197.145 155.946 196.848 155.713L195.144 154.819Z"
    fill="#2E353A"/>
  <path
    d="M197.531 158.575L198.078 159.392C198.667 160.286 199.467 161.02 200.407 161.531C201.867 162.32 204.116 163.221 206.079 162.681C209.299 161.794 201.196 156.906 201.196 156.906C201.196 156.906 198.308 158.914 197.531 158.575Z"
    fill="white"/>
  <path
    d="M204.802 163.028C203.181 163.028 201.517 162.349 200.32 161.692C199.355 161.168 198.533 160.416 197.925 159.502L197.377 158.68C197.355 158.649 197.342 158.611 197.342 158.573C197.342 158.534 197.355 158.496 197.377 158.465C197.403 158.435 197.438 158.413 197.477 158.404C197.516 158.395 197.556 158.398 197.593 158.414C198.064 158.618 199.914 157.571 201.079 156.764C201.108 156.744 201.142 156.734 201.177 156.734C201.212 156.734 201.247 156.744 201.276 156.764C201.885 157.129 207.229 160.414 206.999 162.079C206.948 162.444 206.634 162.721 206.116 162.867C205.687 162.979 205.245 163.033 204.802 163.028ZM197.889 158.779L198.228 159.294C198.802 160.16 199.579 160.873 200.491 161.371C201.98 162.174 204.141 163.024 206.032 162.506C206.601 162.345 206.638 162.097 206.649 162.017C206.813 160.823 202.864 158.14 201.199 157.125C200.619 157.512 198.874 158.662 197.889 158.779Z"
    fill="#2E353A"/>
  <path
    d="M198.458 158.961C199.345 160.303 200.689 161.277 202.24 161.703C204.886 162.458 205.645 162.269 206.211 161.513"
    fill="white"/>
  <path
    d="M204.765 162.367C203.89 162.318 203.025 162.153 202.192 161.878C200.592 161.446 199.207 160.44 198.301 159.053C198.289 159.032 198.281 159.009 198.277 158.986C198.274 158.962 198.275 158.938 198.281 158.915C198.287 158.892 198.298 158.87 198.313 158.851C198.328 158.832 198.346 158.816 198.367 158.805C198.409 158.78 198.459 158.774 198.506 158.786C198.553 158.798 198.593 158.829 198.619 158.87C199.486 160.166 200.789 161.108 202.291 161.528C204.871 162.258 205.576 162.075 206.065 161.403C206.095 161.366 206.138 161.341 206.185 161.334C206.233 161.327 206.281 161.339 206.32 161.367C206.359 161.396 206.385 161.439 206.392 161.487C206.398 161.535 206.386 161.584 206.357 161.622C206.178 161.873 205.938 162.073 205.659 162.204C205.38 162.334 205.072 162.39 204.765 162.367Z"
    fill="#2E353A"/>
  <path d="M193.731 157.261C193.731 157.261 196.651 159.352 198.078 159.392L193.731 157.261Z" fill="white"/>
  <path
    d="M198.064 159.575C196.604 159.535 193.738 157.494 193.618 157.41C193.579 157.381 193.554 157.338 193.546 157.291C193.539 157.243 193.55 157.194 193.578 157.155C193.591 157.135 193.608 157.118 193.629 157.105C193.649 157.093 193.671 157.084 193.694 157.08C193.718 157.076 193.742 157.076 193.765 157.082C193.788 157.087 193.81 157.097 193.83 157.111C193.859 157.133 196.724 159.173 198.075 159.21C198.123 159.212 198.169 159.233 198.203 159.268C198.236 159.304 198.255 159.351 198.254 159.4C198.253 159.423 198.247 159.447 198.237 159.469C198.227 159.491 198.213 159.51 198.195 159.526C198.177 159.543 198.157 159.555 198.134 159.564C198.112 159.572 198.088 159.576 198.064 159.575Z"
    fill="#2E353A"/>
  <path
    d="M187.391 100.435C187.391 100.435 189.982 104.731 190.537 105.728C191.092 106.724 198.086 114.722 200.86 121.606C203.634 128.49 206.302 134.703 206.189 136.703C206.076 138.703 196.969 155.574 196.969 155.574L195.082 154.578C195.082 154.578 197.965 138.699 197.637 137.035C197.308 135.371 187.113 118.828 187.113 118.828C187.113 118.828 182.339 115.499 180.342 111.612"
    fill="#2E353A"/>
  <path
    d="M187.759 111.17C187.759 111.17 186.318 114.276 186.318 114.722C186.318 115.167 194.421 139.035 196.753 144.474C198.23 147.958 199.526 151.515 200.637 155.132C200.637 155.132 201.528 156.228 200.86 157.352C200.192 158.476 197.531 159.239 196.976 158.239C196.421 157.239 190.979 152.033 188.65 146.806C186.321 141.579 182.989 132.706 181.098 129.377C178.607 125.115 176.384 120.702 174.44 116.163C171.994 110.393 169.479 104.136 169.479 104.136C172.776 104.412 176.094 104.04 179.247 103.041C184.357 101.377 186.548 98.1901 186.548 98.1901C186.548 98.1901 187.847 101.512 188.179 102.154"
    fill="#2E353A"/>
  <path
    d="M188.522 120.544C188.497 120.543 188.472 120.535 188.452 120.521C188.431 120.507 188.415 120.487 188.405 120.463L185.85 113.82C185.841 113.795 185.84 113.769 185.847 113.743C185.853 113.718 185.867 113.695 185.887 113.678L188.749 111.225C188.773 111.202 188.805 111.19 188.838 111.19C188.871 111.19 188.903 111.202 188.927 111.225C188.95 111.248 188.962 111.28 188.962 111.312C188.962 111.345 188.95 111.376 188.927 111.4L186.131 113.798L188.654 120.368C188.666 120.399 188.665 120.434 188.652 120.465C188.639 120.495 188.615 120.52 188.584 120.533L188.522 120.544Z"
    fill="white"/>
  <path
    d="M185.963 113.897C185.932 113.897 185.902 113.885 185.879 113.864C185.867 113.852 185.857 113.838 185.85 113.822C185.843 113.807 185.839 113.79 185.839 113.773C185.839 113.754 185.839 111.75 184.941 110.487C184.719 110.163 184.54 109.907 184.39 109.699C183.923 109.035 183.781 108.834 183.697 108.502C183.639 108.113 183.639 107.718 183.697 107.33C183.703 107.298 183.721 107.269 183.747 107.249C183.774 107.23 183.806 107.221 183.839 107.224C183.855 107.226 183.871 107.232 183.885 107.24C183.9 107.249 183.912 107.26 183.922 107.273C183.932 107.286 183.939 107.301 183.943 107.318C183.947 107.334 183.947 107.35 183.945 107.367C183.893 107.724 183.893 108.086 183.945 108.443C184.018 108.728 184.142 108.903 184.602 109.557C184.748 109.765 184.93 110.02 185.153 110.345C185.963 111.509 186.077 113.181 186.095 113.659L191.282 113.459C191.315 113.459 191.347 113.471 191.371 113.493C191.395 113.516 191.41 113.546 191.413 113.579C191.414 113.596 191.412 113.612 191.406 113.627C191.401 113.643 191.392 113.657 191.38 113.669C191.369 113.681 191.356 113.691 191.34 113.697C191.325 113.704 191.309 113.707 191.293 113.707L185.978 113.911L185.963 113.897Z"
    fill="white"/>
  <path
    d="M203.345 137.528C201.035 137.528 198.1 136.031 197.969 135.966C197.94 135.95 197.918 135.924 197.908 135.892C197.899 135.861 197.902 135.827 197.918 135.798C197.925 135.783 197.935 135.77 197.948 135.759C197.96 135.748 197.975 135.74 197.99 135.735C198.006 135.73 198.022 135.728 198.039 135.729C198.055 135.731 198.071 135.735 198.086 135.743C198.118 135.761 201.455 137.462 203.74 137.261C203.756 137.26 203.773 137.262 203.789 137.267C203.805 137.272 203.819 137.28 203.832 137.291C203.845 137.302 203.855 137.315 203.862 137.33C203.87 137.345 203.874 137.361 203.875 137.378C203.876 137.394 203.874 137.411 203.87 137.427C203.865 137.442 203.857 137.457 203.846 137.469C203.836 137.482 203.823 137.492 203.808 137.5C203.794 137.507 203.778 137.512 203.762 137.513C203.627 137.524 203.488 137.528 203.345 137.528Z"
    fill="white"/>
  <path
    d="M203.035 139.455H203.006C200.958 138.94 198.659 137.057 198.56 136.977C198.538 136.953 198.525 136.922 198.525 136.889C198.525 136.856 198.538 136.825 198.56 136.801C198.57 136.789 198.583 136.778 198.598 136.77C198.612 136.762 198.628 136.757 198.644 136.756C198.66 136.754 198.677 136.756 198.692 136.76C198.708 136.765 198.723 136.773 198.735 136.783C198.757 136.801 201.09 138.714 203.083 139.21C203.099 139.215 203.113 139.222 203.126 139.232C203.139 139.242 203.15 139.255 203.159 139.269C203.167 139.283 203.172 139.299 203.174 139.315C203.176 139.331 203.175 139.348 203.17 139.364C203.163 139.393 203.146 139.419 203.121 139.436C203.096 139.453 203.065 139.46 203.035 139.455Z"
    fill="white"/>
  <path
    d="M185.861 111.955C185.841 111.955 185.822 111.95 185.804 111.941C185.786 111.932 185.771 111.92 185.759 111.904C185.749 111.89 185.743 111.875 185.739 111.859C185.736 111.842 185.735 111.825 185.738 111.809C185.741 111.793 185.748 111.777 185.757 111.763C185.766 111.75 185.778 111.738 185.792 111.728C186.285 111.385 187.066 110.725 187.066 110.4C187.066 110.184 186.799 109.929 186.515 109.67C186.2 109.407 185.939 109.084 185.748 108.721C185.562 108.286 184.894 106.582 185.018 106.166C185.023 106.15 185.031 106.136 185.042 106.123C185.052 106.111 185.065 106.1 185.08 106.093C185.094 106.085 185.11 106.081 185.127 106.08C185.143 106.078 185.159 106.08 185.175 106.085C185.207 106.096 185.233 106.119 185.248 106.149C185.263 106.179 185.266 106.214 185.255 106.246C185.179 106.469 185.577 107.706 185.967 108.611C186.146 108.941 186.386 109.234 186.675 109.473C187.015 109.798 187.307 110.075 187.307 110.396C187.307 110.958 186.066 111.831 185.923 111.929C185.905 111.943 185.884 111.952 185.861 111.955Z"
    fill="white"/>
  <path
    d="M173.699 112.67C173.673 112.671 173.647 112.664 173.625 112.649C173.603 112.634 173.586 112.613 173.577 112.588C173.568 112.563 173.567 112.536 173.575 112.511C173.582 112.486 173.598 112.464 173.619 112.448L174.641 111.63C175.623 110.849 176.229 108.852 176.236 108.83C176.246 108.799 176.268 108.772 176.297 108.756C176.327 108.741 176.361 108.737 176.393 108.746C176.424 108.756 176.451 108.778 176.467 108.808C176.482 108.837 176.486 108.871 176.477 108.903C176.451 108.987 175.838 110.995 174.798 111.823L173.776 112.641C173.754 112.659 173.727 112.67 173.699 112.67Z"
    fill="white"/>
  <path
    d="M197.965 158.735C197.947 158.735 197.929 158.73 197.913 158.722C197.896 158.714 197.882 158.702 197.87 158.688C196.564 157.086 195.383 155.384 194.341 153.599C192.928 151.073 188.865 144.164 188.822 144.109C188.445 143.278 188.166 142.405 187.989 141.51C187.964 141.371 187.946 141.244 187.927 141.145C187.792 140.225 187.734 139.846 186.511 139.057C185.288 138.269 185.212 136.896 185.109 135.425C185.087 135.079 185.062 134.721 185.022 134.367C184.857 132.907 180.981 126.336 178.152 121.562C177.51 120.467 176.926 119.489 176.451 118.675C173.918 114.316 172.166 108.586 172.148 108.527C172.138 108.495 172.142 108.461 172.158 108.432C172.173 108.402 172.2 108.38 172.232 108.37C172.247 108.365 172.264 108.364 172.28 108.365C172.296 108.367 172.312 108.372 172.326 108.379C172.341 108.387 172.353 108.398 172.363 108.411C172.373 108.424 172.381 108.438 172.385 108.454C172.403 108.513 174.148 114.218 176.667 118.547C177.141 119.361 177.725 120.35 178.368 121.434C181.211 126.234 185.102 132.812 185.27 134.338C185.31 134.703 185.336 135.068 185.361 135.411C185.46 136.871 185.544 138.141 186.646 138.849C187.964 139.696 188.029 140.138 188.175 141.105C188.175 141.225 188.212 141.349 188.234 141.488C188.407 142.357 188.679 143.203 189.044 144.01C189.077 144.073 193.143 150.982 194.56 153.501C195.596 155.271 196.767 156.959 198.064 158.549C198.074 158.562 198.082 158.576 198.087 158.592C198.091 158.608 198.093 158.624 198.091 158.64C198.089 158.657 198.085 158.672 198.077 158.687C198.069 158.701 198.058 158.714 198.046 158.724C198.021 158.736 197.992 158.74 197.965 158.735Z"
    fill="white"/>
  <path
    d="M169.479 104.136C169.479 104.136 169.713 106.72 170.735 107.538C171.757 108.356 174.823 109.071 179.014 108.268C183.204 107.465 187.803 103.888 188.212 102.647C188.621 101.406 186.54 98.1937 186.54 98.1937C186.54 98.1937 184.124 101.625 177.378 102.749C170.633 103.873 169.479 104.136 169.479 104.136Z"
    fill="white"/>
  <path
    d="M175.462 108.797C172.991 108.797 171.297 108.224 170.618 107.68C169.549 106.823 169.308 104.264 169.297 104.154C169.293 104.111 169.305 104.067 169.33 104.032C169.356 103.996 169.393 103.971 169.436 103.961C169.483 103.961 170.673 103.665 177.349 102.552C183.919 101.457 186.365 98.1061 186.391 98.0732C186.408 98.0496 186.43 98.0304 186.456 98.0171C186.482 98.0037 186.511 97.9967 186.54 97.9966C186.57 97.9972 186.599 98.0052 186.626 98.0199C186.652 98.0345 186.674 98.0554 186.69 98.0805C186.909 98.4164 188.807 101.417 188.384 102.691C187.935 104.034 183.229 107.615 179.046 108.432C177.866 108.669 176.666 108.791 175.462 108.797ZM169.68 104.282C169.749 104.844 170.045 106.75 170.848 107.396C171.761 108.126 174.684 108.914 178.977 108.075C183.197 107.25 187.675 103.669 188.04 102.574C188.329 101.705 187.15 99.5114 186.522 98.4967C185.872 99.2741 183.266 101.939 177.397 102.913C171.987 103.819 170.169 104.162 169.68 104.282Z"
    fill="#2E353A"/>
  <path
    d="M196.421 79.0851C194.753 77.9901 181.766 67.8719 180.543 67.4265C179.32 66.9812 176.893 67.4265 176.893 67.4265C176.893 67.4265 169.366 68.3464 167.789 68.9815C167.64 69.0399 164.249 70.9891 164.139 71.0913C162.916 72.0914 157.569 74.5516 156.131 77.6616C154.499 81.1803 168.837 102.366 169.505 104.14C170.173 105.914 173.673 106.352 176.893 105.906C180.112 105.461 182.937 104.811 185.27 102.143C185.693 101.612 186.047 101.029 186.325 100.409C186.658 99.7167 186.743 98.9306 186.566 98.1828C185.733 94.7151 183.609 84.7173 182.207 78.1069C184.544 79.6144 189.402 82.6769 192.227 83.7573C196.001 85.2174 198.889 84.2027 198.889 82.9799C198.889 81.7571 198.086 80.1948 196.421 79.0851Z"
    fill="white"/>
  <path
    d="M191.913 81.2424C189.688 81.0228 187.532 80.3428 185.584 79.2457C185.584 79.2457 188.471 77.9134 188.581 77.2455C188.69 76.5775 184.584 77.136 185.139 76.9133C185.693 76.6906 186.471 76.1358 185.139 76.1358C184.076 76.066 183.03 75.8422 182.032 75.4715L182.182 78.0959C183.452 78.9172 185.467 80.1911 187.489 81.3592C189.391 82.3592 191.35 83.2476 193.355 84.0202C193.355 84.0202 195.797 81.6877 191.913 81.2424Z"
    fill="#FFA2C3"/>
  <g style="mix-blend-mode:multiply">
    <path
      d="M176.867 105.903L177.28 105.844C178.17 105.414 179.678 105.144 181.145 104.779C183.365 104.224 180.923 104.224 177.258 102.337C173.593 100.449 172.148 97.6754 168.819 93.6785C165.49 89.6815 164.157 87.6813 164.825 87.2396C165.493 86.7979 163.493 86.7943 162.716 86.3489C161.938 85.9036 163.811 85.9073 165.38 84.3523C166.95 82.7973 162.38 84.6845 161.938 84.575C161.496 84.4655 162.38 83.02 162.38 83.02L159.16 86.3489L166.932 99.672L167.377 100.004L167.888 100.734L169.348 103.873C169.406 103.983 169.446 104.074 169.472 104.136C170.144 105.914 173.648 106.352 176.867 105.903Z"
      fill="#FFA2C3"/>
  </g>
  <path
    d="M162.15 74.8619C164.606 74.4969 171.454 78.4026 171.454 78.4026C167.691 75.8475 164.398 73.453 162.146 72.3725L157.996 75.2926L157.711 75.5591C158.193 75.4642 160.04 75.1612 162.15 74.8619Z"
    fill="#FFA2C3"/>
  <path opacity="0.5"
        d="M191.913 81.2424C189.688 81.0228 187.532 80.3428 185.584 79.2457C185.584 79.2457 188.471 77.9134 188.581 77.2455C188.69 76.5775 184.584 77.136 185.139 76.9133C185.693 76.6906 186.471 76.1358 185.139 76.1358C184.076 76.066 183.03 75.8422 182.032 75.4715L182.182 78.0959C183.452 78.9172 185.467 80.1911 187.489 81.3592C189.391 82.3592 191.35 83.2476 193.355 84.0202C193.355 84.0202 195.797 81.6877 191.913 81.2424Z"
        fill="white"/>
  <path opacity="0.5"
        d="M176.867 105.903L177.28 105.844C178.17 105.414 179.678 105.144 181.145 104.779C183.365 104.224 180.923 104.224 177.258 102.337C173.593 100.449 172.148 97.6754 168.819 93.6785C165.49 89.6815 164.157 87.6813 164.825 87.2396C165.493 86.7979 163.493 86.7943 162.716 86.3489C161.938 85.9036 163.811 85.9073 165.38 84.3523C166.95 82.7973 162.38 84.6845 161.938 84.575C161.496 84.4655 162.38 83.02 162.38 83.02L159.16 86.3489L166.932 99.672L167.377 100.004L167.888 100.734L169.348 103.873C169.406 103.983 169.446 104.074 169.472 104.136C170.144 105.914 173.648 106.352 176.867 105.903Z"
        fill="white"/>
  <path opacity="0.5"
        d="M162.15 74.8619C164.606 74.4969 171.454 78.4026 171.454 78.4026C167.691 75.8475 164.398 73.453 162.146 72.3725L157.996 75.2926L157.711 75.5591C158.193 75.4642 160.04 75.1612 162.15 74.8619Z"
        fill="white"/>
  <path
    d="M174.531 106.25C172.071 106.25 169.855 105.662 169.308 104.202C169.147 103.771 168.067 102.012 166.698 99.7998C160.883 90.3678 154.777 80.0889 155.941 77.5813C157.036 75.216 160.274 73.2631 162.416 71.971C162.962 71.6608 163.49 71.3195 163.997 70.9489C164.128 70.8431 167.527 68.8866 167.709 68.8136C169.293 68.1748 176.55 67.2842 176.86 67.2477C176.951 67.2294 179.353 66.7987 180.605 67.2477C181.415 67.5433 186.967 71.7447 191.428 75.1211C193.844 76.9461 195.928 78.5303 196.52 78.9245C198.381 80.1656 199.046 81.8228 199.046 82.9616C199.032 83.173 198.967 83.3777 198.854 83.5574C198.742 83.7371 198.587 83.8861 198.403 83.9909C197.326 84.721 194.972 84.9947 192.136 83.9106C190.154 83.1514 186.81 81.2789 182.452 78.4792C183.912 85.4328 185.916 94.7991 186.715 98.128C186.904 98.9173 186.815 99.7472 186.464 100.479C186.178 101.116 185.81 101.712 185.368 102.253C182.93 105.038 179.963 105.651 176.882 106.074C176.103 106.187 175.318 106.245 174.531 106.25ZM179.057 67.4119C178.339 67.4228 177.623 67.4874 176.915 67.6054C176.827 67.6054 169.384 68.5289 167.844 69.1494C167.643 69.2407 164.391 71.1132 164.227 71.2337C163.707 71.6156 163.165 71.9654 162.602 72.2812C160.5 73.5515 157.324 75.4715 156.273 77.7565C155.09 80.3116 162.843 92.8718 167.008 99.6282C168.494 102.037 169.476 103.643 169.651 104.092C170.297 105.815 173.83 106.155 176.842 105.739C179.853 105.322 182.751 104.727 185.106 102.037C185.52 101.519 185.865 100.95 186.135 100.344C186.449 99.6893 186.529 98.9472 186.361 98.2411C185.544 94.8392 183.485 85.148 182.003 78.1653C181.996 78.1296 181.999 78.0926 182.013 78.0589C182.027 78.0252 182.05 77.9962 182.08 77.9755C182.109 77.9559 182.144 77.9454 182.18 77.9454C182.216 77.9454 182.251 77.9559 182.28 77.9755C186.799 80.8956 190.252 82.8411 192.267 83.6077C194.961 84.6407 197.231 84.3961 198.195 83.7318C198.328 83.6569 198.441 83.5518 198.525 83.4249C198.61 83.2981 198.663 83.1531 198.681 83.0018C198.681 81.9578 198.06 80.4284 196.319 79.2676C195.717 78.8661 193.629 77.2856 191.209 75.4532C187 72.2703 181.24 67.9084 180.481 67.6309C180.022 67.4808 179.541 67.4068 179.057 67.4119Z"
    fill="#2E353A"/>
  <path
    d="M157.89 75.3875C157.89 75.3875 156.558 76.8476 156.039 77.5229C153.258 81.0964 144.406 92.5469 144.308 93.4704C144.209 94.3939 144.629 95.0144 146.794 95.8467C148.958 96.6789 163.438 82.1695 163.438 82.1695"
    fill="white"/>
  <g style="mix-blend-mode:multiply" opacity="0.8">
    <path
      d="M157.912 75.4313L157.726 75.5518C157.456 75.8511 156.872 76.5045 156.419 77.0411L149.696 85.8598C149.696 85.8598 149.487 86.0934 149.159 86.4804C146.637 89.8421 144.439 92.8754 144.304 93.4156C144.304 93.4339 144.304 93.4521 144.304 93.4667C144.217 94.3391 144.64 95.0035 146.794 95.832C147.177 95.9781 147.936 95.6495 148.933 95.0108C148.426 94.909 147.943 94.716 147.505 94.4413C146.283 93.6639 147.283 92.8864 147.283 92.8864C147.283 92.8864 148.871 93.5215 150.436 93.9486C150.761 93.704 151.101 93.4412 151.448 93.1638C151.114 92.9453 150.798 92.7012 150.502 92.4338C149.17 91.2146 148.06 89.9918 148.06 89.9918L158.237 75.7891L157.912 75.4313Z"
      fill="#FFA2C3"/>
  </g>
  <path opacity="0.5"
        d="M157.912 75.4313L157.726 75.5518C157.456 75.8511 156.872 76.5045 156.419 77.0411L149.696 85.8598C149.696 85.8598 149.487 86.0934 149.159 86.4804C146.637 89.8421 144.439 92.8754 144.304 93.4156C144.304 93.4339 144.304 93.4521 144.304 93.4667C144.217 94.3391 144.64 95.0035 146.794 95.832C147.177 95.9781 147.936 95.6495 148.933 95.0108C148.426 94.909 147.943 94.716 147.505 94.4413C146.283 93.6639 147.283 92.8864 147.283 92.8864C147.283 92.8864 148.871 93.5215 150.436 93.9486C150.761 93.704 151.101 93.4412 151.448 93.1638C151.114 92.9453 150.798 92.7012 150.502 92.4338C149.17 91.2146 148.06 89.9918 148.06 89.9918L158.237 75.7891L157.912 75.4313Z"
        fill="white"/>
  <path
    d="M146.962 96.0584C146.879 96.0593 146.798 96.0457 146.721 96.0182C144.706 95.2407 143.998 94.5581 144.118 93.4631C144.217 92.5542 151.535 83.0237 155.886 77.4243C156.404 76.76 157.693 75.3401 157.748 75.2817C157.763 75.2623 157.783 75.2463 157.805 75.2346C157.827 75.223 157.851 75.216 157.876 75.214C157.9 75.2121 157.925 75.2152 157.949 75.2232C157.972 75.2312 157.994 75.244 158.013 75.2607C158.031 75.2774 158.046 75.2977 158.056 75.3203C158.066 75.3429 158.072 75.3674 158.073 75.3923C158.073 75.4172 158.068 75.4419 158.059 75.4649C158.05 75.488 158.036 75.5088 158.018 75.5262C158.018 75.5262 156.682 76.9863 156.175 77.6506C149.144 86.6957 144.552 92.9192 144.494 93.5033C144.41 94.2807 144.771 94.8867 146.867 95.6933C148.374 96.2737 157.529 87.8528 163.314 82.0527C163.349 82.0183 163.395 81.999 163.444 81.999C163.492 81.999 163.539 82.0183 163.573 82.0527C163.608 82.0871 163.627 82.1337 163.627 82.1823C163.627 82.2309 163.608 82.2775 163.573 82.3119C162.124 83.7427 149.758 96.0584 146.962 96.0584Z"
    fill="#2E353A"/>
  <path d="M187.19 74.7232L182.182 78.0959C182.912 77.9937 186.372 76.7673 186.372 76.7673" fill="white"/>
  <path
    d="M182.182 78.2785C182.145 78.279 182.109 78.2681 182.079 78.2471C182.049 78.2261 182.026 78.1963 182.014 78.1617C181.999 78.1237 181.997 78.0815 182.009 78.0423C182.021 78.0031 182.046 77.9692 182.08 77.9463L187.091 74.5735C187.111 74.5598 187.133 74.5501 187.156 74.5451C187.18 74.54 187.204 74.5397 187.227 74.5441C187.251 74.5485 187.273 74.5576 187.293 74.5708C187.313 74.584 187.33 74.6011 187.343 74.621C187.37 74.6618 187.379 74.7114 187.37 74.7592C187.36 74.807 187.332 74.8491 187.292 74.8765L183.186 77.6433C184.445 77.2564 186.288 76.6067 186.314 76.5957C186.362 76.5798 186.415 76.5837 186.461 76.6066C186.506 76.6295 186.541 76.6696 186.557 76.718C186.573 76.7664 186.569 76.8192 186.546 76.8647C186.523 76.9102 186.483 76.9448 186.434 76.9607C186.292 77.0082 182.934 78.1945 182.207 78.2967L182.182 78.2785Z"
    fill="#2E353A"/>
  <path
    d="M186.986 76.8476C186.943 76.8468 186.902 76.8315 186.87 76.8042C186.837 76.777 186.815 76.7395 186.807 76.6979C186.798 76.6505 186.809 76.6017 186.836 76.562C186.863 76.5223 186.905 76.4951 186.953 76.4862L188.077 76.2818C188.125 76.2732 188.174 76.2837 188.214 76.311C188.255 76.3382 188.283 76.3802 188.292 76.4278C188.297 76.4518 188.297 76.4765 188.292 76.5005C188.287 76.5244 188.277 76.5471 188.263 76.5672C188.249 76.5873 188.231 76.6044 188.211 76.6174C188.19 76.6305 188.167 76.6392 188.143 76.6432L187.018 76.8476H186.986Z"
    fill="#2E353A"/>
  <path d="M149.882 89.9261C149.109 89.9031 148.34 90.0488 147.63 90.3532L149.882 89.9261Z" fill="white"/>
  <path
    d="M147.63 90.5466C147.581 90.5558 147.531 90.5454 147.49 90.5177C147.45 90.49 147.422 90.4472 147.412 90.3988C147.403 90.3504 147.414 90.3003 147.441 90.2596C147.469 90.2189 147.512 90.1908 147.56 90.1816C148.297 89.8651 149.095 89.7143 149.896 89.7399C149.92 89.7418 149.944 89.7484 149.965 89.7593C149.987 89.7702 150.006 89.7853 150.021 89.8036C150.037 89.8219 150.049 89.8431 150.056 89.866C150.063 89.8889 150.066 89.9131 150.064 89.9371C150.06 89.9851 150.036 90.0296 150 90.0609C149.963 90.0922 149.915 90.108 149.867 90.105C149.124 90.0834 148.385 90.2242 147.703 90.5174C147.681 90.5326 147.656 90.5426 147.63 90.5466Z"
    fill="#2E353A"/>
  <path d="M160.796 84.9217C160.796 84.9217 163.61 84.0603 164.355 83.4872L160.796 84.9217Z" fill="white"/>
  <path
    d="M160.796 85.1042C160.747 85.111 160.698 85.0983 160.659 85.0689C160.62 85.0394 160.594 84.9957 160.588 84.9473C160.581 84.8989 160.594 84.8498 160.623 84.8108C160.652 84.7717 160.696 84.746 160.745 84.7392C160.77 84.7392 163.533 83.8851 164.245 83.3376C164.283 83.3081 164.332 83.2951 164.38 83.3012C164.427 83.3074 164.471 83.3323 164.501 83.3704C164.529 83.409 164.542 83.4572 164.535 83.5048C164.529 83.5524 164.505 83.5958 164.468 83.6259C163.701 84.2136 160.967 85.0531 160.85 85.086C160.834 85.0958 160.815 85.102 160.796 85.1042Z"
    fill="#2E353A"/>
  <path d="M165.044 83.2025C165.044 83.2025 165.504 82.801 165.676 82.801L165.044 83.2025Z" fill="white"/>
  <path
    d="M165.044 83.385C165.018 83.3848 164.992 83.3792 164.969 83.3685C164.945 83.3578 164.923 83.3423 164.906 83.323C164.872 83.2882 164.853 83.2418 164.853 83.1934C164.853 83.145 164.872 83.0985 164.906 83.0638C165.112 82.8509 165.372 82.6971 165.658 82.6185C165.706 82.6185 165.752 82.6377 165.787 82.6719C165.821 82.7062 165.84 82.7526 165.84 82.801C165.839 82.8491 165.82 82.895 165.786 82.929C165.752 82.963 165.706 82.9826 165.658 82.9835C165.47 83.0783 165.297 83.2014 165.147 83.3485C165.117 83.3712 165.081 83.384 165.044 83.385Z"
    fill="#2E353A"/>
  <path
    d="M182.182 78.2785C182.137 78.2779 182.093 78.2609 182.06 78.2307C182.026 78.2005 182.005 78.1591 181.999 78.1142L181.543 73.4238C181.541 73.3998 181.543 73.3756 181.55 73.3525C181.557 73.3295 181.568 73.308 181.584 73.2894C181.599 73.2707 181.618 73.2553 181.639 73.2439C181.66 73.2325 181.683 73.2254 181.707 73.223C181.731 73.2206 181.756 73.2229 181.779 73.2299C181.802 73.2369 181.823 73.2483 181.842 73.2635C181.86 73.2788 181.876 73.2976 181.887 73.3188C181.899 73.34 181.906 73.3633 181.908 73.3873L182.368 78.0814C182.371 78.1051 182.368 78.1292 182.361 78.1521C182.354 78.175 182.343 78.1962 182.328 78.2146C182.312 78.233 182.293 78.2481 182.272 78.2591C182.251 78.2701 182.228 78.2766 182.204 78.2785H182.182Z"
    fill="#2E353A"/>
  <path
    d="M144.297 93.5179C144.297 93.5179 143.651 95.989 147.794 97.0147C149.761 97.5002 162.781 100.665 162.781 100.665C162.781 100.665 163.946 98.1682 163.281 98.1682C162.617 98.1682 150.612 90.1853 150.612 90.1853"
    fill="white"/>
  <path
    d="M146.232 96.4708L161.329 100.325L161.73 99.3691C161.73 99.3691 156.043 98.2302 152.492 96.4489C148.94 94.6677 148.714 95.2261 147.495 94.4523C146.275 93.6785 147.272 92.8973 147.272 92.8973C147.272 92.8973 150.604 94.2296 152.382 94.3391C154.16 94.4486 151.827 93.6748 150.495 92.452C149.944 91.9483 149.433 91.4409 149.035 91.0248L144.29 93.5142C144.29 93.5142 143.83 95.3064 146.232 96.4708Z"
    fill="#FFA2C3"/>
  <path opacity="0.5"
        d="M146.232 96.4708L161.329 100.325L161.73 99.3691C161.73 99.3691 156.043 98.2302 152.492 96.4489C148.94 94.6677 148.714 95.2261 147.495 94.4523C146.275 93.6785 147.272 92.8973 147.272 92.8973C147.272 92.8973 150.604 94.2296 152.382 94.3391C154.16 94.4486 151.827 93.6748 150.495 92.452C149.944 91.9483 149.433 91.4409 149.035 91.0248L144.29 93.5142C144.29 93.5142 143.83 95.3064 146.232 96.4708Z"
        fill="white"/>
  <path
    d="M162.781 100.877H162.738C162.738 100.877 149.717 97.6973 147.75 97.2264C146.107 96.8212 144.994 96.1314 144.443 95.2152C144.122 94.7076 144.007 94.0965 144.122 93.5069C144.135 93.4604 144.165 93.4208 144.207 93.3962C144.248 93.3717 144.297 93.3643 144.344 93.3755C144.391 93.3883 144.43 93.4189 144.454 93.4606C144.478 93.5023 144.484 93.5517 144.472 93.5982C144.39 94.0971 144.493 94.6091 144.764 95.0363C145.264 95.8759 146.301 96.4964 147.838 96.8614C149.663 97.3177 161.241 100.147 162.679 100.49C163.128 99.4968 163.409 98.5332 163.281 98.3835C162.588 98.3835 152.532 91.7037 150.524 90.3532C150.484 90.3257 150.456 90.2836 150.446 90.2358C150.437 90.1881 150.446 90.1385 150.473 90.0977C150.486 90.0778 150.503 90.0607 150.523 90.0475C150.543 90.0343 150.565 90.0252 150.589 90.0208C150.612 90.0164 150.637 90.0167 150.66 90.0217C150.683 90.0268 150.705 90.0365 150.725 90.0502C155.452 93.2003 162.701 97.9199 163.289 98.0112C163.348 98.0121 163.407 98.0275 163.459 98.0562C163.511 98.0848 163.555 98.1258 163.588 98.1755C163.891 98.6536 163.172 100.282 162.942 100.771C162.928 100.802 162.905 100.828 162.877 100.847C162.848 100.865 162.815 100.876 162.781 100.877Z"
    fill="#2E353A"/>
  <path
    d="M163.281 98.1791C163.281 98.1791 167.556 100.179 167.888 100.734C168.22 101.289 168.983 104.173 168.983 105.063C168.983 105.954 168.873 105.95 168.319 105.95C167.764 105.95 166.318 103.84 165.986 103.395C165.654 102.95 164.891 102.95 163.876 102.3C163.594 102.121 163.351 101.885 163.162 101.609C162.974 101.332 162.844 101.019 162.781 100.69L163.281 98.1791Z"
    fill="white"/>
  <path
    d="M168.333 106.133C167.855 106.133 167.067 105.18 166.03 103.749C165.957 103.647 165.899 103.563 165.855 103.508C165.646 103.301 165.385 103.155 165.099 103.085C164.639 102.921 164.199 102.704 163.789 102.439C163.482 102.246 163.218 101.991 163.013 101.692C162.808 101.392 162.667 101.054 162.599 100.698C162.597 100.679 162.597 100.661 162.599 100.643L163.099 98.1426C163.105 98.1157 163.116 98.0903 163.132 98.0683C163.149 98.0462 163.17 98.028 163.194 98.0148C163.219 98.0023 163.246 97.9958 163.274 97.9958C163.302 97.9958 163.329 98.0023 163.354 98.0148C164.084 98.3507 167.698 100.066 168.041 100.639C168.384 101.212 169.176 104.147 169.176 105.063C169.176 105.979 169.008 106.133 168.333 106.133ZM162.967 100.683C163.033 100.983 163.157 101.266 163.333 101.517C163.509 101.767 163.734 101.98 163.993 102.143C164.381 102.393 164.796 102.596 165.231 102.749C165.582 102.84 165.9 103.03 166.147 103.297C166.191 103.351 166.253 103.435 166.326 103.541C167.662 105.388 168.151 105.775 168.333 105.775C168.815 105.775 168.815 105.775 168.815 105.071C168.815 104.209 168.056 101.373 167.72 100.833C167.508 100.468 165.044 99.2267 163.402 98.4492L162.967 100.683Z"
    fill="#2E353A"/>
  <path
    d="M161.456 100.431C161.438 100.435 161.42 100.435 161.402 100.431C161.379 100.424 161.357 100.413 161.339 100.397C161.32 100.382 161.305 100.363 161.294 100.341C161.283 100.32 161.277 100.296 161.275 100.272C161.274 100.248 161.277 100.224 161.285 100.201L161.949 98.139C161.956 98.1154 161.967 98.0934 161.983 98.0743C161.998 98.0552 162.017 98.0394 162.039 98.0279C162.061 98.0164 162.084 98.0093 162.109 98.0072C162.133 98.0051 162.158 98.0079 162.181 98.0155C162.205 98.0231 162.226 98.0354 162.245 98.0515C162.263 98.0677 162.278 98.0874 162.289 98.1094C162.3 98.1315 162.306 98.1555 162.307 98.1801C162.308 98.2046 162.304 98.2291 162.296 98.2521L161.632 100.314C161.618 100.349 161.593 100.379 161.562 100.4C161.531 100.421 161.494 100.432 161.456 100.431Z"
    fill="#2E353A"/>
  <path
    d="M193.866 82.6258C193.866 82.6258 192.771 86.4001 192.311 88.6193C191.851 90.8386 188.759 99.7231 188.759 99.7231L191.424 101.388C191.424 101.388 197.308 89.1961 198.429 86.5242C199.549 83.8522 199.206 81.8593 198.097 80.7496"
    fill="white"/>
  <path
    d="M191.424 101.581C191.39 101.58 191.357 101.57 191.329 101.552L188.665 99.8874C188.629 99.8656 188.602 99.8323 188.588 99.7932C188.574 99.754 188.574 99.7113 188.588 99.672C188.617 99.5844 191.698 90.7766 192.132 88.5974C192.567 86.4183 193.684 82.6258 193.684 82.5856C193.697 82.5372 193.729 82.4962 193.773 82.4716C193.817 82.4469 193.869 82.4407 193.917 82.4542C193.966 82.4678 194.007 82.5 194.031 82.5438C194.056 82.5876 194.062 82.6394 194.049 82.6878C194.049 82.7243 192.935 86.4804 192.497 88.6668C192.081 90.751 189.398 98.4821 188.986 99.6574L191.355 101.136C192.085 99.599 197.235 88.9041 198.257 86.4512C199.243 84.0822 199.137 82.071 197.965 80.8774C197.931 80.8435 197.912 80.7975 197.912 80.7496C197.912 80.7017 197.931 80.6557 197.965 80.6219C197.999 80.588 198.045 80.5689 198.093 80.5689C198.141 80.5689 198.187 80.588 198.221 80.6219C199.505 81.9031 199.641 84.0822 198.586 86.5935C197.491 89.2326 191.65 101.355 191.588 101.479C191.578 101.502 191.562 101.522 191.542 101.539C191.523 101.555 191.5 101.567 191.475 101.574L191.424 101.581Z"
    fill="#2E353A"/>
  <path d="M189.263 98.4529C189.464 98.4529 191.993 99.8472 191.993 99.8472L189.263 98.4529Z" fill="#2E353A"/>
  <path
    d="M171.757 78.4026C171.144 78.3004 167.87 76.1541 165.621 74.4166C163.373 72.6791 162.146 72.3725 162.146 72.3725L160.613 73.3946C160.381 72.6475 160.455 71.839 160.818 71.1461C161.431 70.0218 163.577 68.8976 165.723 68.0799C167.87 67.2623 170.323 66.5651 171.859 66.5651C173.396 66.5651 173.801 67.1783 173.801 67.996C173.801 68.8136 173.801 71.3687 173.29 73.3106C172.779 75.2525 171.757 78.4026 171.757 78.4026Z"
    fill="white"/>
  <g style="mix-blend-mode:multiply">
    <path
      d="M170.793 67.7441C170.793 67.7441 169.848 70.5766 168.903 71.4271C168.173 72.0393 167.383 72.5762 166.545 73.0295C166.545 73.0295 165.979 71.0475 164.563 71.0475C163.146 71.0475 160.974 71.9929 160.974 71.9929C160.974 71.9929 160.974 71.2373 162.767 70.2919L164.563 69.3502L168.716 67.7441H170.793Z"
      fill="#FFA2C3"/>
  </g>
  <path opacity="0.5"
        d="M170.793 67.7441C170.793 67.7441 169.848 70.5766 168.903 71.4271C168.173 72.0393 167.383 72.5762 166.545 73.0295C166.545 73.0295 165.979 71.0475 164.563 71.0475C163.146 71.0475 160.974 71.9929 160.974 71.9929C160.974 71.9929 160.974 71.2373 162.767 70.2919L164.563 69.3502L168.716 67.7441H170.793Z"
        fill="white"/>
  <path
    d="M171.757 78.5851H171.724C171.045 78.4719 167.683 76.2417 165.519 74.5699C163.639 73.1098 162.478 72.6755 162.183 72.5806L160.723 73.5552C160.699 73.5696 160.672 73.5789 160.645 73.5827C160.617 73.5865 160.589 73.5845 160.562 73.5771C160.536 73.568 160.512 73.5531 160.492 73.5335C160.473 73.5139 160.458 73.4901 160.449 73.4639C160.324 73.0699 160.278 72.6549 160.315 72.2432C160.352 71.8314 160.471 71.4312 160.664 71.0657C161.394 69.7006 164.117 68.5106 165.669 67.9157C166.888 67.4521 169.932 66.3716 171.874 66.3716C173.301 66.3716 173.998 66.8973 173.998 67.985C173.998 68.8246 173.998 71.3833 173.48 73.3471C172.962 75.3109 171.954 78.4354 171.943 78.4573C171.932 78.4968 171.907 78.531 171.873 78.5543C171.839 78.5775 171.798 78.5884 171.757 78.5851ZM162.146 72.19H162.19C162.241 72.19 163.482 72.5258 165.734 74.2669C167.848 75.8986 170.793 77.8404 171.637 78.1726C171.856 77.4864 172.677 74.8875 173.097 73.2376C173.604 71.3213 173.604 68.799 173.604 67.9704C173.604 67.3535 173.396 66.7221 171.845 66.7221C170.523 66.7221 168.311 67.2769 165.774 68.2442C163.238 69.2115 161.467 70.3029 160.964 71.2264C160.661 71.8 160.571 72.4616 160.708 73.0952L162.029 72.2155C162.064 72.1939 162.105 72.1849 162.146 72.19Z"
    fill="#2E353A"/>
  <path
    d="M162.657 65.4299C163.855 66.7505 164.695 68.3549 165.099 70.0912C165.764 72.9784 169.939 76.3731 170.939 76.3731C171.94 76.3731 171.87 71.4235 171.538 69.9817C171.206 68.5398 169.874 64.6524 169.874 64.6524C169.874 64.6524 164.559 62.0973 162.657 65.4299Z"
    fill="white"/>
  <path
    d="M170.954 76.5556C169.881 76.5556 165.61 73.066 164.935 70.1313C164.535 68.4295 163.711 66.8563 162.54 65.5577C162.512 65.5294 162.494 65.4926 162.489 65.4531C162.484 65.4135 162.491 65.3733 162.511 65.3387C164.46 61.9002 169.91 64.459 169.965 64.4882C169.987 64.4986 170.007 64.5133 170.023 64.5315C170.039 64.5497 170.052 64.5709 170.06 64.594C170.114 64.751 171.399 68.5033 171.732 69.9415C172.02 71.2045 172.155 75.3547 171.388 76.322C171.339 76.392 171.274 76.4495 171.199 76.4901C171.123 76.5306 171.04 76.5531 170.954 76.5556ZM162.898 65.4044C164.069 66.7303 164.891 68.3274 165.289 70.051C165.953 72.9164 170.104 76.1906 170.954 76.1906C170.954 76.1906 171.023 76.1906 171.1 76.092C171.721 75.3145 171.68 71.3468 171.374 70.0218C171.067 68.6968 169.914 65.3314 169.739 64.7838C169.129 64.5137 164.621 62.6266 162.898 65.4044Z"
    fill="#2E353A"/>
  <g style="mix-blend-mode:multiply">
    <path
      d="M170.793 67.7441C170.793 67.7441 169.848 70.5766 168.903 71.4271C168.173 72.0393 167.383 72.5762 166.545 73.0295C166.545 73.0295 165.979 71.0475 164.563 71.0475C163.146 71.0475 160.974 71.9929 160.974 71.9929C160.974 71.9929 160.974 71.2373 162.767 70.2919L164.563 69.3502L168.716 67.7441H170.793Z"
      fill="#FFA2C3"/>
  </g>
  <path opacity="0.5"
        d="M170.793 67.7441C170.793 67.7441 169.848 70.5766 168.903 71.4271C168.173 72.0393 167.383 72.5762 166.545 73.0295C166.545 73.0295 165.979 71.0475 164.563 71.0475C163.146 71.0475 160.974 71.9929 160.974 71.9929C160.974 71.9929 160.974 71.2373 162.767 70.2919L164.563 69.3502L168.716 67.7441H170.793Z"
        fill="white"/>
  <path
    d="M162.657 65.4299C163.855 66.7505 164.695 68.3549 165.099 70.0912C165.764 72.9784 169.939 76.3731 170.939 76.3731C171.94 76.3731 171.87 71.4235 171.538 69.9817C171.206 68.5398 169.874 64.6524 169.874 64.6524C169.874 64.6524 164.559 62.0973 162.657 65.4299Z"
    fill="white"/>
  <path
    d="M170.954 76.5556C169.881 76.5556 165.61 73.066 164.935 70.1313C164.535 68.4295 163.711 66.8563 162.54 65.5577C162.512 65.5294 162.494 65.4926 162.489 65.4531C162.484 65.4135 162.491 65.3733 162.511 65.3387C164.46 61.9002 169.91 64.459 169.965 64.4882C169.987 64.4986 170.007 64.5133 170.023 64.5315C170.039 64.5497 170.052 64.5709 170.06 64.594C170.114 64.751 171.399 68.5033 171.732 69.9415C172.02 71.2045 172.155 75.3547 171.388 76.322C171.339 76.392 171.274 76.4495 171.199 76.4901C171.123 76.5306 171.04 76.5531 170.954 76.5556ZM162.898 65.4044C164.069 66.7303 164.891 68.3274 165.289 70.051C165.953 72.9164 170.104 76.1906 170.954 76.1906C170.954 76.1906 171.023 76.1906 171.1 76.092C171.721 75.3145 171.68 71.3468 171.374 70.0218C171.067 68.6968 169.914 65.3314 169.739 64.7838C169.129 64.5137 164.621 62.6266 162.898 65.4044Z"
    fill="#2E353A"/>
  <path
    d="M159.149 60.0788C159.933 62.2085 160.901 64.2653 162.044 66.2256C163.73 68.9961 166.986 70.5657 168.793 69.8429C170.6 69.1202 171.83 66.7878 171.348 63.1741C171.242 62.3784 170.549 62.0535 170.326 61.349C169.527 58.7939 168.713 56.3301 168.432 55.392C168.067 54.1838 165.176 52.9792 162.164 53.8224C159.153 54.6656 158.668 57.1842 159.149 60.0788Z"
    fill="white"/>
  <path
    d="M169.154 57.8668C169.154 57.8668 168.059 58.6808 165.599 58.2099C163.139 57.739 161.445 57.8449 161.54 58.4946C161.635 59.1443 161.825 60.0021 161.825 60.0021C161.825 60.0021 158.872 57.447 161.548 56.7681C163.475 56.268 164.588 57.0273 165.059 57.1331C165.53 57.239 169.154 57.8668 169.154 57.8668Z"
    fill="#FFA2C3"/>
  <path opacity="0.5"
        d="M169.154 57.8668C169.154 57.8668 168.059 58.6808 165.599 58.2099C163.139 57.739 161.445 57.8449 161.54 58.4946C161.635 59.1443 161.825 60.0021 161.825 60.0021C161.825 60.0021 158.872 57.447 161.548 56.7681C163.475 56.268 164.588 57.0273 165.059 57.1331C165.53 57.239 169.154 57.8668 169.154 57.8668Z"
        fill="white"/>
  <path
    d="M167.786 70.2153C165.826 70.2153 163.274 68.6128 161.887 66.3315C160.734 64.3599 159.757 62.2908 158.967 60.1481C158.965 60.1385 158.965 60.1286 158.967 60.1189C158.365 56.5235 159.394 54.4028 162.11 53.6436C165.26 52.7602 168.22 54.0597 168.603 55.3336C168.735 55.7753 168.968 56.5491 169.293 57.5237C169.658 58.6187 170.071 59.9437 170.494 61.3016C170.6 61.5717 170.756 61.8194 170.954 62.0316C171.249 62.3415 171.447 62.7311 171.523 63.1522C172.064 67.2075 170.501 69.3575 168.859 70.0145C168.517 70.1492 168.153 70.2174 167.786 70.2153ZM159.328 60.0313C160.106 62.1438 161.066 64.1846 162.197 66.1307C163.895 68.9158 167.103 70.3211 168.727 69.6714C170.242 69.0655 171.68 67.0469 171.166 63.196C171.099 62.8442 170.933 62.5188 170.688 62.2579C170.457 62.005 170.279 61.7084 170.166 61.3855C169.742 60.0313 169.315 58.7027 168.965 57.6113C168.654 56.6476 168.406 55.8702 168.271 55.4212C167.965 54.4064 165.267 53.1252 162.226 53.9611C159.715 54.6839 158.77 56.6622 159.328 60.0313Z"
    fill="#2E353A"/>
  <path
    d="M161.321 64.0538C161.321 64.0538 159.39 63.2106 159.27 64.0538C159.149 64.897 160 65.5139 160.836 65.8789C161.044 65.9929 161.282 66.0423 161.518 66.0209C161.755 65.9994 161.98 65.9081 162.164 65.7584"
    fill="white"/>
  <path
    d="M161.445 66.2001C161.211 66.1972 160.98 66.1462 160.766 66.0504C159.573 65.5394 158.978 64.8276 159.091 64.0465C159.101 63.9572 159.132 63.8716 159.182 63.7972C159.232 63.7228 159.3 63.6617 159.379 63.6194C159.96 63.2946 161.248 63.8421 161.394 63.9078C161.435 63.9295 161.467 63.966 161.482 64.0099C161.497 64.0538 161.495 64.1019 161.476 64.1442C161.456 64.1866 161.422 64.2201 161.379 64.2379C161.336 64.2556 161.288 64.2564 161.245 64.24C160.763 64.0283 159.876 63.7618 159.555 63.937C159.525 63.953 159.501 63.9761 159.483 64.0041C159.465 64.0322 159.454 64.0644 159.452 64.0976C159.336 64.9116 160.314 65.4591 160.912 65.7146C161.088 65.8123 161.289 65.8564 161.489 65.8414C161.689 65.8265 161.881 65.7532 162.04 65.6307C162.075 65.601 162.12 65.5857 162.166 65.5878C162.212 65.5899 162.256 65.6092 162.288 65.642C162.32 65.6747 162.339 65.7184 162.341 65.7644C162.342 65.8103 162.326 65.8551 162.296 65.8898C162.062 66.097 161.758 66.2078 161.445 66.2001Z"
    fill="#2E353A"/>
  <path
    d="M169.202 59.2867C169.202 59.2867 167.052 58.7757 167.972 61.641C168.154 62.2068 169.406 62.8675 169.406 62.8675C169.406 62.8675 169.304 63.7873 168.793 63.8895"
    fill="white"/>
  <path
    d="M168.789 64.0721C168.748 64.0714 168.707 64.0566 168.675 64.0301C168.642 64.0036 168.62 63.967 168.611 63.926C168.606 63.9023 168.606 63.8778 168.611 63.8541C168.615 63.8304 168.625 63.8078 168.638 63.7878C168.652 63.7677 168.67 63.7506 168.69 63.7374C168.71 63.7241 168.733 63.7151 168.757 63.7107C169.019 63.6559 169.154 63.2216 169.206 62.9807C168.87 62.7908 167.972 62.2506 167.8 61.7104C167.457 60.6446 167.486 59.8853 167.884 59.4546C168.373 58.9253 169.206 59.1188 169.242 59.1261C169.289 59.1374 169.329 59.1667 169.355 59.2077C169.38 59.2488 169.388 59.2982 169.377 59.3451C169.372 59.3686 169.362 59.3907 169.348 59.4103C169.334 59.4299 169.317 59.4465 169.296 59.4591C169.276 59.4717 169.253 59.4801 169.229 59.4837C169.206 59.4873 169.181 59.4861 169.158 59.4802C169.158 59.4802 168.494 59.3305 168.151 59.7028C167.808 60.0751 167.851 60.6811 168.151 61.5972C168.267 61.9623 169.038 62.4769 169.494 62.7178C169.526 62.7359 169.551 62.7628 169.568 62.7951C169.585 62.8275 169.592 62.864 169.589 62.9004C169.589 63.0099 169.454 63.9589 168.83 64.083L168.789 64.0721Z"
    fill="#2E353A"/>
  <path d="M167.665 65.9336C167.665 65.9336 166.132 66.2402 165.519 65.5248L167.665 65.9336Z" fill="white"/>
  <path
    d="M166.932 66.2001C166.65 66.2225 166.366 66.186 166.099 66.093C165.832 66 165.587 65.8525 165.38 65.6599C165.365 65.6417 165.353 65.6206 165.345 65.5978C165.338 65.575 165.335 65.5509 165.337 65.527C165.339 65.5032 165.345 65.4799 165.356 65.4585C165.367 65.4371 165.382 65.4181 165.4 65.4025C165.419 65.387 165.44 65.3751 165.462 65.3677C165.485 65.3603 165.509 65.3574 165.533 65.3593C165.557 65.3611 165.58 65.3677 165.602 65.3786C165.623 65.3894 165.642 65.4044 165.658 65.4226C166.194 66.0504 167.618 65.7876 167.632 65.7876C167.656 65.7823 167.68 65.7819 167.703 65.7862C167.727 65.7906 167.749 65.7998 167.769 65.8131C167.789 65.8264 167.806 65.8437 167.819 65.8638C167.832 65.8839 167.84 65.9064 167.844 65.93C167.849 65.9535 167.849 65.9777 167.844 66.0012C167.84 66.0248 167.831 66.0472 167.818 66.0672C167.804 66.0872 167.787 66.1044 167.767 66.1178C167.748 66.1312 167.725 66.1406 167.702 66.1453C167.447 66.1857 167.189 66.204 166.932 66.2001Z"
    fill="#2E353A"/>
  <path d="M165.417 61.13C165.417 61.13 164.292 60.7212 163.679 61.2322C163.351 61.4607 163.097 61.7805 162.949 62.1521"
        fill="white"/>
  <path
    d="M162.964 62.3309H162.92C162.897 62.325 162.875 62.3145 162.856 62.3001C162.836 62.2856 162.82 62.2676 162.808 62.2469C162.796 62.2262 162.788 62.2033 162.785 62.1795C162.781 62.1557 162.783 62.1315 162.789 62.1083C162.941 61.7013 163.21 61.3484 163.562 61.0935C164.249 60.5241 165.431 60.9439 165.479 60.9621C165.502 60.9699 165.523 60.9821 165.541 60.9982C165.559 61.0142 165.573 61.0338 165.583 61.0556C165.594 61.0774 165.599 61.1011 165.6 61.1252C165.601 61.1492 165.597 61.1732 165.588 61.1957C165.572 61.2412 165.538 61.2783 165.494 61.2988C165.45 61.3194 165.4 61.3217 165.355 61.3052C165.355 61.3052 164.322 60.9402 163.796 61.3746C163.507 61.5845 163.281 61.8698 163.143 62.1995C163.131 62.2377 163.107 62.2711 163.075 62.2948C163.043 62.3185 163.004 62.3311 162.964 62.3309Z"
    fill="#2E353A"/>
  <path
    d="M165.388 62.8785C165.534 63.2179 165.504 63.5537 165.322 63.6304C165.139 63.707 164.877 63.499 164.731 63.1595C164.585 62.8201 164.617 62.4879 164.8 62.4076C164.982 62.3273 165.245 62.5499 165.388 62.8785Z"
    fill="#2E353A"/>
  <path
    d="M169.063 61.0899C169.209 61.4257 169.176 61.7615 168.998 61.8418C168.819 61.9221 168.549 61.7068 168.406 61.3709C168.264 61.0351 168.289 60.6957 168.472 60.619C168.654 60.5424 168.917 60.7541 169.063 61.0899Z"
    fill="#2E353A"/>
  <path
    d="M160.785 64.5393C160.785 64.5393 162.004 63.6523 161.781 62.8748C161.559 62.0973 161.117 62.0973 161.562 61.6556C162.007 61.214 162.336 60.9877 162.226 60.3233C162.117 59.659 160.339 58.5457 160.894 57.8814C161.449 57.2171 161.226 56.4213 165.778 57.5456C170.33 58.6698 173.217 56.8812 171.885 55.2168C170.552 53.5523 169.443 53.3296 169.443 53.3296C169.443 53.3296 171.998 52.2346 169.888 51.1067C167.778 49.9788 163.004 50.0117 160.339 52.1068C157.675 54.202 158.23 55.9797 158.23 55.9797C158.23 55.9797 156.788 56.2023 156.675 58.4253C156.561 60.6482 160.785 64.5393 160.785 64.5393Z"
    fill="#2E353A"/>
  <path
    d="M168.048 57.1039C167.078 57.0632 166.123 56.8506 165.227 56.4761C164.525 56.1766 163.777 55.9989 163.015 55.9505C161.252 55.9505 160.887 56.9506 160.872 56.9944C160.867 57.01 160.859 57.0244 160.849 57.0368C160.838 57.0492 160.825 57.0593 160.81 57.0664C160.796 57.0736 160.78 57.0777 160.763 57.0785C160.747 57.0793 160.731 57.0768 160.715 57.0711C160.7 57.0661 160.685 57.0581 160.673 57.0475C160.66 57.0369 160.65 57.0239 160.642 57.0093C160.635 56.9947 160.63 56.9788 160.629 56.9625C160.628 56.9461 160.63 56.9297 160.635 56.9141C160.653 56.8666 161.062 55.6986 163.015 55.6986C163.806 55.7454 164.583 55.9294 165.311 56.2425C166.446 56.6476 167.625 57.0674 169.107 56.7389C169.91 56.56 170.381 56.2717 170.498 55.8884C170.651 55.3956 170.177 54.881 170.173 54.8737C170.15 54.8504 170.137 54.8189 170.137 54.7861C170.137 54.7532 170.15 54.7217 170.173 54.6985C170.197 54.6759 170.229 54.6633 170.262 54.6633C170.295 54.6633 170.327 54.6759 170.352 54.6985C170.374 54.724 170.928 55.3263 170.735 55.9578C170.585 56.4359 170.056 56.779 169.158 56.9798C168.794 57.0604 168.422 57.102 168.048 57.1039Z"
    fill="white"/>
  <path
    d="M159.905 56.7973C159.872 56.7945 159.841 56.7788 159.819 56.7536C159.797 56.7283 159.786 56.6955 159.788 56.6622C159.788 56.6367 160.004 54.2276 162.139 53.6874C163.398 53.3698 164.855 53.6071 166.026 53.7969C166.756 53.9173 167.41 54.0232 167.683 53.9173C167.714 53.9109 167.745 53.9155 167.772 53.9303C167.799 53.9451 167.819 53.9692 167.83 53.998C167.841 54.0268 167.841 54.0585 167.83 54.0873C167.819 54.116 167.798 54.1399 167.771 54.1546C167.435 54.2787 166.796 54.1765 165.986 54.0451C164.836 53.8553 163.405 53.6253 162.201 53.9283C160.237 54.4283 160.04 56.6586 160.036 56.6805C160.035 56.6968 160.031 56.7128 160.024 56.7275C160.017 56.7422 160.007 56.7553 159.995 56.7662C159.983 56.777 159.969 56.7854 159.953 56.7907C159.938 56.796 159.921 56.7983 159.905 56.7973Z"
    fill="white"/>
  <path
    d="M158.492 60.5643C158.468 60.5638 158.444 60.5562 158.423 60.5424C158.095 60.2675 157.841 59.9154 157.684 59.5177C157.526 59.12 157.471 58.6893 157.521 58.2647C157.624 56.6586 158.857 56.6403 158.872 56.6403C158.902 56.6454 158.929 56.6608 158.948 56.6839C158.968 56.7069 158.978 56.7361 158.978 56.7663C158.978 56.7964 158.968 56.8256 158.948 56.8486C158.929 56.8717 158.902 56.8871 158.872 56.8922C158.828 56.8922 157.857 56.9141 157.777 58.2793C157.728 58.6612 157.774 59.0494 157.912 59.4089C158.051 59.7683 158.276 60.0876 158.569 60.3379C158.582 60.3471 158.594 60.3588 158.603 60.3725C158.612 60.3862 158.618 60.4015 158.62 60.4175C158.623 60.4335 158.622 60.4499 158.619 60.4657C158.615 60.4816 158.608 60.4964 158.598 60.5095C158.587 60.5273 158.571 60.5418 158.553 60.5514C158.534 60.561 158.513 60.5655 158.492 60.5643Z"
    fill="white"/>
  <path
    d="M159.248 59.5276C159.224 59.5276 159.201 59.5207 159.181 59.5078C159.161 59.4948 159.145 59.4764 159.135 59.4546C159.045 59.2881 158.991 59.1042 158.978 58.9154C158.965 58.7265 158.992 58.537 159.058 58.3596C159.219 58.0116 159.506 57.7377 159.861 57.593C159.876 57.5866 159.892 57.5833 159.909 57.5833C159.925 57.5833 159.941 57.5867 159.956 57.5932C159.971 57.5996 159.985 57.6091 159.996 57.621C160.007 57.6329 160.016 57.647 160.022 57.6624C160.034 57.6929 160.033 57.7269 160.02 57.757C160.007 57.7871 159.983 57.8108 159.952 57.823C159.662 57.9461 159.426 58.1705 159.288 58.4545C159.236 58.6002 159.216 58.7553 159.229 58.9094C159.241 59.0636 159.286 59.2133 159.361 59.3488C159.375 59.3793 159.376 59.414 159.364 59.4454C159.353 59.4768 159.329 59.5024 159.299 59.5167C159.283 59.5238 159.266 59.5275 159.248 59.5276Z"
    fill="white"/>
  <path
    d="M159.529 61.506C159.509 61.5056 159.489 61.5004 159.471 61.4909C159.454 61.4814 159.438 61.4678 159.427 61.4512L158.956 60.7942C158.937 60.7671 158.929 60.7334 158.934 60.7006C158.94 60.6677 158.958 60.6384 158.985 60.619C159.012 60.5996 159.046 60.5918 159.079 60.5973C159.112 60.6028 159.141 60.6211 159.16 60.6482L159.631 61.3089C159.65 61.3356 159.657 61.3685 159.652 61.4006C159.646 61.4327 159.628 61.4614 159.602 61.4804C159.581 61.4973 159.556 61.5063 159.529 61.506Z"
    fill="white"/>
  <path d="M168.299 122.426H117.624L126.361 114.038H159.562L168.299 122.426Z" fill="#FFEBF2"/>
  <path d="M132.477 122.426L126.361 114.038H142.962L132.477 122.426Z" fill="white"/>
  <path d="M142.962 148.987L117.624 122.426H168.299L142.962 148.987Z" fill="white"/>
  <path d="M142.962 148.987L117.624 122.426H132.477L142.962 148.987Z" fill="#FFD0E1"/>
  <path d="M153.446 122.426L159.562 114.038H142.962L153.446 122.426Z" fill="white"/>
  <path d="M142.962 148.987L168.299 122.426H153.446L142.962 148.987Z" fill="#FFD0E1"/>
  <path
    d="M85.2242 186.985V193.346H87.6875V192.68H85.9413V186.985H85.2242ZM93.2653 193.346H94.0414L91.1479 186.682L88.2544 193.346H89.0305L89.7981 191.549H92.4976L93.2653 193.346ZM90.085 190.883L91.1479 188.335L92.2108 190.883H90.085ZM97.1862 190.132C97.1862 192.03 98.7553 193.456 100.468 193.456C101.176 193.456 101.834 193.228 102.383 192.848L102.939 193.405H103.842L102.88 192.418C103.446 191.836 103.8 191.043 103.8 190.174C103.8 188.377 102.281 186.876 100.502 186.876C98.73 186.876 97.1862 188.361 97.1862 190.132ZM97.9033 190.132C97.9033 188.715 99.0927 187.551 100.502 187.551C101.927 187.551 103.083 188.715 103.083 190.174C103.083 190.849 102.83 191.465 102.408 191.937L101.294 190.79H100.375L101.91 192.359C101.505 192.638 101.008 192.798 100.476 192.798C99.118 192.798 97.9033 191.634 97.9033 190.132ZM105.103 186.985V191.077C105.103 191.735 105.238 192.309 105.66 192.747C106.107 193.22 106.68 193.456 107.372 193.456C108.064 193.456 108.637 193.22 109.085 192.747C109.532 192.283 109.641 191.684 109.641 191.077V186.985H108.924V190.883C108.924 191.397 108.916 191.878 108.629 192.224C108.325 192.604 107.819 192.798 107.372 192.798C106.9 192.798 106.41 192.578 106.115 192.224C105.828 191.878 105.82 191.397 105.82 190.883V186.985H105.103ZM115.302 193.346H116.079L113.185 186.682L110.292 193.346H111.068L111.835 191.549H114.535L115.302 193.346ZM112.122 190.883L113.185 188.335L114.248 190.883H112.122ZM116.966 186.985V193.346H119.429V192.68H117.683V186.985H116.966ZM120.385 186.985V193.346H121.102V186.985H120.385ZM125.845 187.643V186.985H122.049V187.643H123.593V193.346H124.301V187.643H125.845ZM130.101 186.985H126.802V193.346H130.101V192.68H127.519V190.2H130.025V189.533H127.519V187.643H130.101V186.985ZM129.021 184.927L127.882 186.167L128.287 186.471L129.662 185.357L129.021 184.927ZM137.402 187.871C137.023 187.205 136.474 186.876 135.766 186.876C134.762 186.876 133.977 187.568 133.977 188.521C133.977 189.238 134.332 189.643 135.268 190.081L135.842 190.351C136.635 190.723 136.913 190.993 136.913 191.541C136.913 192.241 136.331 192.798 135.639 192.798C134.947 192.798 134.517 192.401 134.34 191.625L133.657 191.819C133.884 192.84 134.593 193.456 135.614 193.456C136.744 193.456 137.638 192.578 137.638 191.499C137.638 190.68 137.217 190.216 136.196 189.752L135.597 189.482C134.998 189.213 134.694 188.909 134.694 188.529C134.694 187.956 135.167 187.551 135.749 187.551C136.238 187.551 136.533 187.719 136.837 188.242L137.402 187.871ZM143.098 193.346H143.874L140.981 186.682L138.087 193.346H138.863L139.631 191.549H142.33L143.098 193.346ZM139.918 190.883L140.981 188.335L142.044 190.883H139.918ZM145.479 193.346V188.445L150.431 193.633V186.985H149.722V191.912L144.762 186.716V193.346H145.479ZM155.485 187.871C155.105 187.205 154.557 186.876 153.848 186.876C152.845 186.876 152.06 187.568 152.06 188.521C152.06 189.238 152.414 189.643 153.351 190.081L153.924 190.351C154.717 190.723 154.996 190.993 154.996 191.541C154.996 192.241 154.414 192.798 153.722 192.798C153.03 192.798 152.6 192.401 152.423 191.625L151.739 191.819C151.967 192.84 152.676 193.456 153.697 193.456C154.827 193.456 155.721 192.578 155.721 191.499C155.721 190.68 155.299 190.216 154.279 189.752L153.68 189.482C153.081 189.213 152.777 188.909 152.777 188.529C152.777 187.956 153.249 187.551 153.832 187.551C154.321 187.551 154.616 187.719 154.92 188.242L155.485 187.871ZM164.482 187.508C163.892 187.087 163.259 186.876 162.567 186.876C160.796 186.876 159.277 188.369 159.277 190.149C159.277 192.039 160.796 193.456 162.567 193.456C163.242 193.456 163.883 193.253 164.482 192.84V191.963C163.892 192.519 163.251 192.798 162.567 192.798C161.201 192.798 159.994 191.684 159.994 190.149C159.994 188.732 161.175 187.551 162.567 187.551C163.242 187.551 163.892 187.829 164.482 188.386V187.508ZM165.374 190.132C165.374 192.03 166.943 193.456 168.655 193.456C170.46 193.456 171.987 191.98 171.987 190.174C171.987 188.377 170.469 186.876 168.689 186.876C166.917 186.876 165.374 188.361 165.374 190.132ZM166.091 190.132C166.091 188.715 167.28 187.551 168.689 187.551C170.115 187.551 171.27 188.715 171.27 190.174C171.27 191.6 170.115 192.798 168.664 192.798C167.305 192.798 166.091 191.634 166.091 190.132ZM173.805 193.346L174.429 188.917L176.563 193.608L178.74 188.926L179.33 193.346H180.056L179.069 186.623L176.572 191.996L174.134 186.623L173.079 193.346H173.805ZM182.246 193.346V190.562H182.861C184.093 190.562 184.878 189.879 184.878 188.774C184.878 187.643 184.093 186.985 182.684 186.985H181.529V193.346H182.246ZM182.246 187.643H182.769C183.705 187.643 184.177 188.023 184.177 188.765C184.177 189.508 183.688 189.913 182.819 189.913H182.246V187.643ZM187.548 190.503C188.493 190.419 189.143 189.727 189.143 188.774C189.143 187.677 188.485 186.985 186.916 186.985H185.887V193.346H186.604V190.554H186.781L188.704 193.346H189.565L187.548 190.503ZM186.604 187.643H187.025C187.97 187.643 188.443 188.023 188.443 188.774C188.443 189.525 187.953 189.93 187.042 189.93H186.604V187.643ZM190.212 190.132C190.212 192.03 191.781 193.456 193.493 193.456C195.299 193.456 196.826 191.98 196.826 190.174C196.826 188.377 195.307 186.876 193.527 186.876C191.756 186.876 190.212 188.361 190.212 190.132ZM190.929 190.132C190.929 188.715 192.118 187.551 193.527 187.551C194.953 187.551 196.108 188.715 196.108 190.174C196.108 191.6 194.953 192.798 193.502 192.798C192.144 192.798 190.929 191.634 190.929 190.132ZM198.643 193.346L199.267 188.917L201.401 193.608L203.578 188.926L204.168 193.346H204.894L203.907 186.623L201.41 191.996L198.972 186.623L197.917 193.346H198.643ZM206.367 186.985V193.346H207.084V186.985H206.367ZM212.131 187.871C211.751 187.205 211.203 186.876 210.494 186.876C209.49 186.876 208.706 187.568 208.706 188.521C208.706 189.238 209.06 189.643 209.996 190.081L210.57 190.351C211.363 190.723 211.641 190.993 211.641 191.541C211.641 192.241 211.059 192.798 210.368 192.798C209.676 192.798 209.246 192.401 209.068 191.625L208.385 191.819C208.613 192.84 209.322 193.456 210.342 193.456C211.473 193.456 212.367 192.578 212.367 191.499C212.367 190.68 211.945 190.216 210.924 189.752L210.325 189.482C209.726 189.213 209.423 188.909 209.423 188.529C209.423 187.956 209.895 187.551 210.477 187.551C210.967 187.551 211.262 187.719 211.566 188.242L212.131 187.871ZM218.201 190.621C218.159 191.161 217.931 191.431 217.509 191.431C217.146 191.431 216.826 191.144 216.826 190.748C216.826 190.41 217.037 190.174 217.475 190.048C218.032 189.887 218.403 189.727 218.58 189.575C218.901 189.297 219.061 188.917 219.061 188.436C219.061 187.568 218.378 186.91 217.518 186.91C216.657 186.91 215.982 187.534 215.982 188.361C215.982 188.47 215.991 188.614 216.016 188.799H216.716C216.674 188.63 216.665 188.495 216.665 188.394C216.665 187.922 217.028 187.559 217.501 187.559C217.99 187.559 218.37 187.956 218.37 188.436C218.37 188.774 218.294 189.204 217.298 189.415C216.463 189.592 216.142 190.056 216.142 190.706C216.142 191.473 216.725 192.072 217.501 192.072C218.344 192.072 218.884 191.465 218.884 190.621H218.201ZM217.045 192.975C217.045 193.228 217.256 193.439 217.509 193.439C217.771 193.439 217.981 193.245 217.981 192.975C217.981 192.713 217.771 192.511 217.509 192.511C217.256 192.511 217.045 192.722 217.045 192.975Z"
    fill="black"/>
  <circle cx="109.821" cy="242.987" r="23.8013" fill="white" stroke="#D8D8D8" stroke-width="0.602564"/>
  <circle cx="194.18" cy="242.987" r="23.8013" fill="white" stroke="#D8D8D8" stroke-width="0.602564"/>
  <path
    d="M182.343 234.509C183.71 232.982 185.607 232.141 187.683 232.141C190.604 232.141 192.453 233.858 193.49 235.298C193.759 235.672 193.987 236.047 194.179 236.399C194.372 236.047 194.6 235.672 194.869 235.298C195.906 233.858 197.755 232.141 200.676 232.141C202.752 232.141 204.649 232.982 206.016 234.509C207.32 235.965 208.038 237.916 208.038 240.001C208.038 242.272 207.138 244.383 205.205 246.646C203.477 248.669 200.991 250.754 198.113 253.168C197.04 254.068 195.931 254.998 194.75 256.015L194.714 256.046C194.561 256.178 194.37 256.244 194.179 256.244C193.989 256.244 193.798 256.178 193.645 256.046L193.609 256.015C192.428 254.998 191.319 254.068 190.246 253.168C187.368 250.754 184.882 248.669 183.154 246.646C181.221 244.383 180.321 242.272 180.321 240.001C180.321 237.916 181.039 235.965 182.343 234.509ZM191.3 251.951C192.224 252.727 193.176 253.525 194.179 254.384C195.183 253.525 196.135 252.727 197.059 251.951C202.693 247.226 206.414 244.105 206.414 240.001C206.414 238.305 205.84 236.73 204.798 235.566C203.743 234.388 202.279 233.74 200.676 233.74C198.449 233.74 197.01 235.09 196.195 236.222C195.463 237.238 195.082 238.262 194.952 238.655C194.843 238.984 194.531 239.207 194.179 239.207C193.828 239.207 193.516 238.984 193.407 238.655C193.277 238.262 192.896 237.238 192.164 236.222C191.349 235.09 189.91 233.74 187.683 233.74C186.08 233.74 184.616 234.388 183.561 235.566C182.519 236.73 181.945 238.305 181.945 240.001C181.945 244.105 185.666 247.226 191.3 251.951Z"
    fill="#FFA1C3"/>
  <g clip-path="url(#clip0)">
    <path
      d="M101.038 235.457C100.7 235.118 100.7 234.554 101.038 234.203C101.389 233.864 101.942 233.864 102.292 234.203L109.816 241.74L117.353 234.203C117.692 233.864 118.256 233.864 118.594 234.203C118.945 234.554 118.945 235.119 118.594 235.457L111.07 242.982L118.594 250.518C118.945 250.857 118.945 251.421 118.594 251.772C118.255 252.111 117.691 252.111 117.353 251.772L109.816 244.236L102.292 251.772C101.942 252.111 101.389 252.111 101.038 251.772C100.7 251.421 100.7 250.856 101.038 250.518L108.562 242.982L101.038 235.457Z"
      fill="#1E201D"/>
  </g>
  <path d="M276.906 230.5L282.453 225L288 230.5" stroke="#BDBDBD" stroke-linecap="round" stroke-linejoin="round"/>
  <path d="M217 254.75C248.197 276.546 282.453 250.787 282.453 228" stroke="#BDBDBD" stroke-dasharray="3 3"/>
  <path d="M26.8437 242.266L20.3467 247.26L14.7342 241.289" stroke="#BDBDBD" stroke-linecap="round"
        stroke-linejoin="round"/>
  <path d="M94.1848 223.369C61.8835 198.896 22.42 221.556 20.5879 244.269" stroke="#BDBDBD" stroke-dasharray="3 3"/>
  <path
    d="M270.49 209.46V214.91C270.49 215.91 270.24 216.35 269.66 216.35C269.39 216.35 269.1 216.2 268.79 215.92L268.32 216.57C268.78 216.94 269.24 217.13 269.67 217.13C270.12 217.13 270.5 216.98 270.81 216.67C271 216.48 271.14 216.25 271.22 215.99C271.3 215.73 271.34 215.37 271.34 214.91V209.46H270.49ZM277.287 214.82V214.68C277.287 213.18 276.397 212.2 275.047 212.2C273.677 212.2 272.777 213.22 272.777 214.68C272.777 216.11 273.707 217.13 275.087 217.13C276.017 217.13 276.727 216.69 277.247 215.8L276.567 215.42C276.127 216.15 275.747 216.4 275.117 216.4C274.267 216.4 273.667 215.78 273.627 214.82H277.287ZM273.677 214.14C273.797 213.45 274.367 212.93 275.057 212.93C275.757 212.93 276.297 213.41 276.437 214.14H273.677ZM281.602 208.75V215.24C281.602 216.65 282.302 217.13 283.232 217.13L283.402 216.4C282.682 216.4 282.412 216.08 282.412 215.1V208.75H281.602ZM284.385 212.3V217H285.195V212.3H284.385ZM284.215 210.54C284.215 210.86 284.465 211.11 284.785 211.11C285.105 211.11 285.365 210.86 285.365 210.54C285.365 210.22 285.105 209.96 284.785 209.96C284.465 209.96 284.215 210.22 284.215 210.54ZM286.739 208.75V217H287.549V215.07L287.749 214.86L289.649 217H290.699L288.309 214.3L290.319 212.3H289.249L287.549 214.04V208.75H286.739ZM295.46 214.82V214.68C295.46 213.18 294.57 212.2 293.22 212.2C291.85 212.2 290.95 213.22 290.95 214.68C290.95 216.11 291.88 217.13 293.26 217.13C294.19 217.13 294.9 216.69 295.42 215.8L294.74 215.42C294.3 216.15 293.92 216.4 293.29 216.4C292.44 216.4 291.84 215.78 291.8 214.82H295.46ZM291.85 214.14C291.97 213.45 292.54 212.93 293.23 212.93C293.93 212.93 294.47 213.41 294.61 214.14H291.85ZM300.986 215.47V209.46H300.166V215.47H300.986ZM300.026 216.57C300.026 216.87 300.276 217.12 300.576 217.12C300.876 217.12 301.126 216.87 301.126 216.57C301.126 216.27 300.876 216.02 300.576 216.02C300.276 216.02 300.026 216.27 300.026 216.57Z"
    fill="black"/>
  <path
    d="M2.3248 257.46V262.91C2.3248 263.91 2.0748 264.35 1.4948 264.35C1.2248 264.35 0.934805 264.2 0.624805 263.92L0.154805 264.57C0.614805 264.94 1.0748 265.13 1.5048 265.13C1.9548 265.13 2.3348 264.98 2.6448 264.67C2.8348 264.48 2.9748 264.25 3.0548 263.99C3.1348 263.73 3.1748 263.37 3.1748 262.91V257.46H2.3248ZM9.1216 262.82V262.68C9.1216 261.18 8.2316 260.2 6.8816 260.2C5.5116 260.2 4.6116 261.22 4.6116 262.68C4.6116 264.11 5.5416 265.13 6.9216 265.13C7.8516 265.13 8.5616 264.69 9.0816 263.8L8.4016 263.42C7.9616 264.15 7.5816 264.4 6.9516 264.4C6.1016 264.4 5.5016 263.78 5.4616 262.82H9.1216ZM5.5116 262.14C5.6316 261.45 6.2016 260.93 6.8916 260.93C7.5916 260.93 8.1316 261.41 8.2716 262.14H5.5116ZM17.767 260.3H13.387V261.05H16.157L12.757 265H17.627V264.25H14.387L17.767 260.3ZM22.2123 260.97C21.7723 260.45 21.2223 260.19 20.5723 260.19C19.2723 260.19 18.3323 261.2 18.3323 262.64C18.3323 264.08 19.2923 265.13 20.5923 265.13C21.2323 265.13 21.7723 264.87 22.2123 264.35V265H23.0223V260.3H22.2123V260.97ZM19.1523 262.62C19.1523 261.64 19.8423 260.92 20.7023 260.92C21.6123 260.92 22.2623 261.63 22.2623 262.65C22.2623 263.66 21.6423 264.4 20.6923 264.4C19.7823 264.4 19.1523 263.64 19.1523 262.62ZM25.37 264.35C25.82 264.87 26.36 265.13 27.01 265.13C28.32 265.13 29.25 264.06 29.25 262.68C29.25 261.24 28.27 260.19 26.99 260.19C26.36 260.19 25.82 260.45 25.37 260.97V260.3H24.56V267.64H25.37V264.35ZM28.43 262.71C28.43 263.63 27.78 264.4 26.89 264.4C25.96 264.4 25.31 263.66 25.31 262.68C25.31 261.64 26.01 260.92 26.89 260.92C27.77 260.92 28.43 261.68 28.43 262.71ZM31.2978 264.35C31.7478 264.87 32.2878 265.13 32.9378 265.13C34.2478 265.13 35.1778 264.06 35.1778 262.68C35.1778 261.24 34.1978 260.19 32.9178 260.19C32.2878 260.19 31.7478 260.45 31.2978 260.97V260.3H30.4878V267.64H31.2978V264.35ZM34.3578 262.71C34.3578 263.63 33.7078 264.4 32.8178 264.4C31.8878 264.4 31.2378 263.66 31.2378 262.68C31.2378 261.64 31.9378 260.92 32.8178 260.92C33.6978 260.92 34.3578 261.68 34.3578 262.71ZM40.6255 262.82V262.68C40.6255 261.18 39.7355 260.2 38.3855 260.2C37.0155 260.2 36.1155 261.22 36.1155 262.68C36.1155 264.11 37.0455 265.13 38.4255 265.13C39.3555 265.13 40.0655 264.69 40.5855 263.8L39.9055 263.42C39.4655 264.15 39.0855 264.4 38.4555 264.4C37.6055 264.4 37.0055 263.78 36.9655 262.82H40.6255ZM37.0155 262.14C37.1355 261.45 37.7055 260.93 38.3955 260.93C39.0955 260.93 39.6355 261.41 39.7755 262.14H37.0155ZM46.1509 263.47V257.46H45.3309V263.47H46.1509ZM45.1909 264.57C45.1909 264.87 45.4409 265.12 45.7409 265.12C46.0409 265.12 46.2909 264.87 46.2909 264.57C46.2909 264.27 46.0409 264.02 45.7409 264.02C45.4409 264.02 45.1909 264.27 45.1909 264.57Z"
    fill="black"/>
  <path
    d="M201.306 348.197C201.306 348.197 190.445 328.171 188.899 324.66C187.354 321.149 186.188 315.616 185.808 314.098C185.259 312.317 185.208 310.42 185.662 308.612C186.233 306.051 185.895 298.745 186.151 297.067C186.407 295.389 185.369 290.14 184.779 287.201C184.189 284.261 182.854 282.171 181.052 281.943C180.528 281.88 179.997 281.948 179.505 282.14C179.014 282.332 178.577 282.643 178.235 283.044C178.235 283.044 177.485 276.785 176.758 275.487C176.031 274.188 173.662 274.376 172.395 274.687C171.128 274.998 170.52 279.048 170.52 279.048C170.52 279.048 169.422 275.158 169.39 273.42C169.358 271.683 167.246 270.188 165.599 270.599C163.953 271.011 163.066 271.765 162.618 275.368C162.17 278.971 163.016 284.544 163.016 284.544L162.16 284.892C162.16 284.892 159.078 274.101 158.099 271.253C157.121 268.405 156.179 265.145 155.52 263.023C154.862 260.902 153.883 257.537 151.189 258.053C148.496 258.57 149.159 264.454 149.159 264.454C149.159 264.454 153.371 282.487 153.59 283.909C153.81 285.331 154.505 290.268 154.368 291.914C154.231 293.56 154.235 297.858 154.235 297.858L150.224 293.076C149.73 291.782 149.107 290.541 148.363 289.372C146.991 287.159 143.941 285.097 141.961 285.715C139.981 286.332 141.545 288.371 142.363 289.509C143.182 290.648 143.845 293.844 143.845 295.453C143.845 297.063 145.217 298.196 146.872 301.15C148.528 304.104 156.837 314.309 158.095 316.147C159.026 317.382 160.197 318.416 161.538 319.187C161.538 319.187 166.34 323.371 168.581 328.592C170.822 333.813 177.695 348.805 177.695 348.805"
    fill="white"/>
  <g style="mix-blend-mode:multiply" opacity="0.7">
    <path
      d="M184.861 343.433C187.107 341.376 187.665 324.756 187.381 318.57C187.381 318.52 187.381 318.46 187.381 318.405C186.581 316.339 185.959 314.661 185.817 314.098C185.268 312.317 185.218 310.42 185.671 308.612C186.243 306.051 185.904 298.745 186.16 297.067C186.311 296.075 186.005 293.816 185.611 291.53C183.983 291.389 181.002 292.856 181.002 292.856C181.002 292.856 178.651 289.436 177.119 289.317C175.587 289.199 172.93 291.604 172.93 291.604C172.93 291.604 171.407 286.474 168.279 286.999C165.151 287.525 164.273 286.999 163.039 287.054C161.804 287.109 160.802 284.105 159.567 281.156C158.333 278.207 156.563 267.179 155.516 264.893C155.516 264.893 153.874 260.294 151.747 261.825C149.621 263.357 151.619 268.363 152.616 271.367C153.613 274.371 154.148 280.077 154.958 282.798C155.872 285.829 155.415 290.332 156.252 293.634C157.089 296.935 159.238 298.004 158.054 302.321C156.869 306.637 154.281 305.26 151.395 302.723C148.51 300.185 147.083 294.374 145.45 294.95C144.885 295.093 144.338 295.304 143.822 295.577C143.859 297.159 145.194 298.32 146.85 301.21C148.505 304.099 156.837 314.309 158.095 316.147C159.026 317.382 160.198 318.416 161.539 319.187C161.539 319.187 166.34 323.371 168.581 328.592C168.984 329.529 169.624 330.915 170.41 332.561C171.325 333.292 169.386 329.817 169.862 330.393C173.031 334.111 182.621 345.495 184.861 343.433Z"
      fill="#FFA1C3"/>
  </g>
  <path
    d="M201.306 348.197C201.306 348.197 190.445 328.171 188.899 324.66C187.354 321.149 186.188 315.616 185.808 314.098C185.259 312.317 185.208 310.42 185.662 308.612C186.233 306.051 185.895 298.745 186.151 297.067C186.407 295.389 185.369 290.14 184.779 287.201C184.189 284.261 182.854 282.171 181.052 281.943C180.528 281.88 179.997 281.948 179.505 282.14C179.014 282.332 178.577 282.643 178.235 283.044C178.235 283.044 177.485 276.785 176.758 275.487C176.031 274.188 173.662 274.376 172.395 274.687C171.128 274.998 170.52 279.048 170.52 279.048C170.52 279.048 169.422 275.158 169.39 273.42C169.358 271.683 167.246 270.188 165.599 270.599C163.953 271.011 163.066 271.765 162.618 275.368C162.17 278.971 163.016 284.544 163.016 284.544L162.16 284.892C162.16 284.892 159.078 274.101 158.099 271.253C157.121 268.405 156.179 265.145 155.52 263.023C154.862 260.902 153.883 257.537 151.189 258.053C148.496 258.57 149.159 264.454 149.159 264.454C149.159 264.454 153.371 282.487 153.59 283.909C153.81 285.331 154.505 290.268 154.368 291.914C154.231 293.56 154.235 297.858 154.235 297.858L150.224 293.076C149.73 291.782 149.107 290.541 148.363 289.372C146.991 287.159 143.941 285.097 141.961 285.715C139.981 286.332 141.545 288.371 142.363 289.509C143.182 290.648 143.845 293.844 143.845 295.453C143.845 297.063 145.217 298.196 146.872 301.15C148.528 304.104 156.837 314.309 158.095 316.147C159.026 317.382 160.197 318.416 161.538 319.187C161.538 319.187 166.34 323.371 168.581 328.592C170.822 333.813 177.695 348.805 177.695 348.805"
    stroke="#2E353A" stroke-width="0.660497" stroke-linecap="round" stroke-linejoin="round"/>
  <path
    d="M149.763 259.361C149.763 259.361 150.261 262.452 150.357 262.84C150.572 263.713 154.185 263.297 154.473 262.625C154.729 262.026 154.542 260.728 154.542 260.728"
    stroke="#2E353A" stroke-width="0.660497" stroke-linecap="round" stroke-linejoin="round"/>
  <path
    d="M143.575 289.651C143.876 289.346 144.062 288.947 144.103 288.52C144.143 288.094 144.036 287.667 143.799 287.31C142.949 286.044 142.473 285.76 142.473 285.76"
    stroke="#2E353A" stroke-width="0.660497" stroke-linecap="round" stroke-linejoin="round"/>
  <path d="M153.942 277.27C153.942 277.27 155.557 277.809 157.075 275.82" stroke="#2E353A" stroke-width="0.495373"
        stroke-linecap="round" stroke-linejoin="round"/>
  <path d="M154.135 275.866C154.135 275.866 156.288 274.252 157.935 274.385" stroke="#2E353A" stroke-width="0.495373"
        stroke-linecap="round" stroke-linejoin="round"/>
  <path d="M151.903 267.431C151.903 267.431 153.517 265.821 154.811 266.169" stroke="#2E353A" stroke-width="0.495373"
        stroke-linecap="round" stroke-linejoin="round"/>
  <path d="M153.421 267.051C154.085 267.163 154.765 267.132 155.415 266.96" stroke="#2E353A" stroke-width="0.495373"
        stroke-linecap="round" stroke-linejoin="round"/>
  <path d="M170.516 279.062L171.366 284.096" stroke="#2E353A" stroke-width="0.660497" stroke-linecap="round"
        stroke-linejoin="round"/>
  <path d="M178.23 283.058L179.14 288.344" stroke="#2E353A" stroke-width="0.660497" stroke-linecap="round"
        stroke-linejoin="round"/>
  <path d="M154.231 297.89C154.231 297.89 154.002 301.845 154.381 303.377" stroke="#2E353A" stroke-width="0.660497"
        stroke-linecap="round" stroke-linejoin="round"/>
  <path d="M171.371 286.775C171.371 286.775 172.308 289.258 172.079 290.89" stroke="#2E353A" stroke-width="0.495373"
        stroke-linecap="round" stroke-linejoin="round"/>
  <path d="M179.04 289.34C179.04 289.34 179.676 290.62 179.296 292.952" stroke="#2E353A" stroke-width="0.495373"
        stroke-linecap="round" stroke-linejoin="round"/>
  <path
    d="M164.612 327.225C164.612 327.225 165.833 322.351 172.537 318.387C179.241 314.423 189.307 315.95 189.307 315.95L190.829 319.91C190.829 319.91 182.598 319.608 176.502 322.959C170.406 326.311 167.356 330.275 167.356 330.275L164.612 327.225Z"
    fill="white" stroke="#2E353A" stroke-width="0.660497" stroke-linecap="round" stroke-linejoin="round"/>
  <path
    d="M210 351L191.909 318.666C191.909 318.666 185.049 316.865 176.817 320.216C168.586 323.567 165.229 329.968 165.229 329.968L168.691 351H210Z"
    fill="#2E353A" stroke="#2E353A" stroke-width="0.660497" stroke-linecap="round" stroke-linejoin="round"/>
  <path d="M138.99 259V256H146V254H138.99V251L135 255L138.99 259Z" fill="#E0E0E0"/>
  <path d="M165.01 251L165.01 254L158 254L158 256L165.01 256L165.01 259L169 255L165.01 251Z" fill="#E0E0E0"/>
  <defs>
    <filter id="filter0_d" x="61.5531" y="1.0958" width="216.894" height="299.59" filterUnits="userSpaceOnUse"
            color-interpolation-filters="sRGB">
      <feFlood flood-opacity="0" result="BackgroundImageFix"/>
      <feColorMatrix in="SourceAlpha" type="matrix" values="0 0 0 0 0 0 0 0 0 0 0 0 0 0 0 0 0 0 127 0"/>
      <feOffset/>
      <feGaussianBlur stdDeviation="2.41026"/>
      <feColorMatrix type="matrix" values="0 0 0 0 0 0 0 0 0 0 0 0 0 0 0 0 0 0 0.2 0"/>
      <feBlend mode="normal" in2="BackgroundImageFix" result="effect1_dropShadow"/>
      <feBlend mode="normal" in="SourceGraphic" in2="effect1_dropShadow" result="shape"/>
    </filter>
    <filter id="filter1_d" x="24.9434" y="0.123175" width="220.113" height="301.536" filterUnits="userSpaceOnUse"
            color-interpolation-filters="sRGB">
      <feFlood flood-opacity="0" result="BackgroundImageFix"/>
      <feColorMatrix in="SourceAlpha" type="matrix" values="0 0 0 0 0 0 0 0 0 0 0 0 0 0 0 0 0 0 127 0"/>
      <feOffset/>
      <feGaussianBlur stdDeviation="2.41026"/>
      <feColorMatrix type="matrix" values="0 0 0 0 0 0 0 0 0 0 0 0 0 0 0 0 0 0 0.2 0"/>
      <feBlend mode="normal" in2="BackgroundImageFix" result="effect1_dropShadow"/>
      <feBlend mode="normal" in="SourceGraphic" in2="effect1_dropShadow" result="shape"/>
    </filter>
    <filter id="filter2_d" x="53.1795" y="6.17948" width="197.641" height="287.423" filterUnits="userSpaceOnUse"
            color-interpolation-filters="sRGB">
      <feFlood flood-opacity="0" result="BackgroundImageFix"/>
      <feColorMatrix in="SourceAlpha" type="matrix" values="0 0 0 0 0 0 0 0 0 0 0 0 0 0 0 0 0 0 127 0"/>
      <feOffset/>
      <feGaussianBlur stdDeviation="2.41026"/>
      <feColorMatrix type="matrix" values="0 0 0 0 0 0 0 0 0 0 0 0 0 0 0 0 0 0 0.2 0"/>
      <feBlend mode="normal" in2="BackgroundImageFix" result="effect1_dropShadow"/>
      <feBlend mode="normal" in="SourceGraphic" in2="effect1_dropShadow" result="shape"/>
    </filter>
    <clipPath id="clip0">
      <rect width="18.0769" height="18.0769" fill="white" transform="translate(100.782 233.949)"/>
    </clipPath>
  </defs>
</svg>
