<svg width="175" height="45" viewBox="0 0 175 45" fill="none" xmlns="http://www.w3.org/2000/svg">
<path d="M20.4989 25.5029V20.5229H4.95889V25.5029H9.78889V43.1429H15.6689V25.5029H20.4989ZM23.115 20.5229V43.1429H28.995V20.5229H23.115ZM39.6005 43.1429V29.3129L50.4305 43.1429H56.3105V20.5229H50.4305V34.3829L39.6005 20.5229H33.7205V43.1429H39.6005ZM66.9344 25.5029H68.2844C72.3044 25.5029 74.7344 28.2029 74.7344 31.8329C74.7344 35.4929 72.3944 38.1629 68.2844 38.1629H66.9344V25.5029ZM69.7544 43.1429C75.9944 43.1429 80.8844 37.7729 80.8844 31.8329C80.8844 25.8329 75.9344 20.5229 69.7544 20.5229H61.0544V43.1429H69.7544ZM97.5084 20.5229H84.6384V43.1429H97.5084V38.1629H90.5184V34.2629H97.1184V29.2829H90.5184V25.5029H97.5084V20.5229ZM99.3778 20.5229L108.888 43.1429H113.448L123.108 20.5229H116.718L111.228 34.2929L105.768 20.5229H99.3778Z" fill="white"/>
<path d="M168.788 42.8571H134.757C134.644 42.7276 134.529 42.6 134.419 42.4685C130.913 38.2438 130.088 36.0383 129.286 33.7906C129.272 33.7166 133.537 34.6553 136.561 35.3305C136.561 35.3305 138.117 35.6879 140.392 36.0995C138.208 33.5583 136.911 30.3279 136.911 27.026C136.911 19.777 142.513 13.4425 140.492 8.32241C142.459 8.48132 144.563 12.4425 144.705 18.6359C146.797 15.768 147.672 10.5305 147.672 7.31921C147.672 3.99432 149.879 0.132102 152.088 0C150.119 3.21958 152.598 5.97968 154.801 12.8266C155.627 15.3985 155.522 19.7266 156.159 22.4713C156.371 16.7705 157.359 8.4526 161.003 5.58082C159.395 9.19735 161.241 13.7226 162.503 15.8982C164.54 19.4081 165.774 22.0674 165.774 27.0968C165.774 30.4689 164.52 33.6438 162.403 36.1257C164.81 35.6777 166.471 35.2737 166.471 35.2737L174.286 33.7606C174.286 33.7606 173.151 38.3944 168.788 42.8571Z" fill="white"/>
<circle cx="26" cy="15" r="3" fill="white"/>
</svg>
