<svg width="188" height="78" viewBox="0 0 188 78" fill="none" xmlns="http://www.w3.org/2000/svg">
<g clip-path="url(#clip0)">
<path d="M29.9374 32.5028V27.5228H14.3974V32.5028H19.2274V50.1428H25.1074V32.5028H29.9374ZM32.0435 34.7528V50.1428H37.4735V34.7528H32.0435ZM31.6835 28.8428C31.6835 30.5228 33.0635 31.9028 34.7435 31.9028C36.4235 31.9028 37.8035 30.5228 37.8035 28.8428C37.8035 27.1628 36.4235 25.7828 34.7435 25.7828C33.0635 25.7828 31.6835 27.1628 31.6835 28.8428ZM41.1841 50.1428H46.6141V41.9228C46.6141 39.9128 47.6341 38.7428 49.4641 38.7428C50.1541 38.7428 50.7541 38.9228 51.2341 39.4028C51.8041 39.9428 51.9841 40.8428 51.9841 42.3728V50.1428H57.4141V40.3628C57.4141 38.7428 57.1441 37.4828 56.2741 36.4328C55.1941 35.1428 53.6641 34.4228 51.5341 34.4228C49.4941 34.4228 48.1141 34.9028 46.6141 36.7028V34.7528H41.1841V50.1428ZM67.496 32.5028H68.846C72.866 32.5028 75.296 35.2028 75.296 38.8328C75.296 42.4928 72.956 45.1628 68.846 45.1628H67.496V32.5028ZM70.316 50.1428C76.556 50.1428 81.446 44.7728 81.446 38.8328C81.446 32.8328 76.496 27.5228 70.316 27.5228H61.616V50.1428H70.316ZM98.0699 27.5228H85.1999V50.1428H98.0699V45.1628H91.0799V41.2628H97.6799V36.2828H91.0799V32.5028H98.0699V27.5228ZM99.9393 27.5228L109.449 50.1428H114.009L123.669 27.5228H117.279L111.789 41.2928L106.329 27.5228H99.9393Z" fill="black"/>
<path d="M173.788 49.8571H139.757C139.644 49.7276 139.529 49.6 139.419 49.4685C135.913 45.2438 135.088 43.0383 134.286 40.7906C134.272 40.7166 138.537 41.6553 141.561 42.3305C141.561 42.3305 143.117 42.6879 145.393 43.0995C143.208 40.5583 141.911 37.3279 141.911 34.026C141.911 26.777 147.513 20.4425 145.492 15.3224C147.459 15.4813 149.563 19.4425 149.705 25.6359C151.797 22.768 152.672 17.5305 152.672 14.3192C152.672 10.9943 154.879 7.1321 157.088 7C155.119 10.2196 157.598 12.9797 159.801 19.8266C160.627 22.3985 160.522 26.7266 161.159 29.4713C161.371 23.7705 162.359 15.4526 166.003 12.5808C164.395 16.1973 166.241 20.7226 167.503 22.8982C169.54 26.4081 170.774 29.0674 170.774 34.0968C170.774 37.4689 169.52 40.6438 167.403 43.1257C169.81 42.6777 171.471 42.2737 171.471 42.2737L179.286 40.7606C179.286 40.7606 178.151 45.3944 173.788 49.8571Z" fill="#FFA1C3"/>
<path d="M18.208 70H20.464C22.48 70 23.548 68.908 23.548 67.456C23.548 66.34 22.9 65.476 21.844 65.164C22.432 64.732 22.732 64.144 22.732 63.412C22.732 62.044 21.904 60.952 19.852 60.952H18.208V70ZM19.228 61.888H20.008C21.172 61.888 21.748 62.404 21.748 63.424C21.748 64.444 21.148 64.948 19.984 64.948H19.228V61.888ZM19.228 65.8H20.248C21.964 65.8 22.54 66.472 22.54 67.42C22.54 68.104 22.084 68.764 21.412 68.956C21.172 69.016 20.824 69.052 20.38 69.052H19.228V65.8ZM32.9633 67.384V67.216C32.9633 65.416 31.8953 64.24 30.2753 64.24C28.6313 64.24 27.5513 65.464 27.5513 67.216C27.5513 68.932 28.6673 70.156 30.3233 70.156C31.4393 70.156 32.2913 69.628 32.9153 68.56L32.0993 68.104C31.5713 68.98 31.1153 69.28 30.3593 69.28C29.3393 69.28 28.6193 68.536 28.5713 67.384H32.9633ZM28.6313 66.568C28.7753 65.74 29.4593 65.116 30.2873 65.116C31.1273 65.116 31.7753 65.692 31.9433 66.568H28.6313ZM45.8217 65.26V64.36H44.6337V62.332H43.6617V64.36H43.0737V65.26H43.6617V67.888C43.6617 69.58 44.5017 70.156 45.6177 70.156L45.8217 69.28C44.9577 69.28 44.6337 68.896 44.6337 67.72V65.26H45.8217ZM49.9139 70H50.8859V67.192C50.8859 65.74 51.3059 65.116 52.3019 65.116C53.1299 65.116 53.4779 65.536 53.4779 66.568V70H54.4379V66.508C54.4379 65.74 54.2939 65.2 53.9939 64.864C53.6339 64.444 53.1299 64.24 52.4939 64.24C51.8699 64.24 51.3299 64.504 50.8859 65.02V60.1H49.9139V70ZM64.1009 67.384V67.216C64.1009 65.416 63.0329 64.24 61.4129 64.24C59.7689 64.24 58.6889 65.464 58.6889 67.216C58.6889 68.932 59.8049 70.156 61.4609 70.156C62.5769 70.156 63.4289 69.628 64.0529 68.56L63.2369 68.104C62.7089 68.98 62.2529 69.28 61.4969 69.28C60.4769 69.28 59.7569 68.536 59.7089 67.384H64.1009ZM59.7689 66.568C59.9129 65.74 60.5969 65.116 61.4249 65.116C62.2649 65.116 62.9129 65.692 63.0809 66.568H59.7689ZM74.7994 70H75.7714V67.18C75.7714 65.728 76.1794 65.104 77.1634 65.104C77.6074 65.104 77.9074 65.224 78.0874 65.452C78.2554 65.692 78.3514 66.088 78.3514 66.676V70H79.3234V66.496C79.3234 65.74 79.1674 65.188 78.8794 64.852C78.5314 64.432 78.0274 64.228 77.3794 64.228C76.7554 64.228 76.2154 64.504 75.7714 65.044V64.36H74.7994V70ZM88.9747 67.384V67.216C88.9747 65.416 87.9067 64.24 86.2867 64.24C84.6427 64.24 83.5627 65.464 83.5627 67.216C83.5627 68.932 84.6787 70.156 86.3347 70.156C87.4507 70.156 88.3027 69.628 88.9267 68.56L88.1107 68.104C87.5827 68.98 87.1267 69.28 86.3707 69.28C85.3507 69.28 84.6307 68.536 84.5827 67.384H88.9747ZM84.6427 66.568C84.7867 65.74 85.4707 65.116 86.2987 65.116C87.1387 65.116 87.7867 65.692 87.9547 66.568H84.6427ZM92.2065 70H93.4185L95.2065 67.708L96.9945 70H98.1585L95.8185 67L97.8825 64.36H96.6825L95.2065 66.28L93.7425 64.36H92.5665L94.6185 67L92.2065 70ZM104.107 65.26V64.36H102.919V62.332H101.947V64.36H101.359V65.26H101.947V67.888C101.947 69.58 102.787 70.156 103.903 70.156L104.107 69.28C103.243 69.28 102.919 68.896 102.919 67.72V65.26H104.107ZM114.914 69.484C114.914 69.844 115.214 70.144 115.574 70.144C115.934 70.144 116.234 69.844 116.234 69.484C116.234 69.124 115.934 68.824 115.574 68.824C115.214 68.824 114.914 69.124 114.914 69.484ZM121.125 70H122.097V66.94C122.097 65.716 122.505 65.104 123.321 65.104C124.005 65.104 124.353 65.62 124.353 66.652V70H125.325V66.868C125.325 65.692 125.721 65.104 126.537 65.104C127.245 65.104 127.545 65.548 127.545 66.58V70H128.505V66.424C128.505 65.716 128.373 65.188 128.097 64.84C127.773 64.42 127.281 64.228 126.681 64.228C125.937 64.228 125.385 64.528 125.025 65.14C124.701 64.528 124.185 64.228 123.489 64.228C122.925 64.228 122.457 64.48 122.097 64.972V64.36H121.125V70ZM137.404 65.164C136.876 64.54 136.216 64.228 135.436 64.228C133.876 64.228 132.748 65.44 132.748 67.168C132.748 68.896 133.9 70.156 135.46 70.156C136.228 70.156 136.876 69.844 137.404 69.22V70H138.376V64.36H137.404V65.164ZM133.732 67.144C133.732 65.968 134.56 65.104 135.592 65.104C136.684 65.104 137.464 65.956 137.464 67.18C137.464 68.392 136.72 69.28 135.58 69.28C134.488 69.28 133.732 68.368 133.732 67.144ZM145.141 65.26V64.36H143.953V62.332H142.981V64.36H142.393V65.26H142.981V67.888C142.981 69.58 143.821 70.156 144.937 70.156L145.141 69.28C144.277 69.28 143.953 68.896 143.953 67.72V65.26H145.141ZM153.625 64.768C153.061 64.42 152.485 64.24 151.873 64.24C150.145 64.24 148.873 65.548 148.873 67.216C148.873 68.896 150.205 70.156 151.861 70.156C152.449 70.156 153.061 69.964 153.661 69.58V68.296C152.965 69.04 152.569 69.28 151.825 69.28C150.721 69.28 149.857 68.404 149.857 67.204C149.857 66.004 150.733 65.116 151.849 65.116C152.569 65.116 153.001 65.368 153.625 66.04V64.768ZM158.028 70H159V67.192C159 65.74 159.42 65.116 160.416 65.116C161.244 65.116 161.592 65.536 161.592 66.568V70H162.552V66.508C162.552 65.74 162.408 65.2 162.108 64.864C161.748 64.444 161.244 64.24 160.608 64.24C159.984 64.24 159.444 64.504 159 65.02V60.1H158.028V70ZM168.495 60.04C167.655 62.056 167.367 64.192 167.367 66.244C167.367 68.368 167.655 70.564 168.495 72.436L169.359 72.04C168.687 70.288 168.351 68.356 168.351 66.244C168.351 64.132 168.687 62.2 169.359 60.448L168.495 60.04ZM174.712 72.436C175.552 70.42 175.84 68.296 175.84 66.244C175.84 64.108 175.552 61.924 174.712 60.04L173.848 60.448C174.52 62.188 174.868 64.12 174.868 66.244C174.868 68.368 174.52 70.3 173.848 72.04L174.712 72.436Z" fill="black"/>
</g>
<defs>
<clipPath id="clip0">
<rect width="188" height="78" fill="white"/>
</clipPath>
</defs>
</svg>
