<svg width="188" height="78" viewBox="0 0 188 78" fill="none" xmlns="http://www.w3.org/2000/svg">
<g clip-path="url(#clip0)">
<path d="M29.9374 32.5028V27.5228H14.3974V32.5028H19.2274V50.1428H25.1074V32.5028H29.9374ZM32.0435 34.7528V50.1428H37.4735V34.7528H32.0435ZM31.6835 28.8428C31.6835 30.5228 33.0635 31.9028 34.7435 31.9028C36.4235 31.9028 37.8035 30.5228 37.8035 28.8428C37.8035 27.1628 36.4235 25.7828 34.7435 25.7828C33.0635 25.7828 31.6835 27.1628 31.6835 28.8428ZM41.1841 50.1428H46.6141V41.9228C46.6141 39.9128 47.6341 38.7428 49.4641 38.7428C50.1541 38.7428 50.7541 38.9228 51.2341 39.4028C51.8041 39.9428 51.9841 40.8428 51.9841 42.3728V50.1428H57.4141V40.3628C57.4141 38.7428 57.1441 37.4828 56.2741 36.4328C55.1941 35.1428 53.6641 34.4228 51.5341 34.4228C49.4941 34.4228 48.1141 34.9028 46.6141 36.7028V34.7528H41.1841V50.1428ZM67.496 32.5028H68.846C72.866 32.5028 75.296 35.2028 75.296 38.8328C75.296 42.4928 72.956 45.1628 68.846 45.1628H67.496V32.5028ZM70.316 50.1428C76.556 50.1428 81.446 44.7728 81.446 38.8328C81.446 32.8328 76.496 27.5228 70.316 27.5228H61.616V50.1428H70.316ZM98.0699 27.5228H85.1999V50.1428H98.0699V45.1628H91.0799V41.2628H97.6799V36.2828H91.0799V32.5028H98.0699V27.5228ZM99.9393 27.5228L109.449 50.1428H114.009L123.669 27.5228H117.279L111.789 41.2928L106.329 27.5228H99.9393Z" fill="black"/>
<path d="M173.788 49.8571H139.757C139.644 49.7276 139.529 49.6 139.419 49.4685C135.913 45.2438 135.088 43.0383 134.286 40.7906C134.272 40.7166 138.537 41.6553 141.561 42.3305C141.561 42.3305 143.117 42.6879 145.393 43.0995C143.208 40.5583 141.911 37.3279 141.911 34.026C141.911 26.777 147.513 20.4425 145.492 15.3224C147.459 15.4813 149.563 19.4425 149.705 25.6359C151.797 22.768 152.672 17.5305 152.672 14.3192C152.672 10.9943 154.879 7.1321 157.088 7C155.119 10.2196 157.598 12.9797 159.801 19.8266C160.627 22.3985 160.522 26.7266 161.159 29.4713C161.371 23.7705 162.359 15.4526 166.003 12.5808C164.395 16.1973 166.241 20.7226 167.503 22.8982C169.54 26.4081 170.774 29.0674 170.774 34.0968C170.774 37.4689 169.52 40.6438 167.403 43.1257C169.81 42.6777 171.471 42.2737 171.471 42.2737L179.286 40.7606C179.286 40.7606 178.151 45.3944 173.788 49.8571Z" fill="#FFA1C3"/>
<path d="M11.642 71H14.086C16.27 71 17.427 69.817 17.427 68.244C17.427 67.035 16.725 66.099 15.581 65.761C16.218 65.293 16.543 64.656 16.543 63.863C16.543 62.381 15.646 61.198 13.423 61.198H11.642V71ZM12.747 62.212H13.592C14.853 62.212 15.477 62.771 15.477 63.876C15.477 64.981 14.827 65.527 13.566 65.527H12.747V62.212ZM12.747 66.45H13.852C15.711 66.45 16.335 67.178 16.335 68.205C16.335 68.946 15.841 69.661 15.113 69.869C14.853 69.934 14.476 69.973 13.995 69.973H12.747V66.45ZM27.6269 68.166V67.984C27.6269 66.034 26.4699 64.76 24.7149 64.76C22.9339 64.76 21.7639 66.086 21.7639 67.984C21.7639 69.843 22.9729 71.169 24.7669 71.169C25.9759 71.169 26.8989 70.597 27.5749 69.44L26.6909 68.946C26.1189 69.895 25.6249 70.22 24.8059 70.22C23.7009 70.22 22.9209 69.414 22.8689 68.166H27.6269ZM22.9339 67.282C23.0899 66.385 23.8309 65.709 24.7279 65.709C25.6379 65.709 26.3399 66.333 26.5219 67.282H22.9339ZM41.5569 65.865V64.89H40.2699V62.693H39.2169V64.89H38.5799V65.865H39.2169V68.712C39.2169 70.545 40.1269 71.169 41.3359 71.169L41.5569 70.22C40.6209 70.22 40.2699 69.804 40.2699 68.53V65.865H41.5569ZM45.9901 71H47.0431V67.958C47.0431 66.385 47.4981 65.709 48.5771 65.709C49.4741 65.709 49.8511 66.164 49.8511 67.282V71H50.8911V67.217C50.8911 66.385 50.7351 65.8 50.4101 65.436C50.0201 64.981 49.4741 64.76 48.7851 64.76C48.1091 64.76 47.5241 65.046 47.0431 65.605V60.275H45.9901V71ZM61.3593 68.166V67.984C61.3593 66.034 60.2023 64.76 58.4473 64.76C56.6663 64.76 55.4963 66.086 55.4963 67.984C55.4963 69.843 56.7053 71.169 58.4993 71.169C59.7083 71.169 60.6313 70.597 61.3073 69.44L60.4233 68.946C59.8513 69.895 59.3573 70.22 58.5383 70.22C57.4333 70.22 56.6533 69.414 56.6013 68.166H61.3593ZM56.6663 67.282C56.8223 66.385 57.5633 65.709 58.4603 65.709C59.3703 65.709 60.0723 66.333 60.2543 67.282H56.6663ZM72.9493 71H74.0023V67.945C74.0023 66.372 74.4443 65.696 75.5103 65.696C75.9913 65.696 76.3163 65.826 76.5113 66.073C76.6933 66.333 76.7973 66.762 76.7973 67.399V71H77.8503V67.204C77.8503 66.385 77.6813 65.787 77.3693 65.423C76.9923 64.968 76.4463 64.747 75.7443 64.747C75.0683 64.747 74.4833 65.046 74.0023 65.631V64.89H72.9493V71ZM88.3059 68.166V67.984C88.3059 66.034 87.1489 64.76 85.3939 64.76C83.6129 64.76 82.4429 66.086 82.4429 67.984C82.4429 69.843 83.6519 71.169 85.4459 71.169C86.6549 71.169 87.5779 70.597 88.2539 69.44L87.3699 68.946C86.7979 69.895 86.3039 70.22 85.4849 70.22C84.3799 70.22 83.5999 69.414 83.5479 68.166H88.3059ZM83.6129 67.282C83.7689 66.385 84.5099 65.709 85.4069 65.709C86.3169 65.709 87.0189 66.333 87.2009 67.282H83.6129ZM91.8071 71H93.1201L95.0571 68.517L96.9941 71H98.2551L95.7201 67.75L97.9561 64.89H96.6561L95.0571 66.97L93.4711 64.89H92.1971L94.4201 67.75L91.8071 71ZM104.699 65.865V64.89H103.412V62.693H102.359V64.89H101.722V65.865H102.359V68.712C102.359 70.545 103.269 71.169 104.478 71.169L104.699 70.22C103.763 70.22 103.412 69.804 103.412 68.53V65.865H104.699ZM116.407 70.441C116.407 70.831 116.732 71.156 117.122 71.156C117.512 71.156 117.837 70.831 117.837 70.441C117.837 70.051 117.512 69.726 117.122 69.726C116.732 69.726 116.407 70.051 116.407 70.441ZM123.135 71H124.188V67.685C124.188 66.359 124.63 65.696 125.514 65.696C126.255 65.696 126.632 66.255 126.632 67.373V71H127.685V67.607C127.685 66.333 128.114 65.696 128.998 65.696C129.765 65.696 130.09 66.177 130.09 67.295V71H131.13V67.126C131.13 66.359 130.987 65.787 130.688 65.41C130.337 64.955 129.804 64.747 129.154 64.747C128.348 64.747 127.75 65.072 127.36 65.735C127.009 65.072 126.45 64.747 125.696 64.747C125.085 64.747 124.578 65.02 124.188 65.553V64.89H123.135V71ZM140.771 65.761C140.199 65.085 139.484 64.747 138.639 64.747C136.949 64.747 135.727 66.06 135.727 67.932C135.727 69.804 136.975 71.169 138.665 71.169C139.497 71.169 140.199 70.831 140.771 70.155V71H141.824V64.89H140.771V65.761ZM136.793 67.906C136.793 66.632 137.69 65.696 138.808 65.696C139.991 65.696 140.836 66.619 140.836 67.945C140.836 69.258 140.03 70.22 138.795 70.22C137.612 70.22 136.793 69.232 136.793 67.906ZM149.153 65.865V64.89H147.866V62.693H146.813V64.89H146.176V65.865H146.813V68.712C146.813 70.545 147.723 71.169 148.932 71.169L149.153 70.22C148.217 70.22 147.866 69.804 147.866 68.53V65.865H149.153ZM158.344 65.332C157.733 64.955 157.109 64.76 156.446 64.76C154.574 64.76 153.196 66.177 153.196 67.984C153.196 69.804 154.639 71.169 156.433 71.169C157.07 71.169 157.733 70.961 158.383 70.545V69.154C157.629 69.96 157.2 70.22 156.394 70.22C155.198 70.22 154.262 69.271 154.262 67.971C154.262 66.671 155.211 65.709 156.42 65.709C157.2 65.709 157.668 65.982 158.344 66.71V65.332ZM163.114 71H164.167V67.958C164.167 66.385 164.622 65.709 165.701 65.709C166.598 65.709 166.975 66.164 166.975 67.282V71H168.015V67.217C168.015 66.385 167.859 65.8 167.534 65.436C167.144 64.981 166.598 64.76 165.909 64.76C165.233 64.76 164.648 65.046 164.167 65.605V60.275H163.114V71ZM174.453 60.21C173.543 62.394 173.231 64.708 173.231 66.931C173.231 69.232 173.543 71.611 174.453 73.639L175.389 73.21C174.661 71.312 174.297 69.219 174.297 66.931C174.297 64.643 174.661 62.55 175.389 60.652L174.453 60.21ZM181.188 73.639C182.098 71.455 182.41 69.154 182.41 66.931C182.41 64.617 182.098 62.251 181.188 60.21L180.252 60.652C180.98 62.537 181.357 64.63 181.357 66.931C181.357 69.232 180.98 71.325 180.252 73.21L181.188 73.639Z" fill="black"/>
</g>
<defs>
<clipPath id="clip0">
<rect width="188" height="78" fill="white"/>
</clipPath>
</defs>
</svg>
