<svg width="52" height="28" viewBox="0 0 52 28" fill="none" xmlns="http://www.w3.org/2000/svg">
  <g clip-path="url(#clip0)">
    <path
      d="M40.1911 8.76905C39.6161 9.21715 38.9043 9.45845 38.1725 9.45336C37.3475 9.45336 36.5563 9.12887 35.9729 8.55125C35.3895 7.97364 35.0618 7.19023 35.0618 6.37336C35.0618 5.55649 35.3895 4.77309 35.9729 4.19548C36.5563 3.61787 37.3475 3.29336 38.1725 3.29336C38.9038 3.29122 39.6146 3.5322 40.1911 3.97769L40.8642 3.31129C40.1056 2.69447 39.1541 2.35792 38.1725 2.35928C37.6309 2.34512 37.092 2.43852 36.5874 2.63395C36.0829 2.82938 35.623 3.12288 35.2348 3.49716C34.8467 3.87143 34.5383 4.31888 34.3276 4.81311C34.117 5.30734 34.0085 5.83833 34.0085 6.37476C34.0085 6.91119 34.117 7.44218 34.3276 7.93641C34.5383 8.43064 34.8467 8.87811 35.2348 9.25238C35.623 9.62666 36.0829 9.92016 36.5874 10.1156C37.092 10.311 37.6309 10.4044 38.1725 10.3902C39.1546 10.3947 40.1072 10.0578 40.8642 9.43825L40.1911 8.76905Z"
      fill="black"/>
    <path
      d="M27.9156 15.9354C28.0379 15.9354 28.1574 15.8995 28.2591 15.8322C28.3607 15.765 28.44 15.6694 28.4868 15.5575C28.5335 15.4457 28.5458 15.3226 28.5219 15.2039C28.4981 15.0852 28.4392 14.9761 28.3528 14.8905C28.2663 14.8049 28.1561 14.7466 28.0362 14.723C27.9163 14.6994 27.792 14.7115 27.6791 14.7578C27.5661 14.8041 27.4696 14.8826 27.4016 14.9832C27.3337 15.0839 27.2975 15.2022 27.2975 15.3233C27.2985 15.4853 27.3639 15.6404 27.4797 15.755C27.5954 15.8695 27.752 15.9343 27.9156 15.9354Z"
      fill="black"/>
    <path d="M27.4247 17.0699H28.3704V25.1009H27.4247V17.0699Z" fill="black"/>
    <path
      d="M7.83846 6.37393C7.84996 5.32898 7.44328 4.322 6.70727 3.57301C5.97126 2.82401 4.96576 2.3939 3.91046 2.37665C3.34537 2.3764 2.7871 2.49883 2.27495 2.7353C1.76281 2.97176 1.30926 3.31651 0.946228 3.74529V2.37665H0V13.3067H0.945659V9.00313C1.30631 9.43593 1.75896 9.78459 2.27135 10.0243C2.78373 10.2639 3.34321 10.3887 3.90989 10.3897C4.96798 10.3713 5.97555 9.93832 6.71182 9.1857C7.4481 8.43309 7.85303 7.42218 7.8379 6.37449L7.83846 6.37393ZM3.91046 9.45393C3.12539 9.44057 2.37652 9.12462 1.823 8.57322C1.26948 8.02182 0.954946 7.27845 0.946228 6.50106V6.37506C0.974235 5.80062 1.17188 5.24694 1.51467 4.78266C1.85746 4.31838 2.33032 3.96392 2.87464 3.7632C3.41896 3.56247 4.01081 3.52432 4.57682 3.65346C5.14283 3.78261 5.65811 4.07337 6.05881 4.48972C6.45951 4.90607 6.728 5.42969 6.83101 5.99568C6.93401 6.56167 6.86699 7.14516 6.63826 7.6738C6.40953 8.20244 6.02915 8.653 5.54427 8.96964C5.05938 9.28627 4.49131 9.45505 3.91046 9.45506V9.45393Z"
      fill="black"/>
    <path
      d="M11.4022 25.1009C11.9689 25.0999 12.5284 24.9751 13.0408 24.7355C13.5532 24.4958 14.0058 24.1471 14.3665 23.7143V25.1188H15.3121V17.0878H14.3665V18.4565C14.0061 18.0246 13.5531 17.6777 13.0404 17.4409C12.5276 17.2042 11.968 17.0836 11.4022 17.0878C10.3475 17.1155 9.34544 17.5497 8.60933 18.298C7.87323 19.0464 7.4613 20.0498 7.4613 21.0944C7.4613 22.139 7.87323 23.1423 8.60933 23.8907C9.34544 24.6391 10.3475 25.0733 11.4022 25.1009ZM8.43799 21.0689C8.4224 20.6738 8.48752 20.2797 8.62946 19.9101C8.77141 19.5406 8.98724 19.2032 9.26403 18.9182C9.54082 18.6333 9.87287 18.4065 10.2403 18.2517C10.6077 18.0968 11.0029 18.017 11.4022 18.017C11.8015 18.017 12.1968 18.0968 12.5642 18.2517C12.9316 18.4065 13.2636 18.6333 13.5404 18.9182C13.8172 19.2032 14.033 19.5406 14.175 19.9101C14.3169 20.2797 14.3821 20.6738 14.3665 21.0689V21.1949C14.3683 21.587 14.2908 21.9755 14.1386 22.3375C13.9864 22.6995 13.7625 23.0276 13.4801 23.3025C13.1978 23.5774 12.8626 23.7936 12.4946 23.9382C12.1265 24.0829 11.7328 24.153 11.3369 24.1446C10.941 24.1362 10.5508 24.0494 10.1893 23.8892C9.82779 23.7291 9.50235 23.4989 9.23216 23.2122C8.96197 22.9256 8.7525 22.5882 8.6161 22.2201C8.4797 21.852 8.41914 21.4606 8.43799 21.0689Z"
      fill="black"/>
    <path
      d="M25.6787 21.0672C25.6902 20.0222 25.2835 19.0153 24.5475 18.2663C23.8115 17.5173 22.806 17.0872 21.7507 17.0699C21.1856 17.0697 20.6274 17.1921 20.1152 17.4286C19.6031 17.665 19.1495 18.0098 18.7865 18.4386V17.0699H17.8403V28H18.7859V23.6964C19.1466 24.1292 19.5992 24.4779 20.1116 24.7175C20.624 24.9572 21.1835 25.082 21.7502 25.083C22.2745 25.0753 22.7922 24.9653 23.2736 24.7593C23.755 24.5532 24.1906 24.2552 24.5555 23.8822C24.9203 23.5092 25.2073 23.0687 25.3999 22.5857C25.5926 22.1028 25.6871 21.5869 25.6782 21.0678L25.6787 21.0672ZM21.7507 24.1472C20.9657 24.1338 20.2168 23.8179 19.6633 23.2665C19.1098 22.7151 18.7952 21.9717 18.7865 21.1943V21.0683C18.8145 20.4939 19.0121 19.9402 19.3549 19.4759C19.6977 19.0116 20.1706 18.6572 20.7149 18.4564C21.2592 18.2557 21.8511 18.2176 22.4171 18.3467C22.9831 18.4759 23.4984 18.7666 23.8991 19.183C24.2998 19.5993 24.5683 20.123 24.6713 20.6889C24.7743 21.2549 24.7072 21.8384 24.4785 22.3671C24.2498 22.8957 23.8694 23.3463 23.3845 23.6629C22.8996 23.9795 22.3316 24.1483 21.7507 24.1483V24.1472Z"
      fill="black"/>
    <path
      d="M14.9852 2.37665V7.11257C14.9857 7.42244 14.9243 7.72938 14.8048 8.01575C14.6852 8.30212 14.5098 8.56231 14.2885 8.78143C14.0672 9.00054 13.8044 9.17427 13.5151 9.29265C13.2259 9.41103 12.9159 9.47173 12.603 9.47129C12.2919 9.47103 11.984 9.40957 11.6971 9.2905C11.4102 9.17142 11.1501 8.9971 10.9318 8.77765C10.7135 8.5582 10.5415 8.298 10.4256 8.01216C10.3098 7.72632 10.2524 7.42053 10.2569 7.11257V2.37665H9.31125V7.11257C9.2997 7.54999 9.37674 7.98527 9.53782 8.39273C9.6989 8.8002 9.94077 9.17161 10.2492 9.48503C10.5575 9.79846 10.9262 10.0476 11.3334 10.2177C11.7405 10.3877 12.178 10.4754 12.6199 10.4754C13.0619 10.4754 13.4993 10.3877 13.9065 10.2177C14.3137 10.0476 14.6823 9.79846 14.9907 9.48503C15.2991 9.17161 15.541 8.8002 15.702 8.39273C15.8631 7.98527 15.9402 7.54999 15.9286 7.11257V2.37665H14.9852Z"
      fill="black"/>
    <path
      d="M21.7502 2.37662C21.1835 2.3776 20.624 2.50238 20.1116 2.74205C19.5992 2.98173 19.1466 3.33039 18.7859 3.76319V0.0179138H17.8403V10.4076H18.7859V9.02103C19.1463 9.45292 19.5993 9.79984 20.112 10.0366C20.6248 10.2733 21.1844 10.394 21.7502 10.3897C22.8048 10.3621 23.807 9.92783 24.5431 9.17947C25.2792 8.43111 25.6911 7.42777 25.6911 6.38315C25.6911 5.33852 25.2792 4.33518 24.5431 3.58682C23.807 2.83846 22.8048 2.40423 21.7502 2.37662ZM24.7144 6.39183C24.73 6.7869 24.6649 7.18102 24.5229 7.55057C24.381 7.92012 24.1652 8.2575 23.8884 8.54248C23.6116 8.82746 23.2795 9.05417 22.9121 9.20904C22.5447 9.3639 22.1495 9.44372 21.7502 9.44372C21.3508 9.44372 20.9556 9.3639 20.5882 9.20904C20.2208 9.05417 19.8888 8.82746 19.612 8.54248C19.3352 8.2575 19.1193 7.92012 18.9774 7.55057C18.8355 7.18102 18.7703 6.7869 18.7859 6.39183V6.26582C18.7841 5.87372 18.8615 5.48523 19.0138 5.12325C19.166 4.76127 19.3899 4.43313 19.6723 4.1582C19.9546 3.88328 20.2897 3.66712 20.6578 3.52249C21.0259 3.37786 21.4196 3.30769 21.8155 3.3161C22.2114 3.32451 22.6016 3.41135 22.9631 3.57149C23.3246 3.73163 23.65 3.96182 23.9202 4.24849C24.1904 4.53516 24.3999 4.87251 24.5363 5.24062C24.6727 5.60874 24.7333 6.00016 24.7144 6.39183Z"
      fill="black"/>
    <path
      d="M31.6434 1.22417C31.7657 1.22417 31.8852 1.18827 31.9869 1.12101C32.0885 1.05376 32.1678 0.958153 32.2145 0.84631C32.2613 0.734467 32.2736 0.611402 32.2497 0.49267C32.2259 0.373938 32.167 0.264877 32.0806 0.179276C31.9941 0.0936754 31.8839 0.0353789 31.764 0.0117617C31.6441 -0.0118556 31.5198 0.000263895 31.4068 0.0465908C31.2939 0.0929177 31.1973 0.171367 31.1294 0.272023C31.0615 0.372679 31.0252 0.491019 31.0252 0.612077C31.0301 0.772896 31.0967 0.925829 31.2116 1.0396C31.3266 1.15336 31.481 1.21938 31.6434 1.22417Z"
      fill="black"/>
    <path d="M31.1711 2.37665H32.1168V10.4076H31.1711V2.37665Z" fill="black"/>
    <path
      d="M43.592 1.22417C43.7143 1.22417 43.8338 1.18827 43.9354 1.12101C44.0371 1.05376 44.1163 0.958153 44.1631 0.84631C44.2099 0.734467 44.2222 0.611402 44.1983 0.49267C44.1745 0.373938 44.1156 0.264877 44.0291 0.179276C43.9427 0.0936754 43.8325 0.0353789 43.7126 0.0117617C43.5927 -0.0118556 43.4684 0.000263895 43.3554 0.0465908C43.2425 0.0929177 43.1459 0.171367 43.078 0.272023C43.0101 0.372679 42.9738 0.491019 42.9738 0.612077C42.9731 0.692643 42.9887 0.772549 43.0195 0.847113C43.0503 0.921677 43.0958 0.98941 43.1534 1.04638C43.2109 1.10335 43.2793 1.14841 43.3546 1.17893C43.4299 1.20945 43.5106 1.22484 43.592 1.22417Z"
      fill="black"/>
    <path d="M43.1192 2.37665H44.0648V10.4076H43.1192V2.37665Z" fill="black"/>
    <path
      d="M43.519 17.0699C43.0734 17.0677 42.6321 17.156 42.2224 17.3294C41.8126 17.5028 41.4431 17.7575 41.1368 18.0779V17.0699H40.2092V25.1009H41.1368V20.3471C41.1519 19.7279 41.4083 19.1384 41.8523 18.7021C42.2963 18.2658 42.8936 18.0165 43.519 18.0062C43.8297 18.0057 44.1374 18.0658 44.4245 18.1832C44.7116 18.3007 44.9724 18.4731 45.1921 18.6905C45.4117 18.908 45.5858 19.1663 45.7044 19.4506C45.823 19.7348 45.8838 20.0395 45.8832 20.3471V25.1009H46.8266V20.3471C46.8204 19.4802 46.47 18.6506 45.8511 18.0374C45.2322 17.4242 44.3945 17.0767 43.519 17.0699Z"
      fill="black"/>
    <path
      d="M51.7574 24.1825L51.6663 24.2004C51.5181 24.2359 51.3663 24.2547 51.2139 24.2564C50.8321 24.2564 50.6681 24.0223 50.6681 23.4461V17.9721H51.7958V17.0537H50.6664V14.3511H49.6845V17.052H48.5567V17.9704H49.6845V23.4623C49.6377 23.9048 49.7611 24.3485 50.0301 24.705C50.1521 24.8345 50.3016 24.9356 50.4679 25.001C50.6342 25.0664 50.813 25.0944 50.9916 25.0829C51.2523 25.096 51.5128 25.053 51.7551 24.957L51.8117 24.939L51.7574 24.1825Z"
      fill="black"/>
    <path
      d="M36.8446 22.7959C36.5822 23.2173 36.2158 23.5656 35.78 23.8082C35.3441 24.0508 34.8531 24.1796 34.3531 24.1825C33.5798 24.1701 32.84 23.8676 32.2831 23.3362C31.7262 22.8048 31.3937 22.0839 31.3527 21.3192H37.7908C37.9108 21.3219 38.0272 21.2783 38.1154 21.1976C38.2036 21.117 38.2568 21.0056 38.2636 20.8869V20.8146C38.1833 20.0667 37.8858 19.3578 37.4071 18.7738C36.9284 18.1897 36.289 17.7555 35.5663 17.5237C34.8436 17.2919 34.0686 17.2724 33.3349 17.4675C32.6013 17.6627 31.9405 18.0641 31.4324 18.6234C30.9244 19.1826 30.5909 19.8756 30.4722 20.6185C30.3536 21.3614 30.455 22.1225 30.764 22.8096C31.0731 23.4967 31.5766 24.0804 32.2136 24.4901C32.8507 24.8999 33.594 25.118 34.3537 25.1182C35.0089 25.1181 35.6532 24.9527 36.226 24.6377C36.7987 24.3228 37.281 23.8685 37.6273 23.3178L36.8446 22.7959ZM34.3531 18.0062C35.0397 18.0156 35.702 18.2587 36.2287 18.6949C36.7554 19.131 37.1143 19.7334 37.245 20.4008H31.4251C31.5633 19.7304 31.9292 19.1272 32.462 18.6915C32.9947 18.2558 33.6622 18.0139 34.3531 18.0062Z"
      fill="black"/>
    <path
      d="M5.29446 21.2296C5.13676 21.1091 4.96604 21.0064 4.78543 20.9233C4.31105 20.7465 3.82502 20.6021 3.33074 20.491C3.22159 20.473 3.11243 20.435 3.02137 20.4187C2.57381 20.3238 2.14815 20.1467 1.76634 19.8968C1.64614 19.8132 1.54736 19.7029 1.47793 19.5747C1.40849 19.4466 1.37032 19.3041 1.36647 19.1587C1.38372 18.9943 1.4385 18.8359 1.52669 18.6955C1.61487 18.5551 1.73415 18.4364 1.87549 18.3484C2.30836 18.0625 2.82845 17.9351 3.34602 17.9883C3.98623 18.0604 4.589 18.3241 5.07388 18.7443L5.13044 18.7802L5.82159 18.1502C5.73053 18.0779 5.71243 18.06 5.49411 17.8981C4.88168 17.4401 4.14965 17.1651 3.38447 17.1057C2.68173 17.0549 1.97947 17.2107 1.3659 17.5538C1.09153 17.7209 0.861248 17.9502 0.694066 18.2229C0.526883 18.4955 0.427594 18.8036 0.404403 19.1217C0.391584 19.3645 0.433964 19.607 0.528427 19.8314C0.62289 20.0558 0.767024 20.2563 0.950192 20.4181C1.56807 20.9258 2.31816 21.2503 3.11413 21.3545C3.68461 21.4386 4.22711 21.6544 4.69777 21.9845C4.8585 22.0814 4.98922 22.2202 5.07562 22.3857C5.16201 22.5513 5.20076 22.7371 5.18763 22.923C5.17449 23.1089 5.10997 23.2876 5.00113 23.4396C4.89229 23.5916 4.74331 23.7111 4.57051 23.7849C4.13986 24.0781 3.62133 24.2177 3.09999 24.1808C2.25858 24.1139 1.46141 23.78 0.826892 23.2288L0.770339 23.1929L0.09729 23.805L0.170249 23.861C0.962784 24.5898 1.98319 25.0283 3.0621 25.1037C3.79102 25.15 4.51456 24.9528 5.11687 24.5437C5.40142 24.3741 5.64179 24.1407 5.81861 23.8623C5.99544 23.5839 6.10378 23.2684 6.13492 22.941C6.14873 22.6096 6.07958 22.28 5.93363 21.9815C5.78769 21.6831 5.56948 21.425 5.29842 21.2302L5.29446 21.2296Z"
      fill="black"/>
    <path
      d="M51.1595 6.53632C51.0018 6.41588 50.8311 6.31314 50.6505 6.23001C50.1761 6.05326 49.6901 5.90882 49.1958 5.79768C49.0867 5.77976 48.9775 5.74169 48.8865 5.72545C48.4389 5.63051 48.0132 5.45348 47.6314 5.20352C47.5112 5.11993 47.4124 5.00964 47.343 4.88148C47.2736 4.75332 47.2354 4.61083 47.2315 4.46545C47.2488 4.30101 47.3036 4.14261 47.3918 4.00223C47.48 3.86184 47.5992 3.74315 47.7406 3.65513C48.1734 3.3692 48.6935 3.24185 49.2111 3.29505C49.8513 3.36716 50.4541 3.6309 50.939 4.05105L50.9955 4.08689L51.6867 3.45689C51.5956 3.38465 51.5775 3.36672 51.3592 3.20488C50.7468 2.74682 50.0147 2.47186 49.2496 2.41248C48.5468 2.36159 47.8446 2.51746 47.231 2.86049C46.9566 3.02762 46.7263 3.25697 46.5591 3.52961C46.392 3.80225 46.2927 4.11035 46.2695 4.42848C46.2567 4.67124 46.2991 4.91374 46.3935 5.13812C46.488 5.36249 46.6321 5.56301 46.8153 5.72488C47.4332 6.23251 48.1833 6.55706 48.9792 6.6612C49.5497 6.74529 50.0922 6.96111 50.5628 7.2912C50.7236 7.38811 50.8543 7.52693 50.9407 7.69247C51.0271 7.85801 51.0659 8.04388 51.0527 8.22976C51.0396 8.41564 50.975 8.59436 50.8662 8.74637C50.7574 8.89837 50.6084 9.0178 50.4356 9.0916C50.0049 9.38485 49.4864 9.52446 48.9651 9.48752C48.1237 9.42059 47.3265 9.08674 46.692 8.53553L46.6354 8.49969L45.9624 9.11176L46.0353 9.16777C46.8279 9.89651 47.8483 10.335 48.9272 10.4104C49.6561 10.4567 50.3796 10.2595 50.9819 9.8504C51.2665 9.68081 51.5069 9.44742 51.6837 9.16905C51.8605 8.89068 51.9689 8.57509 52 8.24768C52.0219 7.91524 51.9564 7.58284 51.8098 7.28298C51.6632 6.98312 51.4405 6.72606 51.1635 6.53689L51.1595 6.53632Z"
      fill="black"/>
    <path d="M27.4247 0.0179138H28.3704V10.4076H27.4247V0.0179138Z" fill="black"/>
  </g>
  <defs>
    <clipPath id="clip0">
      <rect width="52" height="28" fill="white"/>
    </clipPath>
  </defs>
</svg>
