<svg width="34" height="34" viewBox="0 0 34 34" fill="none" xmlns="http://www.w3.org/2000/svg">
<path d="M12.5091 17.9438C10.5395 17.9438 8.94214 19.5413 8.94214 21.5108V30.4331C8.94214 32.4026 10.5395 34 12.5091 34C14.4786 34 16.076 32.4026 16.076 30.4331V21.5108C16.0746 19.5413 14.4772 17.9438 12.5091 17.9438Z" fill="white"/>
<path d="M0.0241699 21.5108C0.0241699 23.4817 1.62299 25.0806 3.59394 25.0806C5.56488 25.0806 7.1637 23.4817 7.1637 21.5108V17.941H3.59676C3.59535 17.941 3.59535 17.941 3.59394 17.941C1.62299 17.941 0.0241699 19.5399 0.0241699 21.5108Z" fill="white"/>
<path d="M12.5132 0.0427246C12.5118 0.0427246 12.5104 0.0427246 12.509 0.0427246C10.538 0.0427246 8.93921 1.64155 8.93921 3.61249C8.93921 5.58343 10.538 7.18225 12.509 7.18225H16.0759C16.0759 5.15755 16.0759 5.64993 16.0759 3.60542C16.0745 1.6373 14.4799 0.0427246 12.5132 0.0427246Z" fill="white"/>
<path d="M3.56976 16.1315H12.509C14.48 16.1315 16.0788 14.5326 16.0788 12.5617C16.0788 10.5908 14.48 8.99194 12.509 8.99194H3.56976C1.59882 8.99194 0 10.5908 0 12.5617C0 14.5326 1.59882 16.1315 3.56976 16.1315Z" fill="white"/>
<path d="M30.3564 8.99048C28.3883 8.99048 26.7937 10.5851 26.7937 12.5532V12.5602V16.13H30.3606C32.3316 16.13 33.9304 14.5312 33.9304 12.5602C33.9304 10.5893 32.3316 8.99048 30.3606 8.99048C30.3592 8.99048 30.3578 8.99048 30.3564 8.99048Z" fill="white"/>
<path d="M17.8828 3.61247V12.5616C17.8828 14.5312 19.4802 16.1286 21.4497 16.1286C23.4193 16.1286 25.0167 14.5312 25.0167 12.5616V3.61247C25.0167 1.64294 23.4193 0.0455322 21.4497 0.0455322C19.4802 0.0455322 17.8828 1.64294 17.8828 3.61247Z" fill="white"/>
<path d="M25.0152 30.4303C25.0152 28.4608 23.4178 26.8634 21.4483 26.8634H17.8813V30.4332C17.8828 32.4013 19.4788 33.9973 21.4483 33.9973C23.4178 33.9973 25.0152 32.3999 25.0152 30.4303Z" fill="white"/>
<path d="M30.3875 17.941H21.4482C19.4772 17.941 17.8784 19.5399 17.8784 21.5108C17.8784 23.4817 19.4772 25.0806 21.4482 25.0806H30.3875C32.3584 25.0806 33.9572 23.4817 33.9572 21.5108C33.9572 19.5399 32.3584 17.941 30.3875 17.941Z" fill="white"/>
</svg>
